# Extracted single object: Tree_average_regular_Cube.002
mtllib forest_nature_set_all_in.mtl
o Tree_average_regular_Cube.002
v 0.991903 1.800597 -10.556840
v 1.347796 -0.001766 -9.964222
v 0.979400 1.899544 -11.495354
v 1.649873 -0.001766 -11.870225
v 0.001198 1.882573 -10.580986
v -0.584565 -0.001766 -9.900790
v -0.013677 1.927737 -11.519855
v -0.593056 -0.001766 -11.936892
v -0.869148 -0.001766 -10.920852
v 0.988825 1.821858 -11.032661
v -0.002825 1.933944 -11.058517
v 1.360385 -0.001766 -10.995174
v 0.474056 -0.001766 -9.674221
v 0.486637 1.870746 -11.515965
v 0.534597 -0.001766 -11.756306
v 0.501147 1.885305 -10.581197
v 0.182491 -0.001766 -10.980276
v 0.637051 5.158143 -11.583393
v 0.162139 5.181852 -11.505057
v 0.972699 5.192904 -11.274066
v 0.987884 5.141498 -11.579159
v 0.138198 5.234330 -11.194982
v 0.059899 5.342600 -10.761179
v 0.541592 5.295961 -10.820722
v 0.888230 5.253976 -10.795728
v 1.628685 11.125132 -13.410949
v 0.623849 8.770935 -12.620004
v 0.389371 8.773316 -12.619566
v 0.821655 8.752200 -12.411002
v 0.809238 8.755037 -12.584062
v 0.404143 8.773596 -12.441876
v 0.416899 8.769636 -12.197996
v 0.654133 8.765957 -12.204302
v 0.834364 8.749410 -12.160409
v 0.901114 8.149775 -12.504713
v 1.532610 11.118423 -13.436727
v 1.725201 11.136835 -13.258005
v 1.708432 11.148367 -13.340883
v 1.547063 11.108057 -13.357477
v 1.546007 11.114030 -13.230890
v 1.643686 11.119554 -13.204306
v 1.728223 11.139536 -13.133427
v 3.944925 9.935327 -11.755569
v 0.353703 8.158701 -12.581553
v 0.604747 8.151665 -12.582843
v 0.369397 8.153071 -12.393838
v 0.374918 8.146502 -12.128042
v 0.627969 8.137860 -12.134365
v 0.911522 8.137703 -12.033502
v 0.910967 8.141629 -12.313900
v 1.731303 12.977108 -13.672334
v 3.781354 10.174052 -11.806575
v 3.779517 10.171239 -11.948281
v 3.787022 10.175567 -12.072960
v 3.951955 9.937137 -12.047217
v 3.945252 9.932738 -11.911511
v 5.304587 12.575379 -11.465806
v 0.916338 5.801206 -11.435684
v 0.592639 5.825577 -11.197962
v 0.361878 5.763161 -11.685007
v 0.922549 5.757756 -11.698312
v 0.580954 5.769424 -11.712627
v 0.349123 5.807366 -11.416878
v 0.359197 5.834525 -11.173089
v 0.932865 5.792665 -11.162310
v -3.019827 7.557720 -9.738214
v -2.986047 7.544635 -9.511963
v -3.060561 7.631937 -10.117678
v -2.878435 7.853154 -10.149598
v -2.793906 7.827833 -9.895546
v -2.757360 7.806880 -9.678111
v -3.252367 8.174420 -9.777059
v -3.234171 8.200220 -9.591955
v -3.385920 8.106727 -9.873602
v -3.083606 8.073373 -9.998941
v -3.044205 8.086609 -9.852417
v -3.016037 8.092521 -9.662376
v -2.247388 9.943804 -10.163697
v -2.232681 9.956429 -10.029185
v -2.269998 9.937748 -10.300771
v -2.014504 9.868174 -10.397775
v -1.998294 9.866345 -10.256305
v -1.990530 9.868081 -10.115141
v -2.105702 11.741823 -9.532134
v -4.033607 9.314440 -11.403588
v -4.191405 9.228188 -11.490778
v -4.262912 9.384450 -11.277388
v -4.521033 9.377731 -11.297750
v -5.566527 11.384056 -11.685200
v -5.253232 9.096683 -7.940082
v -5.237328 9.185945 -7.909663
v -4.988143 9.105580 -8.226481
v -4.965863 9.193548 -8.213256
v -5.783600 11.069662 -7.937674
v 0.020908 7.158050 -7.940322
v 0.303780 7.207039 -7.963834
v -0.271684 7.096311 -7.924713
v 0.002487 7.285074 -8.225161
v -0.147954 7.259570 -8.208791
v 0.233748 7.311852 -8.241944
v -0.321032 9.471045 -6.955423
v -0.211061 9.500017 -6.933952
v -0.483125 9.427343 -6.984269
v -0.344292 9.489274 -7.168426
v -0.422967 9.467317 -7.175919
v -0.231114 9.519210 -7.149613
v -0.807547 11.223557 -6.797759
v 0.029923 7.543733 -8.029625
v -0.100310 7.531811 -8.023638
v -0.242704 7.500592 -8.010235
v -0.358390 7.365006 -7.751917
v -0.076037 7.432960 -7.764007
v 0.107273 7.462383 -7.775821
v 1.446182 8.441270 -8.042816
v 1.317312 8.506194 -8.197029
v 1.148478 8.601933 -8.087052
v 1.263679 8.549312 -7.939068
v 1.963873 10.474195 -7.024626
v -1.404249 10.116193 -12.984289
v 6.045172 13.488063 -12.081756
v 2.988600 9.598631 -14.276860
v 6.754890 12.698328 -13.016293
v -1.906520 10.990103 -12.046051
v -0.053315 11.259243 -15.569393
v 0.968891 12.834294 -15.537354
v -5.171645 9.363542 -7.136899
v -6.116515 10.609705 -12.259192
v -3.354803 9.068731 -8.040854
v -7.389581 9.876991 -9.587461
v -2.976454 12.820207 -12.003884
v 3.242628 13.471145 -7.489964
v 4.319685 8.668126 -9.208133
v 3.956327 8.404544 -7.075305
v 0.842359 9.065553 -5.737283
v -1.462690 11.678122 -7.888363
v 4.398916 10.526018 -9.630040
v 2.951290 10.829247 -10.800178
v 2.240691 12.091702 -10.810732
v 1.507387 13.485092 -7.183766
v 4.034234 10.612634 -12.221194
v 3.315030 11.487128 -11.665650
v 4.669267 11.942004 -10.592402
v -1.076863 11.637503 -11.557693
v 6.500022 11.583422 -14.269049
v 3.443754 12.844928 -15.564276
v -0.287599 12.543577 -11.347855
v -0.896843 12.310544 -11.204476
v -0.920873 13.258158 -13.292446
v -0.781140 13.002424 -11.589915
v -0.552132 12.656486 -14.535440
v 3.218418 13.780039 -14.559869
v 6.305916 11.016603 -13.250666
v 2.151689 9.150298 -13.718775
v -1.349928 9.360040 -13.311006
v 2.538159 9.938437 -16.178551
v 3.473463 12.380163 -10.094078
v -1.730776 12.286892 -11.622420
v 4.491199 13.219586 -15.352173
v 5.437508 13.804006 -11.715808
v 1.445522 12.917988 -10.709157
v 4.852156 13.935941 -11.887797
v 0.168029 13.803482 -11.457908
v 1.327809 14.064083 -14.204975
v 2.111461 14.441989 -13.966251
v 4.220010 14.364314 -13.041969
v 4.475334 13.790896 -14.567825
v 0.887627 13.553596 -14.543919
v -0.335514 13.440698 -12.286242
v 1.111356 13.841107 -11.601718
v 2.558489 14.620044 -12.395754
v 5.365163 13.562397 -13.308845
v 2.595483 12.607724 -15.323965
v 2.024164 11.739270 -15.881809
v -1.967487 11.624261 -12.499633
v -0.335714 11.506274 -11.218001
v 3.718368 13.401071 -10.485925
v 5.026007 12.568701 -10.389547
v 4.498430 11.822132 -15.636538
v 4.147564 10.456116 -15.505640
v 3.957416 11.217573 -15.965345
v -0.927885 11.850035 -14.627895
v -1.758749 10.674839 -14.438062
v -1.377743 10.740476 -12.023430
v 2.122801 12.754724 -10.242208
v 1.444952 10.435284 -10.838109
v 2.576420 11.563559 -10.751317
v 6.332195 12.477531 -12.188122
v 4.437357 10.198793 -14.661860
v 1.939253 9.699529 -15.218626
v -0.981652 9.475373 -14.252904
v -1.115777 10.205378 -11.956697
v 3.269470 10.117262 -13.313091
v 1.029966 9.630691 -11.727839
v 0.489066 9.396570 -13.251708
v -4.192602 9.745444 -10.912731
v -4.896483 9.918183 -11.866768
v -2.788438 9.234470 -8.280555
v -3.742535 9.247379 -7.079658
v -1.436976 11.205967 -10.692107
v -3.239850 11.716644 -13.328197
v -2.761328 11.681958 -12.537210
v 0.014220 10.852584 -8.957036
v -0.515127 11.856726 -10.205074
v -5.291730 11.194036 -6.914863
v -6.479575 10.678280 -8.420313
v -4.003638 12.343470 -13.493027
v -1.566033 12.804614 -9.030308
v -6.896700 12.850474 -10.714711
v -5.499464 13.010753 -8.065190
v -1.800920 9.462475 -10.501096
v -3.528089 9.536970 -9.837051
v -3.744697 10.023756 -12.175787
v -0.851937 9.698427 -10.113062
v -4.107399 8.825736 -7.528299
v -5.018150 8.296358 -7.489952
v -6.929930 12.624385 -12.949522
v -5.289636 10.804708 -13.313195
v -3.372364 10.844434 -12.621877
v -1.447399 10.747879 -7.868551
v -6.645055 11.360659 -8.646784
v -5.751305 9.128803 -6.955316
v -6.086605 13.094579 -12.890268
v -0.651779 11.953075 -9.833301
v -6.706004 13.642631 -11.580960
v -2.755647 13.653419 -10.075148
v -6.172964 13.666760 -10.274921
v -5.527098 13.727918 -8.973665
v -3.508853 13.039713 -9.076310
v -1.733472 13.785645 -10.060120
v -2.197457 12.826655 -11.998069
v -5.058498 13.327477 -12.389452
v -7.443555 12.104693 -10.290930
v -7.933021 10.777241 -10.890766
v -4.245704 11.328523 -6.771645
v -1.311918 11.838506 -9.262569
v -0.252344 11.843644 -9.750349
v -1.610163 11.517519 -11.483224
v -5.979796 12.226262 -13.376301
v -2.091820 11.592340 -8.198412
v -2.522995 10.152206 -7.314803
v -2.657230 10.722562 -11.611853
v -5.940038 11.729504 -13.219410
v -7.233168 11.438494 -12.053977
v -7.247991 9.930986 -11.508751
v -4.986125 7.836357 -8.862402
v -3.860366 8.872730 -9.116038
v -4.477189 8.791915 -8.010396
v -2.426322 9.231011 -7.238091
v -2.134284 9.414658 -8.586390
v -1.658144 9.113606 -9.154119
v -5.148155 9.356409 -10.361564
v -3.128519 9.968366 -10.653224
v 3.223163 8.564462 -7.806434
v -1.612832 11.012727 -8.329322
v -0.931125 11.029503 -9.674549
v 2.623912 9.664483 -10.448460
v 3.928829 11.437406 -10.661182
v -0.370167 9.799650 -5.294914
v 4.161155 11.347850 -8.178141
v 3.110807 11.773683 -5.026218
v 1.857211 13.058382 -9.657537
v 3.085598 12.665913 -10.030597
v 2.208349 12.041685 -5.010003
v 1.902936 9.262973 -8.028891
v 2.586623 8.797074 -8.931292
v -1.693011 10.125892 -7.050700
v 3.534590 8.090351 -6.091295
v 2.857728 8.378984 -5.648001
v 0.030130 10.608560 -10.343640
v 4.231658 10.962169 -10.150663
v 4.753761 11.012314 -6.833235
v 1.665187 10.333425 -4.893384
v 2.851062 9.598538 -4.916246
v -0.120455 12.982896 -6.966945
v -0.180009 12.293779 -7.810234
v 1.302802 11.944963 -10.108369
v 1.940478 13.251331 -8.046682
v 2.796408 12.661716 -8.689701
v 1.327610 13.077176 -6.084939
v 0.236119 12.883323 -6.607444
v 3.314489 11.812032 -5.838854
v 3.682563 12.754392 -8.815591
v 3.939573 12.621614 -10.057742
v 2.529300 12.889298 -9.381834
v 0.035258 11.515224 -5.372422
v 0.094950 10.812576 -5.507120
v 1.190495 11.296098 -4.561407
v 2.935483 10.522290 -5.310882
v 3.534795 9.118527 -5.893355
v 3.701469 10.132053 -5.665040
v 4.217443 11.363008 -6.654152
v 0.792155 12.283610 -9.767674
v -0.548289 11.620783 -8.178028
v 2.099551 9.730638 -4.836004
v 4.729148 10.656757 -7.613518
v 5.215261 9.954847 -7.059377
v 5.187520 9.598436 -8.242565
v 3.898729 9.842122 -9.446084
v 2.154623 10.076847 -10.547817
v -1.561407 12.038031 -6.725012
v -2.011792 11.385348 -7.152167
v 1.653189 8.502721 -7.343340
v 3.009723 7.644828 -6.671794
v 4.692735 8.460958 -7.248341
v 4.950049 8.201367 -8.267995
v 3.648516 8.678159 -9.034525
v 0.360556 8.811652 -6.789089
v -0.388156 9.089115 -8.392679
v 2.415667 9.284322 -9.495048
v 0.680478 9.102899 -9.611052
v -0.703531 9.376813 -13.009806
v -0.097492 8.989877 -14.262198
v 1.347239 9.112303 -14.338100
v 5.398062 12.225788 -11.619949
v 4.700284 11.070531 -11.631560
v 0.214228 10.530898 -11.375219
v -2.044980 10.087098 -12.312915
v 0.575721 10.357615 -15.375691
v 5.340213 11.396492 -15.039618
v -1.648147 10.980660 -12.913580
v 1.006325 10.852564 -16.288689
v 6.468853 11.966620 -14.184616
v 2.516907 14.359386 -11.200010
v 2.108986 13.669447 -15.532959
v 2.234774 14.245374 -13.240923
v 1.056488 14.165929 -13.109583
v -0.260426 13.662963 -14.735322
v -0.059117 14.366697 -13.032565
v 0.887335 14.069510 -12.034932
v 1.578993 14.539259 -12.056251
v 6.308915 13.536722 -12.897252
v 5.639252 13.060759 -14.383524
v 0.132824 12.246807 -14.918211
v -0.970348 11.908015 -13.452623
v 0.947971 12.244716 -11.298511
v 4.428087 13.072658 -10.126898
v 2.480762 10.788712 -16.598476
v -1.693991 10.370349 -15.000136
v 1.831198 11.659570 -10.616150
v 5.782473 11.359157 -12.377966
v 0.755221 10.088559 -15.630219
v -0.566739 9.543370 -15.016550
v -1.256830 9.738016 -12.734904
v 5.523309 9.960820 -13.421040
v 3.927160 10.378551 -13.303819
v 2.300119 9.824697 -12.802281
v 2.570500 10.271198 -11.381692
v -2.646638 9.530224 -9.592128
v -6.051734 9.826212 -8.690386
v -4.773494 11.767278 -13.354586
v -0.212102 11.271540 -8.726078
v -3.829223 13.373489 -12.104793
v -0.914287 13.361726 -11.327523
v -5.154992 12.575534 -8.281275
v -4.759505 13.804935 -9.453351
v -6.333786 12.925582 -8.640593
v -3.717216 14.127018 -9.575490
v -4.050104 13.040097 -8.462877
v -2.880369 13.011417 -8.885384
v -3.068495 12.361981 -7.634553
v -0.820824 13.011483 -10.304686
v -2.799020 13.969469 -10.893553
v -1.830761 13.766450 -11.463948
v -4.324634 14.122756 -10.565422
v -3.716886 13.733784 -11.036173
v -5.044410 13.765507 -11.103547
v -5.842242 13.213493 -12.016539
v -7.814282 12.674893 -11.624889
v -7.178202 11.595072 -9.477642
v -5.805653 11.835567 -8.483795
v -0.797359 12.017304 -11.026948
v -1.686720 12.227346 -12.038273
v -6.042432 10.066655 -8.005608
v -3.053399 10.974370 -7.661649
v -0.175903 10.671447 -10.092480
v -0.896899 9.901609 -10.635115
v -5.905597 8.344688 -9.486505
v -1.662727 9.898993 -8.236798
v -0.361705 9.790297 -8.764193
v -6.223832 9.426313 -11.231612
v -4.082901 8.767909 -10.022562
v -2.060582 10.235295 -11.172364
v -0.950415 9.475872 -9.352419
v 4.272248 9.278699 -6.402202
v 3.134737 10.297927 -10.403755
v 4.988144 10.233589 -8.913131
v -1.267922 10.442544 -5.853449
v 1.066740 13.314996 -8.987372
v 3.938786 12.083918 -8.456665
v 2.278873 13.038744 -6.665260
v 3.081124 13.390532 -6.661235
v 3.669662 12.431894 -6.448005
v 4.131416 12.639342 -7.136973
v 0.604456 12.442266 -7.631806
v -0.761599 12.286801 -5.876757
v 4.825519 11.324489 -8.779840
v 4.822362 11.169831 -9.396738
v 4.384516 11.545637 -9.743659
v 2.920226 11.814947 -10.740456
v -0.199015 11.961431 -8.844404
v 2.908225 9.176157 -5.444398
v 4.927521 10.254574 -9.378237
v 1.447271 11.009527 -10.155243
v 0.581038 10.052016 -10.432631
v -1.549337 11.300518 -5.909961
v 1.872242 8.939404 -6.579327
v 4.628292 8.084764 -7.705291
v 4.847022 9.391016 -8.980401
v -0.876935 9.669847 -7.513400
v 1.086951 8.861459 -8.298606
v 1.770822 9.100348 -10.010214
v 1.200406 9.594219 -10.247517
vt 0.561805 0.614235
vt 0.561665 0.699105
vt 0.563453 0.699132
vt 0.564399 0.614235
vt 0.562286 0.552733
vt 0.556449 0.552733
vt 0.559211 0.614235
vt 0.554986 0.552733
vt 0.556449 0.552733
vt 0.559211 0.611614
vt 0.559211 0.612924
vt 0.560402 0.552733
vt 0.568123 0.552733
vt 0.566564 0.552733
vt 0.564399 0.612924
vt 0.561930 0.552733
vt 0.566494 0.552733
vt 0.564399 0.611614
vt 0.561805 0.611614
vt 0.561536 0.698467
vt 0.559183 0.699878
vt 0.559343 0.698843
vt 0.559367 0.699357
vt 0.563463 0.698595
vt 0.559398 0.791694
vt 0.559274 0.809088
vt 0.560424 0.809456
vt 0.560644 0.792021
vt 0.559349 0.791381
vt 0.559227 0.808871
vt 0.559196 0.809054
vt 0.559328 0.791598
vt 0.562247 0.792586
vt 0.579214 0.847181
vt 0.579177 0.847070
vt 0.562173 0.792433
vt 0.560597 0.791699
vt 0.560379 0.809232
vt 0.563319 0.697622
vt 0.561323 0.809242
vt 0.563261 0.909848
vt 0.563255 0.909896
vt 0.561379 0.809118
vt 0.562716 0.909905
vt 0.562167 0.909929
vt 0.561410 0.809343
vt 0.563255 0.909816
vt 0.562220 0.792267
vt 0.578328 0.854001
vt 0.578372 0.854098
vt 0.561815 0.970918
vt 0.562172 0.909882
vt 0.562167 0.909850
vt 0.562716 0.909825
vt 0.560277 0.717677
vt 0.561361 0.718137
vt 0.560401 0.716827
vt 0.560246 0.717260
vt 0.563115 0.717784
vt 0.563307 0.715944
vt 0.561549 0.716692
vt 0.563120 0.718250
vt 0.587147 0.920563
vt 0.579186 0.847097
vt 0.578343 0.854056
vt 0.556680 0.767640
vt 0.557676 0.767507
vt 0.540270 0.786432
vt 0.540183 0.785892
vt 0.556533 0.760929
vt 0.555296 0.761440
vt 0.540479 0.786024
vt 0.541728 0.791812
vt 0.542068 0.792991
vt 0.540756 0.800056
vt 0.539733 0.802381
vt 0.541945 0.792529
vt 0.540653 0.799402
vt 0.539642 0.801603
vt 0.547358 0.854997
vt 0.547274 0.854457
vt 0.538987 0.799695
vt 0.540550 0.798576
vt 0.548649 0.851286
vt 0.548696 0.851713
vt 0.536196 0.817759
vt 0.535123 0.820271
vt 0.527379 0.817083
vt 0.527426 0.816905
vt 0.548710 0.852038
vt 0.550491 0.912801
vt 0.547415 0.855463
vt 0.530407 0.890237
vt 0.535229 0.814841
vt 0.533916 0.820579
vt 0.528909 0.822005
vt 0.524249 0.878189
vt 0.528886 0.822223
vt 0.555183 0.770904
vt 0.554468 0.822888
vt 0.554994 0.824317
vt 0.555922 0.776340
vt 0.556493 0.776356
vt 0.555360 0.824651
vt 0.555918 0.825161
vt 0.557003 0.775867
vt 0.557853 0.761050
vt 0.556073 0.767675
vt 0.552274 0.885439
vt 0.555776 0.823975
vt 0.556345 0.770548
vt 0.555210 0.823456
vt 0.557139 0.770276
vt 0.565251 0.802253
vt 0.566107 0.799095
vt 0.565622 0.799970
vt 0.570954 0.867985
vt 0.566545 0.796474
vt 0.153976 0.736070
vt 0.157338 0.711871
vt 0.162473 0.735906
vt 0.152171 0.676385
vt 0.147223 0.715482
vt 0.145030 0.681096
vt 0.157908 0.684170
vt 0.169429 0.733364
vt 0.143097 0.667809
vt 0.140996 0.656255
vt 0.131173 0.654740
vt 0.167913 0.786632
vt 0.126599 0.712246
vt 0.134169 0.700475
vt 0.130211 0.673770
vt 0.131668 0.736126
vt 0.162546 0.811581
vt 0.161219 0.772621
vt 0.131879 0.715091
vt 0.122282 0.763878
vt 0.123750 0.697270
vt 0.129121 0.766856
vt 0.142623 0.767001
vt 0.119425 0.701677
vt 0.119647 0.740244
vt 0.119904 0.688101
vt 0.148811 0.720485
vt 0.140694 0.728879
vt 0.146502 0.767556
vt 0.169434 0.809730
vt 0.174129 0.776900
vt 0.171652 0.748115
vt 0.129917 0.810558
vt 0.127171 0.832667
vt 0.125328 0.796795
vt 0.143454 0.881673
vt 0.146301 0.849015
vt 0.139019 0.859776
vt 0.161203 0.854525
vt 0.158367 0.883702
vt 0.168747 0.844463
vt 0.145825 0.893666
vt 0.150633 0.891927
vt 0.138206 0.887800
vt 0.141588 0.888563
vt 0.152291 0.861043
vt 0.161949 0.824957
vt 0.154701 0.805687
vt 0.134048 0.804649
vt 0.134047 0.842306
vt 0.139193 0.810762
vt 0.133869 0.876471
vt 0.130497 0.808331
vt 0.126962 0.830518
vt 0.129247 0.858885
vt 0.120090 0.795882
vt 0.132325 0.863039
vt 0.139136 0.859968
vt 0.137520 0.882631
vt 0.140934 0.823162
vt 0.150187 0.884813
vt 0.161561 0.876270
vt 0.166707 0.851135
vt 0.171027 0.832285
vt 0.174245 0.812285
vt 0.148301 0.813131
vt 0.118293 0.769212
vt 0.124973 0.791110
vt 0.137129 0.794508
vt 0.161136 0.829094
vt 0.155782 0.802876
vt 0.155188 0.855674
vt 0.161210 0.766055
vt 0.157702 0.704181
vt 0.156589 0.737074
vt 0.166904 0.728928
vt 0.148322 0.690644
vt 0.138237 0.680940
vt 0.127659 0.771156
vt 0.124224 0.723300
vt 0.121583 0.720594
vt 0.117489 0.735963
vt 0.145764 0.805780
vt 0.148963 0.754501
vt 0.172110 0.786949
vt 0.170447 0.844508
vt 0.171868 0.723612
vt 0.165799 0.688503
vt 0.160192 0.680834
vt 0.153262 0.656896
vt 0.126351 0.667244
vt 0.122701 0.654619
vt 0.122737 0.663900
vt 0.134317 0.664732
vt 0.146559 0.656976
vt 0.127003 0.653376
vt 0.136999 0.691400
vt 0.140707 0.725644
vt 0.149758 0.595652
vt 0.154090 0.637496
vt 0.161031 0.649109
vt 0.158568 0.684765
vt 0.145018 0.680396
vt 0.170426 0.640322
vt 0.170405 0.668373
vt 0.128703 0.737625
vt 0.139247 0.710229
vt 0.159767 0.607428
vt 0.175713 0.752522
vt 0.166813 0.711773
vt 0.161489 0.733861
vt 0.177682 0.671313
vt 0.183372 0.733842
vt 0.179465 0.682761
vt 0.184250 0.742629
vt 0.186045 0.810443
vt 0.147782 0.601594
vt 0.150712 0.652184
vt 0.140044 0.639243
vt 0.161405 0.685157
vt 0.160716 0.637688
vt 0.126400 0.617141
vt 0.122721 0.661315
vt 0.115854 0.711065
vt 0.142215 0.808720
vt 0.136449 0.765582
vt 0.130049 0.820382
vt 0.154626 0.763197
vt 0.155014 0.816427
vt 0.176357 0.697035
vt 0.182974 0.765012
vt 0.172517 0.728944
vt 0.172411 0.839318
vt 0.175031 0.891497
vt 0.180294 0.830041
vt 0.159803 0.899690
vt 0.171398 0.874272
vt 0.169146 0.921538
vt 0.142645 0.955704
vt 0.133346 0.894818
vt 0.137222 0.879413
vt 0.128164 0.934335
vt 0.119811 0.905449
vt 0.113759 0.850891
vt 0.122919 0.925182
vt 0.138364 0.958340
vt 0.144714 0.962990
vt 0.126406 0.886945
vt 0.134658 0.932456
vt 0.130132 0.822969
vt 0.148174 0.918628
vt 0.151177 0.962607
vt 0.153855 0.921794
vt 0.154941 0.841879
vt 0.178393 0.883543
vt 0.162029 0.944844
vt 0.183832 0.837816
vt 0.159842 0.944727
vt 0.152306 0.951561
vt 0.159479 0.898480
vt 0.167543 0.915926
vt 0.166804 0.882482
vt 0.151006 0.920129
vt 0.131573 0.935432
vt 0.139954 0.923032
vt 0.114822 0.867434
vt 0.111814 0.770294
vt 0.116714 0.819492
vt 0.122157 0.795425
vt 0.143424 0.778508
vt 0.133798 0.771697
vt 0.123499 0.740238
vt 0.133455 0.626604
vt 0.157158 0.756371
vt 0.167092 0.794998
vt 0.176877 0.825796
vt 0.184930 0.809463
vt 0.147964 0.857080
vt 0.131121 0.865749
vt 0.161138 0.805722
vt 0.122291 0.872796
vt 0.125729 0.683703
vt 0.171267 0.664613
vt 0.173162 0.791545
vt 0.150334 0.722828
vt 0.117555 0.794976
vt 0.118458 0.717301
vt 0.136568 0.562699
vt 0.136565 0.575758
vt 0.126626 0.657819
vt 0.143704 0.577285
vt 0.154869 0.601545
vt 0.167072 0.628561
vt 0.139201 0.631671
vt 0.146090 0.606682
vt 0.172000 0.631972
vt 0.161143 0.622280
vt 0.158349 0.636904
vt 0.133753 0.770358
vt 0.139428 0.642522
vt 0.125285 0.704757
vt 0.127958 0.654410
vt 0.114523 0.779008
vt 0.167785 0.607976
vt 0.180188 0.604996
vt 0.178213 0.640311
vt 0.175580 0.589401
vt 0.147643 0.596520
vt 0.151261 0.609170
vt 0.163177 0.591219
vt 0.124467 0.793948
vt 0.158863 0.704244
vt 0.164318 0.742328
vt 0.175079 0.694218
vt 0.144073 0.672597
vt 0.153795 0.715206
vt 0.148155 0.794293
vt 0.184092 0.669293
vt 0.184124 0.726269
vt 0.186520 0.690781
vt 0.141484 0.665507
vt 0.129599 0.724116
vt 0.135799 0.632431
vt 0.163847 0.804580
vt 0.172125 0.747173
vt 0.179280 0.657979
vt 0.179819 0.780505
vt 0.131530 0.794239
vt 0.149471 0.760888
vt 0.120356 0.751495
vt 0.131225 0.853340
vt 0.117585 0.819985
vt 0.140175 0.894178
vt 0.151604 0.934845
vt 0.145906 0.877503
vt 0.155579 0.878576
vt 0.163896 0.923670
vt 0.163472 0.850572
vt 0.179122 0.848615
vt 0.175340 0.902359
vt 0.172145 0.908024
vt 0.165294 0.965713
vt 0.162802 0.851866
vt 0.154656 0.865604
vt 0.165348 0.874970
vt 0.135992 0.969779
vt 0.124126 0.887647
vt 0.128235 0.950258
vt 0.145150 0.958002
vt 0.147874 0.982105
vt 0.156589 0.967419
vt 0.144636 0.815593
vt 0.163030 0.957974
vt 0.175405 0.828677
vt 0.169440 0.898540
vt 0.170024 0.941131
vt 0.177817 0.848453
vt 0.162374 0.971362
vt 0.171734 0.899576
vt 0.173097 0.828659
vt 0.152649 0.965713
vt 0.157657 0.953820
vt 0.144370 0.940102
vt 0.137872 0.957482
vt 0.128693 0.926127
vt 0.164449 0.785114
vt 0.181426 0.832519
vt 0.176937 0.789509
vt 0.182884 0.805088
vt 0.180241 0.758888
vt 0.114015 0.862072
vt 0.122933 0.892792
vt 0.128427 0.887599
vt 0.116835 0.873687
vt 0.163454 0.612956
vt 0.163359 0.652058
vt 0.171195 0.655803
vt 0.161113 0.707540
vt 0.182701 0.775668
vt 0.183776 0.697495
vt 0.186264 0.747628
vt 0.115044 0.740335
vt 0.113931 0.823642
vt 0.150817 0.602290
vt 0.169816 0.596394
vt 0.182679 0.614896
vt 0.183214 0.623007
vt 0.119906 0.680788
vt 0.143366 0.601656
vt 0.150988 0.645205
vt 0.148541 0.865787
vt 0.130198 0.906367
vt 0.152746 0.702086
vt 0.138705 0.715103
vn 0.0298 -0.0239 -0.9993
vn 0.1166 0.1534 -0.9813
vn -0.9042 0.3838 0.1874
vn 0.0000 -1.0000 -0.0000
vn 0.9459 0.2454 0.2123
vn 0.1994 0.3842 0.9015
vn 0.9801 0.1982 0.0090
vn -0.9195 0.3560 -0.1666
vn 0.0633 0.0599 0.9962
vn -0.9986 0.0479 -0.0206
vn -0.1323 0.4027 0.9057
vn -0.0599 0.1495 -0.9869
vn 1.0000 0.0015 0.0076
vn -0.0047 -0.0606 -0.9982
vn -0.9972 0.0650 0.0371
vn 0.5105 -0.8590 -0.0379
vn 0.0283 0.1095 0.9936
vn -0.0483 0.0690 0.9964
vn -0.0765 -0.0042 -0.9971
vn 0.9962 0.0234 0.0840
vn -0.9962 0.0256 -0.0828
vn 0.9302 -0.3651 -0.0391
vn -0.0572 0.4181 0.9066
vn 0.9135 -0.3869 -0.1259
vn -0.3550 0.4757 0.8048
vn 0.2269 -0.0789 -0.9707
vn -0.9945 0.0625 0.0838
vn -0.2905 0.1384 0.9468
vn -0.4352 0.8999 0.0288
vn 0.9776 -0.0493 -0.2047
vn -0.6568 0.2132 0.7233
vn -0.9725 0.1286 0.1942
vn 0.6762 -0.1396 -0.7234
vn -0.8950 0.4454 0.0258
vn 0.0761 -0.3538 -0.9322
vn 0.3478 -0.4138 -0.8413
vn -0.8743 0.4708 0.1179
vn -0.0582 -0.3461 -0.9364
vn -0.9994 0.0201 0.0298
vn 0.9995 -0.0059 -0.0310
vn 0.0728 0.3769 0.9234
vn -0.2674 0.2473 0.9313
vn 0.9997 -0.0087 -0.0241
vn -0.9953 0.0959 -0.0128
vn 0.2659 -0.1492 -0.9524
vn 0.1286 -0.3286 -0.9357
vn -1.0000 0.0049 0.0060
vn -0.1817 0.3563 0.9165
vn 1.0000 0.0027 -0.0082
vn 0.2622 0.0775 -0.9619
vn -0.8411 0.5400 -0.0319
vn -0.1840 0.1511 0.9712
vn -0.4356 0.9000 0.0161
vn 0.1913 -0.0638 -0.9795
vn 0.5093 -0.8606 -0.0029
vn 0.8869 -0.4611 0.0289
vn -0.2601 0.0280 0.9652
vn -0.8445 0.5356 0.0003
vn 0.8886 -0.4587 0.0095
vn 0.9944 0.1035 0.0202
vn 0.0243 0.8943 -0.4467
vn -0.5643 -0.8217 0.0804
vn 0.0182 -0.1966 -0.9803
vn 0.0688 -0.8385 0.5406
vn 0.9950 0.0500 0.0864
vn -0.4310 -0.0330 -0.9018
vn -0.1525 -0.2308 -0.9610
vn 0.3783 0.2643 0.8872
vn 0.7227 0.6853 -0.0895
vn 0.5148 0.8550 -0.0635
vn -0.6020 -0.7984 -0.0105
vn 0.5043 0.8577 -0.1003
vn 0.5301 0.2499 0.8103
vn -0.7715 0.5330 0.3474
vn 0.8379 -0.5274 -0.1409
vn 0.6357 0.7390 0.2230
vn -0.3672 -0.8699 0.3293
vn 0.6731 0.7156 -0.1867
vn -0.8268 -0.4783 0.2962
vn 0.2304 -0.2762 0.9331
vn 0.9954 0.0785 -0.0557
vn 0.8527 -0.5162 -0.0806
vn 0.3378 0.0431 0.9402
vn -0.3686 0.0104 -0.9295
vn -0.8658 0.4995 0.0291
vn -0.2285 0.3991 -0.8880
vn -0.9936 0.0415 0.1047
vn 0.9887 0.0999 -0.1120
vn -0.9866 0.0209 0.1618
vn 0.5305 0.4873 0.6936
vn 0.4565 -0.3584 -0.8143
vn -0.7237 -0.6810 -0.1118
vn 0.1515 0.7763 0.6119
vn 0.4012 0.1748 -0.8991
vn -0.5940 -0.4396 -0.6737
vn -0.0816 0.1478 0.9856
vn 0.0050 0.1474 -0.9891
vn 0.6973 0.3403 0.6309
vn 0.0518 0.8617 -0.5048
vn -0.7164 -0.2921 -0.6336
vn 0.7245 0.2198 0.6533
vn -0.5970 -0.1614 0.7858
vn -0.7172 -0.1920 -0.6698
vn -0.9378 0.0647 -0.3412
vn -0.0208 0.4013 -0.9157
vn 0.9795 0.1605 0.1217
vn -0.0865 0.8897 -0.4483
vn 0.0079 -0.8308 0.5564
vn -0.9144 0.2844 -0.2881
vn 0.9420 0.3306 -0.0582
vn 0.0323 0.2171 -0.9756
vn 0.0537 -0.3541 0.9337
vn -0.1164 0.3821 -0.9168
vn 0.9659 0.2065 -0.1562
vn 0.0431 -0.3699 0.9281
vn -0.1565 -0.1315 0.9789
vn 0.0991 0.2332 -0.9674
vn -0.9368 -0.1357 -0.3224
vn -0.1404 -0.1273 0.9819
vn 0.1491 -0.5026 0.8516
vn -0.3921 0.3787 -0.8384
vn -0.1922 0.5747 -0.7955
vn 0.1532 -0.4968 0.8542
vn -0.1145 0.6068 -0.7866
vn -0.9100 -0.0223 -0.4140
vn -0.7898 -0.0041 0.6134
vn -0.5712 0.6565 0.4927
vn 0.3894 -0.2946 0.8727
vn 0.6273 -0.5822 -0.5172
vn -0.2133 0.5508 -0.8069
vn 0.2019 -0.4792 0.8542
vn 0.7845 0.1062 -0.6109
vn -0.2112 -0.6419 0.7371
vn 0.3823 -0.8998 0.2101
vn 0.3997 -0.9033 0.1558
vn 0.0435 -0.8444 -0.5339
vn 0.5926 -0.3651 0.7180
vn -0.1610 -0.2003 -0.9664
vn -0.1569 -0.3108 -0.9374
vn 0.7465 -0.5474 0.3783
vn -0.3377 -0.2441 0.9091
vn -0.2379 -0.2839 0.9289
vn -0.7126 -0.1449 -0.6864
vn -0.1491 0.5486 -0.8227
vn 0.4977 0.2250 -0.8377
vn 0.0208 0.4839 0.8749
vn -0.4692 0.7323 -0.4936
vn 0.5243 0.8223 -0.2213
vn -0.4874 0.8183 0.3047
vn -0.0965 0.9523 -0.2896
vn -0.0792 0.9906 -0.1117
vn -0.0558 0.6133 -0.7879
vn -0.0107 0.8082 -0.5889
vn -0.1155 0.7139 -0.6906
vn -0.5702 -0.0525 -0.8198
vn -0.9605 0.2781 -0.0014
vn -0.7761 0.5196 0.3573
vn -0.4002 0.4962 0.7705
vn -0.6488 0.7585 0.0622
vn 0.1494 0.0323 0.9883
vn -0.4426 0.6783 0.5865
vn -0.3901 0.5631 0.7285
vn -0.1098 0.9906 -0.0811
vn 0.0974 0.9854 -0.1395
vn -0.5787 -0.8066 -0.1203
vn 0.2925 0.9084 -0.2986
vn 0.5429 0.8055 -0.2375
vn 0.5484 0.8026 -0.2348
vn -0.3698 0.6620 -0.6519
vn 0.1090 -0.1437 -0.9836
vn -0.4501 0.3091 -0.8378
vn 0.0637 0.3548 -0.9328
vn 0.1773 0.4467 -0.8770
vn -0.7143 0.4741 -0.5148
vn -0.4999 -0.0270 -0.8657
vn -0.7025 0.1042 -0.7040
vn -0.8628 0.4871 -0.1351
vn -0.7029 0.1091 -0.7029
vn -0.4410 -0.3218 0.8379
vn 0.1862 0.1135 0.9759
vn -0.0095 0.1246 0.9922
vn -0.2605 0.5401 0.8003
vn 0.2099 -0.2444 0.9467
vn -0.2597 0.3997 0.8791
vn 0.5258 0.7892 -0.3174
vn 0.9567 -0.0062 0.2910
vn 0.3493 0.6291 0.6944
vn 0.1258 0.1984 -0.9720
vn 0.6495 0.1548 -0.7444
vn 0.0919 0.1641 -0.9822
vn 0.5549 -0.3240 -0.7662
vn 0.0753 0.4236 -0.9027
vn 0.4548 -0.3695 -0.8103
vn -0.1887 -0.6048 -0.7737
vn -0.8217 0.5670 -0.0577
vn -0.9028 0.4268 -0.0537
vn -0.8195 0.5705 -0.0550
vn -0.5514 -0.7585 0.3474
vn -0.4149 -0.3334 0.8466
vn 0.0207 0.1337 0.9908
vn -0.5896 -0.2395 0.7714
vn -0.2204 -0.4531 0.8638
vn 0.5083 0.0539 0.8595
vn 0.8587 0.4138 0.3024
vn 0.3348 -0.9240 0.1847
vn 0.8695 0.2623 0.4185
vn 0.8340 -0.4613 0.3027
vn 0.8312 -0.5395 0.1344
vn 0.5017 -0.6182 -0.6051
vn 0.5440 -0.5963 -0.5904
vn 0.2553 -0.8892 -0.3797
vn 0.2719 -0.8904 -0.3649
vn -0.1832 -0.9211 -0.3436
vn -0.2977 -0.4388 -0.8478
vn 0.3197 -0.9468 -0.0362
vn 0.0024 -0.8055 -0.5925
vn -0.4582 -0.8282 -0.3227
vn -0.9314 0.0859 -0.3537
vn -0.7213 -0.5352 -0.4396
vn -0.8389 -0.5442 -0.0046
vn -0.5679 -0.5958 -0.5678
vn 0.6080 -0.5440 0.5782
vn 0.2596 -0.8807 -0.3961
vn 0.8050 -0.5702 -0.1640
vn -0.0936 -0.5841 0.8063
vn 0.0453 -0.8081 0.5873
vn -0.0278 -0.9216 0.3871
vn 0.5808 -0.7754 0.2480
vn -0.4023 -0.6261 0.6679
vn -0.3579 -0.6034 0.7126
vn 0.0441 -0.9897 0.1364
vn 0.2119 -0.9745 0.0745
vn 0.1829 -0.7701 0.6111
vn 0.3305 -0.9166 0.2252
vn 0.3467 -0.4125 0.8424
vn 0.1678 -0.7624 -0.6250
vn 0.2719 -0.8994 -0.3423
vn 0.1103 -0.9000 -0.4217
vn -0.2996 -0.9308 -0.2093
vn -0.5371 -0.8055 0.2504
vn 0.4226 -0.8928 -0.1556
vn 0.5990 0.0113 -0.8007
vn 0.7972 -0.5485 -0.2524
vn 0.9763 0.1168 -0.1821
vn -0.0849 -0.6907 0.7182
vn 0.1201 0.0949 0.9882
vn -0.5102 -0.4456 0.7356
vn -0.1157 0.0193 -0.9931
vn -0.0074 -0.6286 -0.7777
vn 0.4785 0.1604 -0.8633
vn 0.5912 -0.0804 0.8025
vn 0.9036 0.3882 0.1813
vn 0.7394 -0.0850 -0.6679
vn 0.1872 0.7263 0.6614
vn 0.7542 0.3095 0.5791
vn -0.7719 0.6267 0.1069
vn -0.0775 0.9969 0.0132
vn -0.4806 0.8748 0.0621
vn -0.0928 0.9957 -0.0078
vn -0.7604 0.6164 0.2047
vn -0.6195 0.7361 0.2729
vn -0.5511 -0.1489 0.8211
vn 0.2912 0.7552 0.5873
vn -0.1470 0.7292 0.6684
vn 0.6846 0.4084 0.6038
vn -0.1587 0.6634 0.7312
vn 0.6403 0.6055 0.4727
vn -0.1205 0.8789 0.4616
vn 0.7812 0.3538 0.5143
vn 0.6641 0.7238 0.1872
vn -0.1248 0.9233 0.3632
vn -0.0687 0.6986 -0.7122
vn 0.5371 0.7961 0.2790
vn 0.0024 0.4934 -0.8698
vn -0.1479 0.6602 -0.7364
vn -0.2032 0.9455 -0.2546
vn 0.5493 0.8072 -0.2161
vn -0.2784 0.9101 -0.3070
vn 0.0393 0.9457 -0.3226
vn -0.5912 0.6558 0.4695
vn -0.5778 0.6801 0.4513
vn -0.9226 0.1880 0.3368
vn -0.9285 0.0912 0.3601
vn -0.8310 0.0670 0.5522
vn -0.8561 0.2637 0.4445
vn -0.1721 0.8908 0.4206
vn -0.7643 0.4693 0.4423
vn -0.1364 0.7219 0.6785
vn 0.3315 -0.0922 0.9390
vn -0.1185 -0.1272 0.9848
vn 0.6033 0.0279 0.7971
vn 0.4931 -0.0116 0.8699
vn 0.5480 0.6322 0.5478
vn 0.2314 0.8668 0.4417
vn 0.0996 0.7790 0.6191
vn 0.1381 0.8670 0.4788
vn 0.2885 0.9473 -0.1395
vn -0.0824 0.8053 -0.5871
vn 0.6376 0.6833 -0.3557
vn 0.0086 -0.2445 -0.9696
vn -0.0997 -0.3069 -0.9465
vn 0.0890 0.7921 -0.6039
vn -0.7921 0.0105 0.6104
vn -0.8010 0.1670 0.5748
vn -0.2517 -0.9121 0.3237
vn -0.0760 0.3455 0.9353
vn 0.8396 -0.3809 0.3872
vn 0.4435 0.0419 -0.8953
vn 0.7912 -0.5438 -0.2798
vn 0.5571 -0.4734 -0.6823
vn 0.6999 -0.4550 -0.5505
vn 0.7362 -0.4899 -0.4669
vn 0.6361 -0.5708 -0.5192
vn -0.4922 -0.2977 -0.8180
vn -0.8187 -0.1977 -0.5391
vn -0.5612 -0.4026 -0.7232
vn -0.7829 -0.2048 -0.5875
vn -0.8014 -0.5934 -0.0757
vn -0.7970 -0.1739 -0.5784
vn -0.5908 -0.7691 0.2440
vn -0.6766 -0.6747 -0.2948
vn 0.7657 -0.6043 0.2204
vn 0.2351 -0.9654 -0.1126
vn 0.4940 -0.7971 0.3474
vn 0.0103 -0.9824 0.1867
vn 0.2385 -0.9678 -0.0802
vn 0.3347 -0.9030 -0.2694
vn 0.4872 -0.8653 -0.1181
vn 0.3625 -0.8576 -0.3650
vn -0.1137 -0.6455 -0.7552
vn -0.0887 -0.6128 -0.7852
vn 0.0168 -0.8304 -0.5570
vn 0.2026 -0.9304 -0.3055
vn -0.1301 -0.7472 -0.6518
vn 0.1816 -0.6094 -0.7718
vn -0.3230 -0.9175 -0.2321
vn -0.0582 -0.8581 -0.5101
vn 0.2925 -0.8162 -0.4983
vn -0.1466 -0.7700 -0.6210
vn -0.2471 -0.5082 -0.8251
vn -0.8099 -0.5243 0.2632
vn -0.1231 -0.9833 -0.1337
vn -0.2898 -0.9108 -0.2940
vn -0.3286 -0.9362 0.1247
vn -0.1997 -0.6192 -0.7594
vn 0.3745 -0.7536 -0.5403
vn -0.6090 -0.1538 -0.7781
vn 0.5941 -0.4311 -0.6791
vn -0.1137 -0.3531 -0.9287
vn 0.6553 0.6552 -0.3759
vn 0.9047 -0.2449 -0.3486
vn -0.3754 -0.8470 0.3764
vn 0.5354 -0.3785 -0.7550
vn 0.7606 -0.0503 0.6472
vn -0.2619 0.3116 0.9134
vn -0.3160 -0.0412 0.9479
vn -0.2536 0.4689 -0.8461
vn 0.3115 0.5723 -0.7586
vn 0.9531 0.2030 -0.2245
vn 0.7098 0.6062 -0.3587
vn 0.0349 0.0570 0.9978
vn 0.2847 0.9515 0.1163
vn 0.1572 0.6489 0.7444
vn -0.2002 0.8749 0.4409
vn -0.2996 0.9094 0.2886
vn 0.3841 0.7165 0.5822
vn 0.1046 0.8253 0.5549
vn -0.2769 0.6660 0.6927
vn 0.4591 0.7973 0.3918
vn -0.2814 0.7468 0.6026
vn -0.1933 0.4307 0.8816
vn 0.6276 0.7536 0.1956
vn 0.7135 0.2386 0.6588
vn 0.9979 0.0531 -0.0374
vn 0.9137 0.3967 0.0887
vn 0.8987 0.4167 0.1369
vn -0.1068 0.9941 -0.0199
vn 0.0485 0.9942 -0.0962
vn 0.8994 0.4134 0.1419
vn 0.8621 0.2238 -0.4546
vn 0.1143 0.8033 -0.5845
vn 0.0559 0.7742 -0.6304
vn 0.2912 0.9480 -0.1286
vn -0.5585 0.5348 -0.6341
vn 0.2073 0.9700 -0.1269
vn -0.5597 0.6850 -0.4664
vn -0.3774 0.8319 0.4069
vn -0.2646 0.8494 0.4566
vn -0.0027 0.7744 -0.6327
vn -0.5881 -0.2002 0.7836
vn -0.4425 -0.4795 0.7578
vn 0.9551 -0.1863 0.2306
vn 0.3358 -0.2534 0.9072
vn 0.5134 0.3964 0.7611
vn 0.6237 0.7742 -0.1078
vn 0.7856 -0.3262 -0.5257
vn 0.7256 0.2556 -0.6389
vn 0.4287 -0.5203 -0.7386
vn 0.1017 0.0634 -0.9928
vn -0.3287 -0.0825 -0.9408
vn 0.2201 0.8170 0.5330
vn -0.8273 0.5391 -0.1580
vn -0.2188 0.5574 -0.8009
vn -0.5290 0.6750 -0.5143
vn -0.1238 -0.2382 0.9633
vn 0.5509 -0.2391 0.7996
vn 0.3683 -0.7062 0.6047
vn 0.8750 0.4296 -0.2234
vn 0.4530 0.7570 0.4708
vn 0.5427 0.0576 0.8380
vn 0.8666 0.4719 -0.1625
vn 0.9295 0.3627 0.0671
vn 0.4010 -0.6347 -0.6606
vn -0.2892 0.4263 -0.8571
vn 0.1128 0.0671 -0.9913
vn -0.3536 0.1221 -0.9274
vn -0.6881 0.5330 0.4925
vn -0.3975 0.8665 -0.3018
vn -0.7314 -0.2366 -0.6396
vn -0.8627 0.3686 0.3463
vn -0.6852 -0.6062 0.4036
vn -0.6256 -0.5864 0.5145
vn 0.0047 -0.8688 0.4952
vn -0.5916 -0.4732 -0.6527
vn 0.6318 -0.7748 0.0234
vn 0.4902 -0.1649 0.8559
vn -0.2948 -0.7967 0.5276
vn 0.2013 -0.7700 0.6055
vn -0.2153 -0.9245 -0.3147
vn 0.7757 -0.5366 0.3323
vn 0.9131 -0.1483 -0.3797
vn 0.4295 -0.0289 -0.9026
vn -0.6188 -0.6268 -0.4735
vn -0.5437 -0.7975 0.2614
vn -0.8396 -0.5307 -0.1162
vn -0.2771 -0.7669 -0.5788
vn 0.1658 -0.3602 -0.9180
vn -0.0945 -0.5177 -0.8503
vn 0.4431 -0.8618 -0.2469
vn 0.0852 -0.9673 0.2388
vn -0.2633 -0.6476 -0.7150
vn -0.2400 -0.7473 0.6196
vn -0.2909 -0.9567 -0.0108
vn 0.0826 -0.9402 0.3305
vn -0.2300 0.8706 0.4349
vn 0.0820 -0.9956 -0.0454
vn 0.2741 -0.8749 -0.3992
vn 0.2808 -0.9087 -0.3089
vn 0.7752 -0.4724 0.4193
vn 0.5527 -0.3961 0.7332
vn 0.3994 -0.8857 0.2366
vn -0.4022 -0.0389 0.9147
vn -0.3243 -0.2220 0.9195
vn -0.9329 0.2259 -0.2803
vn -0.8688 -0.1269 -0.4786
vn -0.6038 -0.5460 -0.5808
vn 0.6576 -0.6273 -0.4172
vn 0.5116 0.2340 -0.8268
vn 0.2184 -0.4108 0.8852
vn -0.4402 -0.3794 0.8138
vn -0.9203 -0.2823 -0.2710
vn -0.0837 0.5258 0.8465
vn 0.2474 0.4334 -0.8666
vn 0.5369 0.8202 0.1975
vn -0.2877 0.1861 0.9395
vn -0.9462 0.0721 -0.3156
vn -0.6339 0.6056 -0.4812
vn 0.2222 0.9729 -0.0642
vn 0.1028 0.9684 -0.2273
vn 0.1355 0.8914 -0.4325
vn 0.5722 0.8201 -0.0090
vn -0.1992 0.7859 -0.5854
vn -0.6566 0.7185 -0.2294
vn 0.1442 0.9063 -0.3972
vn -0.5798 0.7974 0.1674
vn -0.0696 0.9361 0.3448
vn -0.8265 0.4816 0.2915
vn 0.1837 0.9761 0.1165
vn 0.6121 0.1131 -0.7826
vn -0.5621 0.8270 -0.0143
vn 0.0334 0.8911 0.4525
vn -0.3851 0.5409 0.7477
vn -0.4110 0.5524 0.7252
vn 0.1583 0.8731 0.4611
vn 0.2327 0.9464 0.2238
vn 0.0830 0.9069 0.4131
vn 0.3852 0.3274 -0.8628
vn 0.7396 0.4739 -0.4779
vn 0.5162 0.6972 -0.4974
vn -0.1209 0.5622 -0.8181
vn -0.9743 0.0613 0.2166
vn -0.1709 -0.5744 0.8005
vn 0.5300 0.0382 0.8471
vn -0.0228 -0.7692 0.6386
vn 0.4575 -0.3731 -0.8072
vn 0.1394 0.6380 -0.7573
vn -0.5668 0.3496 -0.7459
vn -0.4992 0.4454 -0.7432
vn -0.7880 0.4988 -0.3610
vn -0.9522 -0.2789 0.1250
vn -0.3385 -0.2504 0.9070
vn -0.2221 -0.3896 0.8938
vn -0.6030 -0.1989 0.7726
vn -0.6447 -0.0876 0.7594
vn -0.0028 0.3589 0.9334
vn 0.1464 -0.2210 0.9642
vn 0.1234 -0.3499 0.9286
vn 0.1586 -0.9650 0.2088
vn 0.0644 -0.6677 0.7417
vn 0.8527 0.1910 0.4862
vn 0.9781 0.0343 0.2055
vn -0.0083 -0.7386 -0.6741
vn -0.5142 0.3830 -0.7674
vn -0.9432 -0.1865 0.2748
vn -0.2401 -0.7934 0.5593
vn -0.2620 -0.8057 0.5313
vn -0.0936 -0.8459 0.5250
vn 0.2611 -0.9639 0.0530
vn 0.4730 -0.7445 0.4712
vn -0.0675 -0.7968 0.6005
vn 0.7288 -0.3029 0.6141
vn 0.5144 -0.1166 0.8496
vn -0.3403 -0.8401 -0.4224
vn -0.4288 -0.8960 0.1155
vn 0.1728 -0.9647 -0.1989
vn 0.6066 0.5336 -0.5893
vn 0.6657 -0.7421 -0.0776
vn -0.5596 -0.6171 -0.5532
vn -0.5869 -0.3382 -0.7357
vn 0.5839 -0.7036 -0.4049
vn 0.6317 -0.0836 0.7707
vn 0.9321 -0.3481 -0.1005
vn 0.3350 -0.2190 -0.9164
vn 0.4491 0.1475 -0.8812
vn -0.0524 -0.1586 0.9860
vn -0.8836 0.1214 0.4523
vn 0.1595 0.9113 0.3797
vn 0.1233 -0.3613 0.9243
vn -0.7881 0.5307 0.3118
vn -0.2737 0.9478 0.1638
vn -0.0985 0.9951 0.0021
vn -0.4566 0.6915 0.5598
vn 0.5739 0.4300 0.6970
vn -0.1014 0.8799 0.4642
vn -0.1861 0.7087 0.6805
vn 0.4560 0.5801 0.6749
vn 0.9636 0.2461 -0.1043
vn 0.3110 0.3577 -0.8805
vn 0.9952 0.0717 -0.0664
vn 0.1901 0.9814 -0.0266
vn 0.4087 0.9118 -0.0408
vn -0.5957 0.1154 0.7948
vn -0.2531 0.6921 -0.6760
vn 0.3847 0.8913 -0.2399
vn -0.0942 0.8829 -0.4601
vn -0.1818 0.9799 -0.0825
vn 0.1074 0.8064 -0.5815
vn 0.6455 -0.6644 -0.3767
vn -0.6307 0.3675 0.6835
vn 0.5964 -0.0092 0.8026
vn 0.6549 -0.0094 0.7556
vn 0.7975 0.0656 0.5997
vn 0.2142 0.5464 -0.8097
vn 0.6292 -0.4355 -0.6438
vn 0.2748 0.2956 -0.9149
vn 0.0032 0.4248 -0.9053
vn -0.0479 -0.1724 -0.9839
vn -0.8567 -0.5125 -0.0577
vn -0.1959 0.4605 -0.8658
vn -0.4878 0.8728 0.0177
vn -0.3098 0.2310 0.9223
vn -0.7522 -0.0955 0.6520
vn 0.2730 -0.2665 0.9243
vn -0.5256 -0.7017 -0.4809
vn 0.1782 0.4778 0.8602
vn 0.4022 0.1178 0.9079
vn 0.1779 0.4728 0.8630
vn 0.8512 0.1974 -0.4862
vn 0.5104 -0.5677 -0.6460
vn 0.2922 -0.5557 -0.7784
vn -0.5878 0.6922 -0.4188
vn -0.3894 -0.3099 -0.8674
vn -0.0040 -0.7782 -0.6280
vn -0.8766 -0.2920 0.3826
vn 0.6785 -0.6561 0.3305
vn 0.4695 -0.8297 -0.3020
vn 0.2206 -0.7404 0.6350
vn -0.3919 0.8578 -0.3327
vn 0.6960 -0.7161 0.0532
vn 0.3048 -0.4430 0.8431
vn -0.6060 0.6726 -0.4246
vn 0.3847 -0.7515 -0.5359
vn -0.4289 -0.9016 -0.0569
vn 0.4793 -0.5998 -0.6407
vn 0.3072 0.0079 -0.9516
vn 0.8187 -0.5577 -0.1365
vn -0.1769 -0.6786 -0.7129
vn 0.5386 -0.8425 0.0054
vn 0.0352 -0.9785 -0.2031
vn -0.4775 -0.8741 0.0895
vn -0.2516 -0.9398 -0.2313
vn -0.0424 -0.9934 -0.1067
vn -0.1591 -0.7521 -0.6395
vn -0.8885 -0.0825 -0.4513
vn 0.2281 -0.4249 -0.8761
vn 0.5745 -0.4271 0.6982
vn 0.6858 -0.3224 0.6524
vn -0.0230 -0.5436 0.8391
vn 0.7855 0.0778 -0.6139
vn -0.3701 0.4482 -0.8137
vn 0.9763 0.1807 -0.1191
vn 0.1430 0.5279 -0.8372
vn 0.5859 -0.2686 0.7646
vn -0.3159 0.3313 0.8891
vn -0.1898 -0.2004 0.9611
vn -0.3803 0.6203 -0.6860
vn 0.6687 -0.0229 0.7432
vn 0.2637 0.8894 0.3733
vn -0.4509 0.4290 0.7827
vn -0.4016 0.9157 0.0108
vn 0.4789 0.4603 0.7476
vn 0.6314 0.5163 0.5786
vn 0.7584 0.2747 0.5910
vn -0.1608 0.8449 -0.5102
vn 0.5868 0.8088 0.0395
vn 0.4735 0.8746 0.1048
vn 0.2779 0.9563 -0.0910
vn -0.0418 0.9589 -0.2808
vn -0.5443 0.6815 -0.4892
vn 0.4535 0.8662 -0.2099
vn -0.3409 0.2417 0.9085
vn -0.5056 0.8307 0.2331
vn 0.4523 -0.0832 0.8880
vn 0.6320 0.2224 0.7424
vn -0.7020 0.6193 -0.3518
vn 0.5404 0.8409 -0.0283
vn 0.6129 0.4348 0.6598
vn 0.9874 0.1525 -0.0433
vn 0.7168 0.6755 -0.1730
vn -0.0972 -0.4625 -0.8813
vn -0.7573 0.0157 -0.6529
vn -0.5935 -0.0514 -0.8032
vn 0.2177 0.3227 0.9211
vn -0.5645 0.7502 -0.3443
vn 0.5202 -0.4747 -0.7100
vn -0.4692 -0.2577 0.8447
vn -0.0490 -0.7698 0.6364
vn -0.0716 -0.7827 0.6182
vn 0.9799 0.1273 0.1538
vn 0.8380 0.4861 -0.2480
vn 0.9377 -0.3381 0.0799
vn 0.9453 -0.1658 0.2808
vn 0.8887 0.0818 -0.4510
vn 0.2189 -0.3995 -0.8902
vn -0.2099 -0.9686 -0.1330
vn 0.2938 0.0111 -0.9558
vn 0.0667 0.2215 -0.9729
vn -0.7047 0.6588 -0.2636
vn -0.9817 0.1797 0.0631
vn -0.8845 -0.2648 0.3841
vn -0.9215 -0.2067 0.3289
vn 0.0532 -0.9760 0.2112
vn 0.0387 -0.8093 0.5861
vn 0.0017 -0.9528 -0.3035
vn 0.7214 -0.1311 0.6801
vn 0.7074 -0.3170 -0.6317
vn -0.2446 -0.2761 -0.9295
vn -0.5275 -0.8438 -0.0986
vn -0.1426 -0.9804 -0.1362
vn -0.4716 -0.6049 -0.6417
vn -0.6237 -0.7654 0.1588
vn 0.2050 -0.7977 0.5672
vn 0.1157 -0.9699 -0.2143
vn 0.5080 -0.6629 -0.5500
vn 0.3459 -0.8951 -0.2813
usemtl AllColors_Material
s off
f 14/1/1 18/2/1 21/3/1 3/4/1
f 15/5/2 8/6/2 7/7/2 14/1/2
f 9/8/3 6/9/3 5/10/3 11/11/3
f 17/12/4 15/5/4 4/13/4 12/14/4
f 12/14/5 4/13/5 3/4/5 10/15/5
f 13/16/6 2/17/6 1/18/6 16/19/6
f 2/17/7 12/14/7 10/15/7 1/18/7
f 13/16/4 17/12/4 12/14/4 2/17/4
f 8/6/8 9/8/8 11/11/8 7/7/8
f 16/19/9 24/20/9 23/21/9 5/10/9
f 11/11/10 22/22/10 19/23/10 7/7/10
f 6/9/4 9/8/4 17/12/4 13/16/4
f 6/9/11 13/16/11 16/19/11 5/10/11
f 9/8/4 8/6/4 15/5/4 17/12/4
f 4/13/12 15/5/12 14/1/12 3/4/12
f 3/4/13 21/3/13 20/24/13 10/15/13
f 44/25/14 28/26/14 27/27/14 45/28/14
f 47/29/15 32/30/15 31/31/15 46/32/15
f 35/33/16 55/34/16 56/35/16 50/36/16
f 48/37/17 33/38/17 32/30/17 47/29/17
f 1/18/18 25/39/18 24/20/18 16/19/18
f 7/7/19 19/23/19 18/2/19 14/1/19
f 10/15/20 20/24/20 25/39/20 1/18/20
f 5/10/21 23/21/21 22/22/21 11/11/21
f 29/40/22 37/41/22 42/42/22 34/43/22
f 33/38/23 41/44/23 40/45/23 32/30/23
f 30/46/24 38/47/24 37/41/24 29/40/24
f 34/43/25 42/42/25 41/44/25 33/38/25
f 45/28/26 27/27/26 30/46/26 35/33/26
f 46/32/27 31/31/27 28/26/27 44/25/27
f 49/48/28 34/43/28 33/38/28 48/37/28
f 29/40/29 53/49/29 54/50/29 30/46/29
f 38/47/30 51/51/30 37/41/30
f 42/42/31 51/51/31 41/44/31
f 39/52/32 51/51/32 36/53/32
f 26/54/33 51/51/33 38/47/33
f 32/30/34 40/45/34 39/52/34 31/31/34
f 28/26/35 36/53/35 26/54/35 27/27/35
f 27/27/36 26/54/36 38/47/36 30/46/36
f 31/31/37 39/52/37 36/53/37 28/26/37
f 60/55/38 44/25/38 45/28/38 62/56/38
f 64/57/39 47/29/39 46/32/39 63/58/39
f 58/59/40 50/36/40 49/48/40 65/60/40
f 59/61/41 48/37/41 47/29/41 64/57/41
f 41/44/42 51/51/42 40/45/42
f 37/41/43 51/51/43 42/42/43
f 40/45/44 51/51/44 39/52/44
f 36/53/45 51/51/45 26/54/45
f 62/56/46 45/28/46 35/33/46 61/62/46
f 63/58/47 46/32/47 44/25/47 60/55/47
f 65/60/48 49/48/48 48/37/48 59/61/48
f 61/62/49 35/33/49 50/36/49 58/59/49
f 54/50/50 57/63/50 55/34/50
f 53/49/51 57/63/51 54/50/51
f 49/48/52 43/64/52 52/65/52 34/43/52
f 34/43/53 52/65/53 53/49/53 29/40/53
f 30/46/54 54/50/54 55/34/54 35/33/54
f 50/36/55 56/35/55 43/64/55 49/48/55
f 55/34/56 57/63/56 56/35/56
f 43/64/57 57/63/57 52/65/57
f 52/65/58 57/63/58 53/49/58
f 56/35/59 57/63/59 43/64/59
f 21/3/60 61/62/60 58/59/60 20/24/60
f 59/61/61 98/66/61 100/67/61 65/60/61
f 23/21/62 67/68/62 66/69/62 22/22/62
f 18/2/63 62/56/63 61/62/63 21/3/63
f 24/20/64 95/70/64 97/71/64 23/21/64
f 20/24/65 58/59/65 65/60/65 25/39/65
f 19/23/66 68/72/66 69/73/66 60/55/66
f 19/23/67 60/55/67 62/56/67 18/2/67
f 71/74/68 77/75/68 73/76/68 67/68/68
f 70/77/69 76/78/69 77/75/69 71/74/69
f 63/58/70 70/77/70 71/74/70 64/57/70
f 22/22/71 66/69/71 68/72/71 19/23/71
f 60/55/72 69/73/72 70/77/72 63/58/72
f 64/57/73 71/74/73 67/68/73 23/21/73
f 72/79/74 78/80/74 80/81/74 74/82/74
f 75/83/75 81/84/75 82/85/75 76/78/75
f 69/73/76 85/86/76 87/87/76 75/83/76
f 67/68/77 91/88/77 90/89/77 66/69/77
f 69/73/78 75/83/78 76/78/78 70/77/78
f 66/69/79 72/79/79 74/82/79 68/72/79
f 83/90/80 84/91/80 79/92/80
f 82/85/81 84/91/81 83/90/81
f 76/78/82 82/85/82 83/90/82 77/75/82
f 77/75/83 83/90/83 79/92/83 73/76/83
f 74/82/84 80/81/84 81/84/84 75/83/84
f 73/76/85 79/92/85 78/80/85 72/79/85
f 80/81/86 84/91/86 81/84/86
f 79/92/87 84/91/87 78/80/87
f 81/84/88 84/91/88 82/85/88
f 78/80/89 84/91/89 80/81/89
f 85/86/90 89/93/90 87/87/90
f 68/72/91 86/94/91 85/86/91 69/73/91
f 74/82/92 88/95/92 86/94/92 68/72/92
f 75/83/93 87/87/93 88/95/93 74/82/93
f 86/94/94 89/93/94 85/86/94
f 88/95/95 89/93/95 86/94/95
f 87/87/96 89/93/96 88/95/96
f 92/96/97 94/97/97 93/98/97
f 73/76/98 93/98/98 91/88/98 67/68/98
f 72/79/99 92/96/99 93/98/99 73/76/99
f 66/69/100 90/89/100 92/96/100 72/79/100
f 93/98/101 94/97/101 91/88/101
f 91/88/102 94/97/102 90/89/102
f 90/89/103 94/97/103 92/96/103
f 111/99/104 103/100/104 105/101/104 110/102/104
f 109/103/105 104/104/105 106/105/105 108/106/105
f 65/60/106 100/67/106 96/107/106 25/39/106
f 64/57/107 99/108/107 98/66/107 59/61/107
f 25/39/108 96/107/108 95/70/108 24/20/108
f 23/21/109 97/71/109 99/108/109 64/57/109
f 106/105/110 107/109/110 102/110/110
f 105/101/111 107/109/111 104/104/111
f 112/111/112 101/112/112 103/100/112 111/99/112
f 110/102/113 105/101/113 104/104/113 109/103/113
f 108/106/114 106/105/114 102/110/114 113/113/114
f 113/113/115 102/110/115 101/112/115 112/111/115
f 102/110/116 107/109/116 101/112/116
f 104/104/117 107/109/117 106/105/117
f 103/100/118 107/109/118 105/101/118
f 101/112/119 107/109/119 103/100/119
f 96/107/120 113/113/120 112/111/120 95/70/120
f 108/106/121 116/114/121 115/115/121 100/67/121
f 99/108/122 110/102/122 109/103/122 98/66/122
f 95/70/123 112/111/123 111/99/123 97/71/123
f 98/66/124 109/103/124 108/106/124 100/67/124
f 97/71/125 111/99/125 110/102/125 99/108/125
f 117/116/126 118/117/126 116/114/126
f 113/113/127 117/116/127 116/114/127 108/106/127
f 96/107/128 114/118/128 117/116/128 113/113/128
f 100/67/129 115/115/129 114/118/129 96/107/129
f 116/114/130 118/117/130 115/115/130
f 114/118/131 118/117/131 117/116/131
f 115/115/132 118/117/132 114/118/132
f 141/119/133 140/120/133 315/121/133
f 192/122/134 347/123/134 346/124/134
f 140/120/135 345/125/135 340/126/135
f 189/127/136 313/128/136 312/129/136
f 340/126/137 314/130/137 315/121/137
f 338/131/138 318/132/138 342/133/138
f 124/134/139 318/132/139 338/131/139
f 177/135/140 142/136/140 314/130/140
f 316/137/141 143/138/141 191/139/141
f 175/140/142 316/137/142 339/141/142
f 317/142/143 320/143/143 119/144/143
f 337/145/144 321/146/144 173/147/144
f 332/148/145 322/149/145 144/150/145
f 146/151/146 149/152/146 147/153/146
f 163/154/147 324/155/147 167/156/147
f 166/157/148 165/158/148 171/159/148
f 163/154/149 325/160/149 164/161/149
f 325/160/150 326/162/150 330/163/150
f 325/160/151 163/154/151 326/162/151
f 164/161/152 151/164/152 163/154/152
f 158/165/153 151/164/153 166/157/153
f 145/166/154 151/164/154 158/165/154
f 333/167/155 327/168/155 125/169/155
f 328/170/156 327/168/156 150/171/156
f 148/172/157 168/173/157 328/170/157
f 147/153/158 149/152/158 157/174/158
f 168/173/159 149/152/159 162/175/159
f 169/176/160 162/175/160 146/151/160
f 329/177/161 169/176/161 330/163/161
f 160/178/162 169/176/162 146/151/162
f 330/163/163 170/179/163 164/161/163
f 164/161/164 170/179/164 165/158/164
f 325/160/165 330/163/165 164/161/165
f 161/180/166 159/181/166 120/182/166
f 171/159/167 332/148/167 166/157/167
f 332/148/168 171/159/168 122/183/168
f 173/147/169 172/184/169 145/166/169
f 324/155/170 172/184/170 125/169/170
f 125/169/171 321/146/171 124/134/171
f 321/146/172 125/169/172 173/147/172
f 172/184/173 173/147/173 125/169/173
f 124/134/174 333/167/174 125/169/174
f 327/168/175 333/167/175 150/171/175
f 320/143/176 174/185/176 334/186/176
f 148/172/177 174/185/177 157/174/177
f 148/172/178 334/186/178 174/185/178
f 175/140/179 147/153/179 143/138/179
f 175/140/180 146/151/180 147/153/180
f 146/151/181 175/140/181 335/187/181
f 339/141/182 335/187/182 175/140/182
f 177/135/183 336/188/183 156/189/183
f 336/188/184 176/190/184 156/189/184
f 176/190/185 336/188/185 177/135/185
f 314/130/186 159/181/186 177/135/186
f 177/135/187 159/181/187 176/190/187
f 158/165/188 178/191/188 145/166/188
f 178/191/189 158/165/189 332/148/189
f 145/166/190 178/191/190 173/147/190
f 179/192/191 180/193/191 319/194/191
f 178/191/192 180/193/192 173/147/192
f 155/195/193 337/145/193 180/193/193
f 321/146/194 337/145/194 341/196/194
f 334/186/195 181/197/195 320/143/195
f 150/171/196 181/197/196 334/186/196
f 181/197/197 182/198/197 320/143/197
f 182/198/198 338/131/198 342/133/198
f 157/174/199 143/138/199 147/153/199
f 183/199/200 123/200/200 191/139/200
f 184/201/201 160/178/201 335/187/201
f 184/201/202 186/202/202 156/189/202
f 187/203/203 120/182/203 314/130/203
f 120/182/204 122/183/204 331/204/204
f 140/120/205 347/123/205 192/122/205 345/125/205
f 322/149/206 340/126/206 152/205/206
f 122/183/207 187/203/207 340/126/207
f 340/126/208 322/149/208 122/183/208
f 344/206/209 319/194/209 144/150/209
f 344/206/210 188/207/210 319/194/210
f 179/192/211 121/208/211 189/127/211
f 188/207/212 121/208/212 179/192/212
f 341/196/213 155/195/213 189/127/213
f 337/145/214 155/195/214 341/196/214
f 189/127/215 155/195/215 179/192/215
f 312/129/216 342/133/216 189/127/216
f 190/209/217 342/133/217 312/129/217
f 154/210/218 119/144/218 190/209/218
f 190/209/219 182/198/219 342/133/219
f 190/209/220 119/144/220 182/198/220
f 119/144/221 343/211/221 317/142/221
f 340/126/222 344/206/222 152/205/222
f 188/207/223 344/206/223 121/208/223
f 152/205/224 344/206/224 144/150/224
f 345/125/225 344/206/225 340/126/225
f 194/212/226 153/213/226 346/124/226
f 153/213/227 194/212/227 312/129/227
f 192/122/228 153/213/228 121/208/228
f 311/214/229 193/215/229 316/137/229
f 316/137/230 193/215/230 185/216/230
f 194/212/231 193/215/231 311/214/231
f 346/124/232 193/215/232 194/212/232
f 193/215/233 347/123/233 185/216/233
f 346/124/234 347/123/234 193/215/234
f 185/216/235 347/123/235 186/202/235
f 246/217/236 211/218/236 348/219/236
f 252/220/237 211/218/237 195/221/237
f 348/219/238 211/218/238 252/220/238
f 250/222/239 348/219/239 210/223/239
f 127/224/240 196/225/240 195/221/240
f 197/226/241 246/217/241 348/219/241
f 199/227/242 382/228/242 241/229/242
f 213/230/243 375/231/243 379/232/243
f 202/233/244 375/231/244 236/234/244
f 214/235/245 198/236/245 126/237/245
f 240/238/246 198/236/246 248/239/246
f 377/240/247 349/241/247 129/242/247
f 350/243/248 217/244/248 242/245/248
f 218/246/249 350/243/249 200/247/249
f 199/227/250 375/231/250 376/248/250
f 379/232/251 351/249/251 219/250/251
f 351/249/252 202/233/252 236/234/252
f 372/251/253 353/252/253 371/253/253
f 359/254/254 207/255/254 229/256/254
f 355/257/255 209/258/255 354/259/255
f 226/260/256 208/261/256 232/262/256
f 224/263/257 226/260/257 366/264/257
f 355/257/258 364/265/258 366/264/258
f 366/264/259 226/260/259 355/257/259
f 356/266/260 226/260/260 232/262/260
f 227/267/261 226/260/261 356/266/261
f 209/258/262 356/266/262 370/268/262
f 227/267/263 209/258/263 355/257/263
f 358/269/264 357/270/264 355/257/264
f 228/271/265 357/270/265 358/269/265
f 358/269/266 354/259/266 360/272/266
f 361/273/267 229/256/267 207/255/267
f 229/256/268 225/274/268 359/254/268
f 361/273/269 207/255/269 223/275/269
f 361/273/270 353/252/270 229/256/270
f 229/256/271 362/276/271 225/274/271
f 365/277/272 362/276/272 130/278/272
f 225/274/273 362/276/273 357/270/273
f 363/279/274 230/280/274 130/278/274
f 364/265/275 365/277/275 130/278/275
f 362/276/276 365/277/276 357/270/276
f 352/281/277 364/265/277 130/278/277
f 367/282/278 366/264/278 231/283/278
f 231/283/279 366/264/279 352/281/279
f 224/263/280 368/284/280 208/261/280
f 232/262/281 208/261/281 368/284/281
f 233/285/282 232/262/282 368/284/282
f 369/286/283 232/262/283 129/242/283
f 220/287/284 369/286/284 129/242/284
f 369/286/285 356/266/285 232/262/285
f 234/288/286 370/268/286 204/289/286
f 204/289/287 370/268/287 205/290/287
f 354/259/288 234/288/288 360/272/288
f 126/237/289 204/289/289 221/291/289
f 234/288/290 204/289/290 126/237/290
f 374/292/291 234/288/291 198/236/291
f 360/272/292 374/292/292 239/293/292
f 219/250/293 235/294/293 239/293/293
f 235/294/294 351/249/294 223/275/294
f 351/249/295 235/294/295 219/250/295
f 236/234/296 223/275/296 351/249/296
f 223/275/297 236/234/297 203/295/297
f 206/296/298 238/297/298 352/281/298
f 200/247/299 206/296/299 201/298/299
f 350/243/300 206/296/300 200/247/300
f 242/245/301 238/297/301 350/243/301
f 367/282/302 216/299/302 224/263/302
f 205/290/303 220/287/303 129/242/303
f 204/289/304 205/290/304 221/291/304
f 349/241/305 373/300/305 129/242/305
f 240/238/306 374/292/306 198/236/306
f 378/301/307 219/250/307 248/239/307
f 203/295/308 375/231/308 199/227/308
f 213/230/309 376/248/309 375/231/309
f 201/298/310 372/251/310 237/302/310
f 241/229/311 218/246/311 201/298/311
f 201/298/312 218/246/312 200/247/312
f 212/303/313 218/246/313 241/229/313
f 216/299/314 238/297/314 242/245/314
f 368/284/315 216/299/315 243/304/315
f 243/304/316 216/299/316 242/245/316
f 244/305/317 233/285/317 243/304/317
f 233/285/318 244/305/318 129/242/318
f 368/284/319 243/304/319 233/285/319
f 377/240/320 245/306/320 215/307/320
f 380/308/321 377/240/321 129/242/321
f 215/307/322 245/306/322 247/309/322
f 214/235/323 247/309/323 128/310/323
f 214/235/324 128/310/324 198/236/324
f 198/236/325 128/310/325 248/239/325
f 248/239/326 128/310/326 249/311/326
f 213/230/327 250/222/327 210/223/327
f 250/222/328 213/230/328 379/232/328
f 376/248/329 213/230/329 210/223/329
f 127/224/330 380/308/330 244/305/330
f 377/240/331 251/312/331 381/313/331
f 195/221/332 251/312/332 127/224/332
f 195/221/333 211/218/333 251/312/333
f 382/228/334 252/220/334 241/229/334
f 376/248/335 210/223/335 382/228/335
f 348/219/336 252/220/336 210/223/336
f 212/303/337 196/225/337 217/244/337
f 252/220/338 195/221/338 241/229/338
f 306/314/339 265/315/339 309/316/339
f 269/317/340 310/318/340 383/319/340
f 383/319/341 308/320/341 254/321/341
f 265/315/342 306/314/342 253/322/342
f 407/323/343 253/322/343 132/324/343
f 133/325/344 253/322/344 407/323/344
f 253/322/345 302/326/345 264/327/345
f 303/328/346 253/322/346 133/325/346
f 383/319/347 255/329/347 269/317/347
f 256/330/348 385/331/348 298/332/348
f 412/333/349 299/334/349 256/330/349
f 256/330/350 299/334/350 403/335/350
f 408/336/351 402/337/351 297/338/351
f 134/339/352 258/340/352 307/341/352
f 137/342/353 385/331/353 256/330/353
f 290/343/354 384/344/354 271/345/354
f 286/346/355 258/340/355 272/347/355
f 387/348/356 285/349/356 405/350/356
f 292/351/357 261/352/357 276/353/357
f 138/354/358 262/355/358 399/356/358
f 259/357/359 389/358/359 393/359/359
f 393/359/360 389/358/360 131/360/360
f 260/361/361 263/362/361 272/347/361
f 263/362/362 260/361/362 281/363/362
f 280/364/363 395/365/363 285/349/363
f 395/365/364 280/364/364 274/366/364
f 280/364/365 279/367/365 139/368/365
f 281/363/366 390/369/366 279/367/366
f 139/368/367 390/369/367 131/360/367
f 263/362/368 280/364/368 285/349/368
f 279/367/369 263/362/369 281/363/369
f 287/370/370 263/362/370 285/349/370
f 391/371/371 390/369/371 281/363/371
f 391/371/372 393/359/372 131/360/372
f 291/372/373 392/373/373 281/363/373
f 393/359/374 291/372/374 259/357/374
f 389/358/375 282/374/375 131/360/375
f 282/374/376 389/358/376 398/375/376
f 278/376/377 282/374/377 262/355/377
f 262/355/378 282/374/378 283/377/378
f 398/375/379 283/377/379 282/374/379
f 257/378/380 283/377/380 398/375/380
f 278/376/381 277/379/381 131/360/381
f 261/352/382 262/355/382 138/354/382
f 284/380/383 261/352/383 277/379/383
f 276/353/384 261/352/384 138/354/384
f 261/352/385 388/381/385 277/379/385
f 394/382/386 139/368/386 277/379/386
f 394/382/387 277/379/387 388/381/387
f 275/383/388 394/382/388 388/381/388
f 275/383/389 274/366/389 394/382/389
f 285/349/390 286/346/390 287/370/390
f 272/347/391 287/370/391 286/346/391
f 260/361/392 288/384/392 281/363/392
f 272/347/393 288/384/393 260/361/393
f 271/345/394 291/372/394 290/343/394
f 389/358/395 396/385/395 398/375/395
f 270/386/396 397/387/396 136/388/396
f 270/386/397 398/375/397 397/387/397
f 137/342/398 257/378/398 270/386/398
f 257/378/399 137/342/399 399/356/399
f 403/335/400 399/356/400 256/330/400
f 135/389/401 293/390/401 400/391/401
f 275/383/402 400/391/402 293/390/402
f 135/389/403 275/383/403 293/390/403
f 274/366/404 275/383/404 300/392/404
f 268/393/405 401/394/405 134/339/405
f 401/394/406 268/393/406 289/395/406
f 273/396/407 401/394/407 289/395/407
f 295/397/408 271/345/408 296/398/408
f 295/397/409 396/385/409 259/357/409
f 384/344/410 296/398/410 271/345/410
f 296/398/411 297/338/411 295/397/411
f 295/397/412 297/338/412 386/399/412
f 270/386/413 136/388/413 137/342/413
f 292/351/414 276/353/414 269/317/414
f 269/317/415 276/353/415 403/335/415
f 403/335/416 299/334/416 412/333/416
f 395/365/417 300/392/417 405/350/417
f 275/383/418 135/389/418 300/392/418
f 266/400/419 301/401/419 135/389/419
f 300/392/420 301/401/420 405/350/420
f 387/348/421 266/400/421 258/340/421
f 303/328/422 406/402/422 302/326/422
f 302/326/423 406/402/423 307/341/423
f 134/339/424 406/402/424 303/328/424
f 267/403/425 303/328/425 133/325/425
f 289/395/426 268/393/426 267/403/426
f 303/328/427 268/393/427 134/339/427
f 407/323/428 304/404/428 133/325/428
f 305/405/429 407/323/429 132/324/429
f 304/404/430 407/323/430 305/405/430
f 408/336/431 297/338/431 305/405/431
f 408/336/432 132/324/432 298/332/432
f 254/321/433 409/406/433 266/400/433
f 258/340/434 266/400/434 307/341/434
f 308/320/435 409/406/435 254/321/435
f 309/316/436 265/315/436 410/407/436
f 306/314/437 309/316/437 298/332/437
f 256/330/438 411/408/438 412/333/438
f 256/330/439 309/316/439 411/408/439
f 310/318/440 411/408/440 309/316/440
f 310/318/441 412/333/441 411/408/441
f 142/136/442 141/119/442 315/121/442
f 311/214/443 154/210/443 190/209/443 312/129/443
f 194/212/444 311/214/444 312/129/444
f 170/179/445 330/163/445 169/176/445 323/409/445
f 312/129/446 313/128/446 153/213/446
f 189/127/447 121/208/447 313/128/447
f 153/213/448 313/128/448 121/208/448
f 315/121/449 314/130/449 142/136/449
f 187/203/450 314/130/450 340/126/450
f 140/120/451 340/126/451 315/121/451
f 339/141/452 316/137/452 185/216/452
f 191/139/453 123/200/453 317/142/453
f 320/143/454 317/142/454 123/200/454
f 341/196/455 318/132/455 321/146/455
f 124/134/456 321/146/456 318/132/456
f 179/192/457 319/194/457 188/207/457
f 332/148/458 144/150/458 319/194/458
f 156/189/459 142/136/459 177/135/459
f 175/140/460 143/138/460 316/137/460
f 174/185/461 320/143/461 123/200/461
f 184/201/462 176/190/462 323/409/462
f 151/164/463 145/166/463 172/184/463 324/155/463
f 170/179/464 323/409/464 176/190/464
f 149/152/465 146/151/465 162/175/465
f 334/186/466 148/172/466 150/171/466
f 328/170/467 150/171/467 148/172/467
f 161/180/468 120/182/468 331/204/468 171/159/468
f 163/154/469 151/164/469 324/155/469
f 165/158/470 166/157/470 151/164/470 164/161/470
f 161/180/471 171/159/471 165/158/471
f 167/156/472 324/155/472 125/169/472 327/168/472
f 167/156/473 326/162/473 163/154/473
f 327/168/474 328/170/474 326/162/474 167/156/474
f 148/172/475 157/174/475 149/152/475 168/173/475
f 162/175/476 329/177/476 328/170/476
f 162/175/477 328/170/477 168/173/477
f 326/162/478 328/170/478 329/177/478
f 178/191/479 332/148/479 319/194/479 180/193/479
f 330/163/480 326/162/480 329/177/480
f 329/177/481 162/175/481 169/176/481
f 184/201/482 323/409/482 160/178/482
f 169/176/483 160/178/483 323/409/483
f 161/180/484 170/179/484 176/190/484
f 165/158/485 170/179/485 161/180/485
f 176/190/486 159/181/486 161/180/486
f 122/183/487 171/159/487 331/204/487
f 322/149/488 332/148/488 122/183/488
f 166/157/489 332/148/489 158/165/489
f 124/134/490 150/171/490 333/167/490
f 123/200/491 157/174/491 174/185/491
f 146/151/492 335/187/492 160/178/492
f 314/130/493 120/182/493 159/181/493
f 345/125/494 192/122/494 121/208/494 344/206/494
f 179/192/495 155/195/495 180/193/495
f 180/193/496 337/145/496 173/147/496
f 124/134/497 181/197/497 150/171/497
f 124/134/498 338/131/498 181/197/498
f 181/197/499 338/131/499 182/198/499
f 119/144/500 320/143/500 182/198/500
f 157/174/501 123/200/501 143/138/501
f 143/138/502 123/200/502 183/199/502
f 143/138/503 183/199/503 191/139/503
f 339/141/504 184/201/504 335/187/504
f 156/189/505 176/190/505 184/201/505
f 186/202/506 339/141/506 185/216/506
f 184/201/507 339/141/507 186/202/507
f 141/119/508 142/136/508 186/202/508
f 142/136/509 156/189/509 186/202/509
f 187/203/510 122/183/510 120/182/510
f 144/150/511 322/149/511 152/205/511
f 189/127/512 342/133/512 341/196/512
f 318/132/513 341/196/513 342/133/513
f 119/144/514 154/210/514 343/211/514
f 311/214/515 343/211/515 154/210/515
f 191/139/516 343/211/516 311/214/516
f 317/142/517 343/211/517 191/139/517
f 246/217/518 197/226/518 128/310/518 247/309/518
f 192/122/519 346/124/519 153/213/519
f 316/137/520 191/139/520 311/214/520
f 186/202/521 347/123/521 141/119/521
f 141/119/522 347/123/522 140/120/522
f 217/244/523 196/225/523 127/224/523
f 348/219/524 250/222/524 249/311/524
f 348/219/525 249/311/525 197/226/525
f 130/278/526 201/298/526 206/296/526 352/281/526
f 381/313/527 246/217/527 245/306/527
f 243/304/528 217/244/528 127/224/528
f 242/245/529 217/244/529 243/304/529
f 237/302/530 199/227/530 241/229/530
f 379/232/531 202/233/531 351/249/531
f 379/232/532 375/231/532 202/233/532
f 217/244/533 350/243/533 218/246/533
f 382/228/534 199/227/534 376/248/534
f 234/288/535 126/237/535 198/236/535
f 232/262/536 233/285/536 129/242/536
f 228/271/537 358/269/537 360/272/537 359/254/537
f 370/268/538 354/259/538 209/258/538
f 224/263/539 208/261/539 226/260/539
f 364/265/540 355/257/540 357/270/540
f 227/267/541 355/257/541 226/260/541
f 227/267/542 356/266/542 209/258/542
f 228/271/543 225/274/543 357/270/543
f 359/254/544 225/274/544 228/271/544
f 355/257/545 354/259/545 358/269/545
f 359/254/546 360/272/546 239/293/546 207/255/546
f 361/273/547 223/275/547 203/295/547 371/253/547
f 353/252/548 372/251/548 230/280/548 363/279/548
f 371/253/549 353/252/549 361/273/549
f 363/279/550 362/276/550 229/256/550
f 229/256/551 353/252/551 363/279/551
f 220/287/552 370/268/552 356/266/552 369/286/552
f 362/276/553 363/279/553 130/278/553
f 357/270/554 365/277/554 364/265/554
f 352/281/555 366/264/555 364/265/555
f 222/410/556 367/282/556 231/283/556
f 366/264/557 367/282/557 224/263/557
f 203/295/558 199/227/558 237/302/558 371/253/558
f 354/259/559 370/268/559 234/288/559
f 374/292/560 360/272/560 234/288/560
f 207/255/561 235/294/561 223/275/561
f 239/293/562 235/294/562 207/255/562
f 238/297/563 222/410/563 231/283/563 352/281/563
f 372/251/564 371/253/564 237/302/564
f 372/251/565 201/298/565 230/280/565
f 130/278/566 230/280/566 201/298/566
f 350/243/567 238/297/567 206/296/567
f 373/300/568 349/241/568 215/307/568 221/291/568
f 238/297/569 216/299/569 222/410/569
f 367/282/570 222/410/570 216/299/570
f 220/287/571 205/290/571 370/268/571
f 129/242/572 373/300/572 205/290/572
f 215/307/573 214/235/573 126/237/573 221/291/573
f 221/291/574 205/290/574 373/300/574
f 374/292/575 240/238/575 219/250/575
f 248/239/576 219/250/576 240/238/576
f 239/293/577 374/292/577 219/250/577
f 375/231/578 203/295/578 236/234/578
f 237/302/579 241/229/579 201/298/579
f 212/303/580 217/244/580 218/246/580
f 224/263/581 216/299/581 368/284/581
f 244/305/582 243/304/582 127/224/582
f 381/313/583 245/306/583 377/240/583
f 215/307/584 349/241/584 377/240/584
f 247/309/585 245/306/585 246/217/585
f 214/235/586 215/307/586 247/309/586
f 378/301/587 249/311/587 250/222/587 379/232/587
f 249/311/588 128/310/588 197/226/588
f 378/301/589 248/239/589 249/311/589
f 219/250/590 378/301/590 379/232/590
f 254/321/591 135/389/591 400/391/591 255/329/591
f 377/240/592 380/308/592 251/312/592
f 129/242/593 244/305/593 380/308/593
f 251/312/594 380/308/594 127/224/594
f 251/312/595 211/218/595 381/313/595
f 246/217/596 381/313/596 211/218/596
f 382/228/597 210/223/597 252/220/597
f 241/229/598 195/221/598 212/303/598
f 195/221/599 196/225/599 212/303/599
f 253/322/600 264/327/600 265/315/600
f 308/320/601 383/319/601 310/318/601
f 253/322/602 306/314/602 132/324/602
f 303/328/603 302/326/603 253/322/603
f 383/319/604 254/321/604 255/329/604
f 408/336/605 298/332/605 402/337/605
f 304/404/606 384/344/606 289/395/606
f 296/398/607 384/344/607 304/404/607
f 272/347/608 258/340/608 134/339/608
f 402/337/609 136/388/609 397/387/609 386/399/609
f 292/351/610 269/317/610 255/329/610
f 402/337/611 386/399/611 297/338/611
f 283/377/612 257/378/612 399/356/612 262/355/612
f 290/343/613 289/395/613 384/344/613
f 286/346/614 387/348/614 258/340/614
f 285/349/615 387/348/615 286/346/615
f 292/351/616 388/381/616 261/352/616
f 288/384/617 273/396/617 289/395/617 290/343/617
f 279/367/618 390/369/618 139/368/618
f 279/367/619 280/364/619 263/362/619
f 131/360/620 390/369/620 391/371/620
f 281/363/621 392/373/621 391/371/621
f 391/371/622 392/373/622 393/359/622
f 291/372/623 393/359/623 392/373/623
f 278/376/624 131/360/624 282/374/624
f 284/380/625 277/379/625 278/376/625
f 278/376/626 262/355/626 284/380/626
f 261/352/627 284/380/627 262/355/627
f 131/360/628 277/379/628 139/368/628
f 280/364/629 139/368/629 394/382/629
f 280/364/630 394/382/630 274/366/630
f 405/350/631 285/349/631 395/365/631
f 300/392/632 395/365/632 274/366/632
f 263/362/633 287/370/633 272/347/633
f 291/372/634 281/363/634 288/384/634 290/343/634
f 400/391/635 275/383/635 388/381/635 292/351/635
f 259/357/636 291/372/636 271/345/636
f 259/357/637 396/385/637 389/358/637
f 386/399/638 397/387/638 396/385/638
f 396/385/639 397/387/639 398/375/639
f 403/335/640 138/354/640 399/356/640
f 256/330/641 399/356/641 137/342/641
f 403/335/642 276/353/642 138/354/642
f 294/411/643 273/396/643 288/384/643 272/347/643
f 255/329/644 400/391/644 292/351/644
f 385/331/645 137/342/645 136/388/645 298/332/645
f 134/339/646 294/411/646 272/347/646
f 134/339/647 401/394/647 294/411/647
f 294/411/648 401/394/648 273/396/648
f 386/399/649 396/385/649 295/397/649
f 259/357/650 271/345/650 295/397/650
f 304/404/651 297/338/651 296/398/651
f 305/405/652 297/338/652 304/404/652
f 398/375/653 270/386/653 257/378/653
f 136/388/654 402/337/654 298/332/654
f 308/320/655 410/407/655 302/326/655 307/341/655
f 404/412/656 403/335/656 412/333/656
f 403/335/657 404/412/657 269/317/657
f 301/401/658 300/392/658 135/389/658
f 254/321/659 266/400/659 135/389/659
f 266/400/660 387/348/660 405/350/660
f 301/401/661 266/400/661 405/350/661
f 134/339/662 307/341/662 406/402/662
f 303/328/663 267/403/663 268/393/663
f 267/403/664 133/325/664 304/404/664
f 267/403/665 304/404/665 289/395/665
f 132/324/666 408/336/666 305/405/666
f 298/332/667 132/324/667 306/314/667
f 307/341/668 266/400/668 409/406/668
f 310/318/669 410/407/669 308/320/669
f 310/318/670 269/317/670 404/412/670 412/333/670
f 307/341/671 409/406/671 308/320/671
f 264/327/672 410/407/672 265/315/672
f 310/318/673 309/316/673 410/407/673
f 302/326/674 410/407/674 264/327/674
f 256/330/675 298/332/675 309/316/675
