# 3ds Max Wavefront OBJ Exporter v0.97b - (c)2007 guruware
# File Created: 18.10.2018 16:00:10

mtllib Mailbox.mtl

#
# object Mailbox
#

v  2.3649 22.4953 -7.8877
v  1.9130 23.0811 -7.8877
v  1.2954 23.5508 -7.8877
v  0.3334 23.8115 -7.8877
v  -0.5182 23.8115 -7.8877
v  -1.4802 23.5508 -7.8877
v  -2.0978 23.0811 -7.8877
v  -2.5497 22.4953 -7.8877
v  -2.7188 21.9095 -7.8877
v  -2.7811 21.2780 -7.8877
v  -2.7810 16.5729 -7.8877
v  2.5962 16.5729 -7.8877
v  2.5963 21.2780 -7.8877
v  2.5341 21.9095 -7.8877
v  2.3649 22.4953 7.1229
v  1.9130 23.0811 7.1229
v  1.2954 23.5508 7.1229
v  -1.4802 23.5508 7.1229
v  -2.0978 23.0811 7.1229
v  -2.5497 22.4953 7.1229
v  -2.7188 21.9095 7.1229
v  -2.7811 21.2780 7.1229
v  -2.7810 16.5729 7.1229
v  2.5962 16.5729 7.1229
v  2.5963 21.2780 7.1229
v  2.5341 21.9095 7.1229
v  2.2591 22.5006 7.1234
v  1.7874 23.0814 7.1234
v  1.2583 23.4733 7.1234
v  0.2955 23.7323 7.1234
v  -0.4803 23.7323 7.1234
v  -1.4431 23.4733 7.1234
v  -1.9722 23.0814 7.1234
v  -2.4439 22.5006 7.1234
v  -2.6312 21.9129 7.1234
v  -2.6920 21.2759 7.1234
v  -2.6917 16.6544 7.1234
v  2.5069 16.6544 7.1234
v  2.5072 21.2759 7.1234
v  2.4464 21.9129 7.1234
v  2.2591 22.5006 -7.7098
v  1.7874 23.0814 -7.7098
v  1.2583 23.4733 -7.7098
v  0.2955 23.7323 -7.7098
v  -0.4803 23.7323 -7.7098
v  -1.4431 23.4733 -7.7098
v  -1.9722 23.0814 -7.7098
v  -2.4439 22.5006 -7.7098
v  -2.6312 21.9129 -7.7098
v  -2.6920 21.2759 -7.7098
v  -2.6917 16.6544 -7.7098
v  2.5069 16.6544 -7.7098
v  2.5072 21.2759 -7.7098
v  2.4464 21.9129 -7.7098
v  1.1050 -24.2816 -1.9104
v  1.1050 -24.2816 -4.3032
v  -1.2878 -24.2816 -1.9104
v  -1.2878 -24.2816 -4.3032
v  1.1050 16.5987 -1.9104
v  1.1050 16.5987 -4.3032
v  -1.2878 16.5987 -1.9104
v  -1.2878 16.5987 -4.3032
v  -0.5162 24.0059 7.8561
v  0.3377 24.0059 7.8561
v  -0.5162 24.0703 7.7711
v  0.3377 24.0703 7.7711
v  -0.5162 23.8925 6.3347
v  0.3377 23.8925 6.3347
v  -0.5162 23.9849 7.8356
v  0.3377 23.9849 7.8356
v  -0.5162 23.9849 7.2932
v  0.3377 23.9849 7.2932
v  0.3377 24.0704 7.2932
v  -0.5162 24.0704 7.2932
v  -0.5172 23.8112 7.1229
v  0.3377 23.8925 7.0723
v  -0.5162 23.8925 7.0723
v  -0.5162 24.2383 7.8565
v  0.3377 24.2383 7.8565
v  0.3377 24.2383 7.7710
v  -0.5162 24.2383 7.7710
v  2.6638 18.1806 5.8514
v  2.7561 18.1806 4.0858
v  2.6638 19.6266 5.8514
v  2.7561 19.6266 4.0858
v  0.3356 23.8112 7.1229
v  0.9871 9.2475 -1.9911
v  -1.1699 9.2475 -1.9911
v  -1.1699 13.4266 -1.9859
v  0.9871 13.4266 -1.9859
v  0.9871 16.5997 0.2622
v  0.9526 16.5997 3.1839
v  -1.1699 16.5997 0.2622
v  -1.1699 16.5997 3.1839
v  -0.4769 24.2776 7.8565
v  0.2983 24.2776 7.8565
v  0.2983 24.2776 7.7710
v  -0.4769 24.2776 7.7710
v  -0.5172 23.8073 7.1031
v  0.3356 23.8073 7.1031
v  0.3356 23.8073 6.3338
v  -0.5172 23.8073 6.3338
v  2.5884 18.1804 5.8515
v  2.6807 18.1804 4.0844
v  2.6807 19.6263 4.0844
v  2.5884 19.6263 5.8515
v  2.7118 19.6266 5.3442
v  2.7118 18.1806 5.3442
v  2.6465 18.1804 5.3063
v  2.6466 19.6263 5.3063
v  2.6638 18.1806 5.4046
v  2.5884 18.1804 5.4045
v  2.6638 19.6266 5.4046
v  2.5884 19.6263 5.4045
v  2.7465 19.6266 5.2572
v  2.6757 19.6263 5.2312
v  2.7465 18.1806 5.2572
v  2.6757 18.1804 5.2312
# 118 vertices

vn 0.8920 0.4521 -0.0000
vn 0.7047 0.7095 -0.0000
vn 0.7047 0.7095 -0.0000
vn 0.8920 0.4521 -0.0000
vn 0.7047 0.7095 -0.0000
vn 0.4417 0.8972 -0.0000
vn 0.4418 0.8971 -0.0000
vn 0.7047 0.7095 -0.0000
vn 0.4417 0.8972 -0.0000
vn 0.1319 0.9913 0.0000
vn 0.1321 0.9912 0.0000
vn 0.4418 0.8971 -0.0000
vn 0.1321 0.9912 0.0000
vn 0.1319 0.9913 0.0000
vn -0.1319 0.9913 0.0000
vn -0.1316 0.9913 0.0000
vn -0.4414 0.8973 0.0000
vn -0.1316 0.9913 0.0000
vn -0.1319 0.9913 0.0000
vn -0.4417 0.8972 -0.0000
vn -0.4417 0.8972 -0.0000
vn -0.7047 0.7095 0.0000
vn -0.7047 0.7095 -0.0000
vn -0.4414 0.8973 0.0000
vn -0.7047 0.7095 0.0000
vn -0.8920 0.4521 0.0000
vn -0.8920 0.4521 0.0000
vn -0.7047 0.7095 -0.0000
vn -0.8920 0.4521 0.0000
vn -0.9821 0.1886 0.0000
vn -0.9821 0.1886 0.0000
vn -0.8920 0.4521 0.0000
vn -0.9821 0.1886 0.0000
vn -0.9988 0.0491 -0.0000
vn -0.9988 0.0491 -0.0000
vn -0.9821 0.1886 0.0000
vn -0.9988 0.0491 -0.0000
vn -1.0000 -0.0000 -0.0000
vn -0.9047 -0.0024 0.4261
vn -0.9988 0.0491 -0.0000
vn -0.0000 -1.0000 -0.0000
vn -0.0000 -1.0000 -0.0000
vn 0.0023 -0.8839 0.4676
vn -0.0023 -0.8839 0.4676
vn 0.9988 0.0491 0.0000
vn 0.9821 0.1886 -0.0000
vn 0.9821 0.1886 -0.0000
vn 0.9988 0.0491 -0.0000
vn 0.9821 0.1886 -0.0000
vn 0.8920 0.4521 -0.0000
vn 0.8920 0.4521 -0.0000
vn 0.9821 0.1886 -0.0000
vn 0.0000 -0.0000 -1.0000
vn 0.0000 -0.0000 -1.0000
vn 0.0000 -0.0000 -1.0000
vn 0.0000 -0.0000 -1.0000
vn -0.6550 -0.3539 0.6676
vn -0.5068 -0.5299 0.6800
vn 0.5068 -0.5299 0.6800
vn 0.6550 -0.3539 0.6676
vn 0.0043 0.0019 1.0000
vn 0.0036 0.0032 1.0000
vn 0.0036 0.0043 1.0000
vn 0.0044 0.0028 1.0000
vn 0.0036 0.0032 1.0000
vn 0.0023 0.0047 1.0000
vn 0.0023 0.0047 1.0000
vn 0.0036 0.0043 1.0000
vn 0.0023 0.0047 1.0000
vn 0.0008 0.0053 1.0000
vn 0.0005 0.0054 1.0000
vn 0.0023 0.0047 1.0000
vn 0.0008 0.0053 1.0000
vn -0.0008 0.0053 1.0000
vn -0.0006 0.0054 1.0000
vn 0.0005 0.0054 1.0000
vn -0.0008 0.0053 1.0000
vn -0.0023 0.0047 1.0000
vn -0.0023 0.0047 1.0000
vn -0.0006 0.0054 1.0000
vn -0.0023 0.0047 1.0000
vn -0.0036 0.0033 1.0000
vn -0.0036 0.0042 1.0000
vn -0.0023 0.0047 1.0000
vn -0.0036 0.0033 1.0000
vn -0.0044 0.0020 1.0000
vn -0.0043 0.0027 1.0000
vn -0.0036 0.0042 1.0000
vn -0.0044 0.0020 1.0000
vn -0.0051 0.0009 1.0000
vn -0.0051 0.0011 1.0000
vn -0.0043 0.0027 1.0000
vn -0.0051 0.0009 1.0000
vn -0.0050 0.0002 1.0000
vn -0.0050 0.0003 1.0000
vn -0.0051 0.0011 1.0000
vn -0.0050 0.0002 1.0000
vn -0.0023 -0.8839 0.4676
vn -0.0041 0.5622 0.8270
vn -0.0050 0.0003 1.0000
vn -0.9047 -0.0024 0.4261
vn 0.9047 -0.0024 0.4261
vn -0.5474 -0.0046 0.8369
vn 0.5474 -0.0046 0.8369
vn 0.0023 -0.8839 0.4676
vn 0.0050 0.0002 1.0000
vn 0.0050 0.0002 1.0000
vn 0.0041 0.5622 0.8270
vn 0.0050 0.0002 1.0000
vn 0.0051 0.0010 1.0000
vn 0.0052 0.0012 1.0000
vn 0.0050 0.0002 1.0000
vn 0.0051 0.0010 1.0000
vn 0.0043 0.0019 1.0000
vn 0.0044 0.0028 1.0000
vn 0.0052 0.0012 1.0000
vn -0.8798 -0.4753 0.0000
vn -0.6911 -0.7227 0.0000
vn -0.5068 -0.5299 0.6800
vn -0.6550 -0.3539 0.6676
vn -0.6911 -0.7227 0.0000
vn -0.4351 -0.9004 0.0000
vn -0.3240 -0.6704 0.6675
vn -0.5068 -0.5299 0.6800
vn -0.4351 -0.9004 0.0000
vn -0.1310 -0.9914 0.0000
vn -0.0962 -0.7280 0.6788
vn -0.3240 -0.6704 0.6675
vn -0.1310 -0.9914 0.0000
vn 0.1310 -0.9914 -0.0000
vn 0.0962 -0.7280 0.6788
vn -0.0962 -0.7280 0.6788
vn 0.1310 -0.9914 -0.0000
vn 0.4351 -0.9004 -0.0000
vn 0.3240 -0.6704 0.6675
vn 0.0962 -0.7280 0.6788
vn 0.4351 -0.9004 -0.0000
vn 0.6911 -0.7227 -0.0000
vn 0.5068 -0.5299 0.6800
vn 0.3240 -0.6704 0.6675
vn 0.6911 -0.7227 -0.0000
vn 0.8798 -0.4753 -0.0000
vn 0.6550 -0.3539 0.6676
vn 0.5068 -0.5299 0.6800
vn 0.8798 -0.4753 -0.0000
vn 0.9797 -0.2005 -0.0000
vn 0.7148 -0.1462 0.6839
vn 0.6550 -0.3539 0.6676
vn 0.9797 -0.2005 -0.0000
vn 0.9989 -0.0475 -0.0000
vn 0.7167 -0.0341 0.6966
vn 0.7148 -0.1462 0.6839
vn 0.9989 -0.0475 -0.0000
vn 0.5474 -0.0046 0.8369
vn 0.7071 0.0000 0.7071
vn 0.7167 -0.0341 0.6966
vn -0.0041 0.5622 0.8270
vn 0.0041 0.5622 0.8270
vn 0.0000 1.0000 -0.0000
vn 0.0000 1.0000 -0.0000
vn -0.5474 -0.0046 0.8369
vn -0.9989 -0.0475 0.0000
vn -0.7167 -0.0341 0.6966
vn -0.7071 0.0000 0.7071
vn -0.9989 -0.0475 0.0000
vn -0.9797 -0.2005 0.0000
vn -0.7148 -0.1463 0.6839
vn -0.7167 -0.0341 0.6966
vn -0.9797 -0.2005 0.0000
vn -0.8798 -0.4753 0.0000
vn -0.6550 -0.3539 0.6676
vn -0.7148 -0.1463 0.6839
vn 0.0000 -1.0000 -0.0000
vn 0.0000 -1.0000 -0.0000
vn 0.0000 -1.0000 -0.0000
vn 0.0000 -1.0000 -0.0000
vn 1.0000 -0.0000 -0.0000
vn 1.0000 -0.0000 -0.0000
vn 1.0000 -0.0000 -0.0000
vn 1.0000 -0.0000 -0.0000
vn -0.0000 0.0000 -1.0000
vn -0.0000 0.0000 -1.0000
vn -0.0000 0.0000 -1.0000
vn -0.0000 0.0000 -1.0000
vn -1.0000 0.0000 0.0000
vn -1.0000 0.0000 0.0000
vn -1.0000 0.0000 -0.0000
vn -1.0000 0.0000 -0.0000
vn 0.0000 0.0000 1.0000
vn 0.0000 -0.0000 1.0000
vn 0.0000 0.0000 1.0000
vn 0.0000 0.0000 1.0000
vn 0.0000 1.0000 -0.0000
vn 0.0000 1.0000 -0.0000
vn 0.0000 1.0000 -0.0000
vn 0.0000 1.0000 -0.0000
vn -0.0000 0.0096 -1.0000
vn -0.0000 0.0096 -1.0000
vn -0.0000 0.0096 -1.0000
vn -0.0000 0.0096 -1.0000
vn 0.0000 -0.9216 0.3881
vn 0.0000 -0.6988 0.7153
vn 0.0000 -0.6988 0.7153
vn 0.0000 -0.9216 0.3881
vn 0.0000 -0.9306 0.3660
vn 0.0000 -0.9216 0.3881
vn 0.0000 -0.9216 0.3881
vn 0.0000 -0.9300 0.3675
vn 0.0000 -0.7306 0.6828
vn 0.0000 -0.9306 0.3660
vn 0.0000 -0.9300 0.3675
vn 0.0000 -0.7306 0.6828
vn 1.0000 0.0000 -0.0000
vn 1.0000 0.0000 -0.0000
vn 1.0000 0.0000 -0.0000
vn 1.0000 0.0000 0.0000
vn 1.0000 0.0000 -0.0000
vn 1.0000 0.0000 -0.0000
vn 1.0000 -0.0020 0.0008
vn 0.9998 -0.0218 0.0039
vn 1.0000 0.0000 0.0000
vn 1.0000 -0.0020 0.0008
vn 0.9997 -0.0234 0.0044
vn 0.9997 -0.0250 0.0000
vn 0.9998 -0.0218 0.0039
vn 0.9997 -0.0234 0.0044
vn 0.9997 -0.0250 0.0000
vn 0.0000 0.9431 -0.3324
vn 0.0000 1.0000 0.0004
vn 0.0000 1.0000 0.0004
vn -0.0000 0.9431 -0.3324
vn -0.0000 0.9431 -0.3326
vn 0.0000 0.9431 -0.3324
vn -0.0000 0.9431 -0.3324
vn -0.0000 0.9431 -0.3326
vn 0.0000 1.0000 -0.0000
vn -0.0000 0.9431 -0.3326
vn -0.0000 0.9431 -0.3326
vn 0.0000 1.0000 -0.0000
vn -1.0000 -0.0000 -0.0000
vn -1.0000 -0.0000 -0.0000
vn -1.0000 -0.0000 -0.0000
vn -1.0000 -0.0000 0.0031
vn -1.0000 -0.0000 -0.0000
vn -1.0000 -0.0000 -0.0000
vn -1.0000 0.0010 0.0005
vn -1.0000 0.0096 -0.0025
vn -1.0000 -0.0000 0.0031
vn -1.0000 0.0010 0.0005
vn -0.9999 0.0104 -0.0036
vn -0.9999 0.0117 0.0000
vn -1.0000 0.0096 -0.0025
vn -0.9999 0.0104 -0.0036
vn -0.9999 0.0117 0.0000
vn 0.0000 -0.0014 1.0000
vn 0.0000 -0.0014 1.0000
vn 0.0000 -0.0014 1.0000
vn 0.0000 -0.0014 1.0000
vn 1.0000 -0.0000 -0.0000
vn 1.0000 -0.0000 -0.0000
vn 1.0000 -0.0000 -0.0000
vn 1.0000 -0.0000 -0.0000
vn 0.0000 -0.0006 -1.0000
vn 0.0000 -0.0006 -1.0000
vn 0.0000 -0.0006 -1.0000
vn 0.0000 -0.0006 -1.0000
vn -1.0000 -0.0000 0.0000
vn -1.0000 -0.0000 0.0000
vn -1.0000 -0.0000 0.0000
vn -1.0000 -0.0000 0.0000
vn 0.9812 0.0000 0.1930
vn 0.9812 0.0000 0.1930
vn 1.0000 0.0000 0.0082
vn 1.0000 0.0000 0.0082
vn 0.0023 -1.0000 0.0000
vn 0.0023 -1.0000 0.0000
vn 0.0023 -1.0000 0.0005
vn 0.0023 -1.0000 0.0004
vn 0.0178 0.0000 -0.9998
vn 0.0178 0.0000 -0.9998
vn 0.0178 -0.0000 -0.9998
vn 0.0178 -0.0000 -0.9998
vn -0.0040 1.0000 -0.0000
vn -0.0040 1.0000 -0.0019
vn -0.0039 1.0000 -0.0010
vn -0.0040 1.0000 -0.0000
vn 0.0008 -0.0000 1.0000
vn 0.0008 -0.0000 1.0000
vn 0.0008 -0.0000 1.0000
vn 0.0008 0.0000 1.0000
vn 0.0000 -0.0000 -1.0000
vn -0.0000 -0.0000 -1.0000
vn 0.0000 0.0000 -1.0000
vn 0.0000 0.0000 -1.0000
vn -0.0000 -0.0000 -1.0000
vn 0.0000 0.0000 -1.0000
vn -0.0000 -0.0000 -1.0000
vn 0.0000 -0.0000 -1.0000
vn 0.0000 0.0000 -1.0000
vn 0.0000 0.0000 -1.0000
vn 0.0000 0.0000 -1.0000
vn -0.0000 -0.0000 -1.0000
vn 0.0000 -0.0000 -1.0000
vn 0.0000 -0.0000 -1.0000
vn 0.0000 0.0000 -1.0000
vn 0.0000 0.0000 -1.0000
vn 0.0000 -0.0000 -1.0000
vn 0.0000 -0.0000 -1.0000
vn 0.0000 -0.0000 -1.0000
vn -0.0000 -0.0000 -1.0000
vn 0.3240 -0.6704 0.6675
vn -0.3240 -0.6704 0.6675
vn -0.0962 -0.7280 0.6788
vn 0.0962 -0.7280 0.6788
vn 0.5068 -0.5299 0.6800
vn -0.5068 -0.5299 0.6800
vn -0.3240 -0.6704 0.6675
vn 0.3240 -0.6704 0.6675
vn -0.6550 -0.3539 0.6676
vn 0.6550 -0.3539 0.6676
vn 0.7148 -0.1462 0.6839
vn -0.7148 -0.1463 0.6839
vn -0.7148 -0.1463 0.6839
vn 0.7148 -0.1462 0.6839
vn 0.7167 -0.0341 0.6966
vn -0.7167 -0.0341 0.6966
vn -0.7071 0.0000 0.7071
vn -0.7167 -0.0341 0.6966
vn 0.7167 -0.0341 0.6966
vn 0.7071 0.0000 0.7071
vn 1.0000 -0.0019 0.0061
vn 1.0000 0.0000 -0.0000
vn 0.9999 -0.0031 0.0101
vn 0.9999 -0.0036 0.0118
vn -0.0000 0.5781 -0.8160
vn -0.0000 0.5781 -0.8160
vn -0.0000 0.5781 -0.8160
vn -0.0000 0.5781 -0.8160
vn -1.0000 0.0000 0.0000
vn -1.0000 -0.0000 0.0000
vn -1.0000 0.0000 0.0000
vn -1.0000 0.0000 0.0000
vn 0.0000 -0.5756 0.8177
vn 0.0000 -0.5756 0.8177
vn 0.0000 -0.5756 0.8177
vn 0.0000 -0.5756 0.8177
vn 0.7071 0.7071 -0.0000
vn 0.7071 0.7071 -0.0000
vn 0.7071 0.7071 -0.0000
vn 0.7071 0.7071 -0.0000
vn -0.7071 0.7071 0.0000
vn -0.7071 0.7071 0.0000
vn -0.7071 0.7071 0.0000
vn -0.7071 0.7071 0.0000
vn 0.0000 -0.0014 1.0000
vn 0.0000 -0.0014 1.0000
vn 0.0000 -0.0014 1.0000
vn 0.0000 -0.0014 1.0000
vn 0.0000 -0.0006 -1.0000
vn 0.0000 -0.0006 -1.0000
vn 0.0000 -0.0006 -1.0000
vn 0.0000 -0.0006 -1.0000
vn 0.9988 0.0491 0.0000
vn 0.9988 0.0491 -0.0000
vn 0.9047 -0.0024 0.4261
vn 1.0000 -0.0000 0.0000
vn 0.9443 0.0000 0.3291
vn 0.9443 0.0000 0.3291
vn 0.8651 0.0000 0.5017
vn 0.8651 0.0000 0.5017
vn 0.0022 -1.0000 0.0008
vn 0.0023 -1.0000 0.0005
vn 0.0021 -1.0000 0.0011
vn 0.0020 -1.0000 0.0011
vn -0.0037 1.0000 -0.0019
vn -0.0039 1.0000 -0.0008
vn -0.0040 1.0000 -0.0007
vn -0.0036 1.0000 -0.0017
vn -0.9321 0.0000 -0.3623
vn -0.9321 0.0000 -0.3623
vn -0.9321 0.0000 -0.3623
vn -0.9321 0.0000 -0.3623
vn -0.0037 1.0000 -0.0019
vn -0.0036 1.0000 -0.0017
vn -0.0039 1.0000 -0.0010
vn -0.0040 1.0000 -0.0019
vn -0.8603 0.0000 -0.5098
vn -0.8603 0.0000 -0.5098
vn -0.8603 0.0000 -0.5098
vn -0.8603 0.0000 -0.5098
vn 1.0000 0.0000 -0.0000
vn 1.0000 0.0000 -0.0000
vn 0.9443 0.0000 0.3291
vn 0.9443 0.0000 0.3291
vn 0.0023 -1.0000 0.0000
vn 0.0023 -1.0000 0.0000
vn 0.0023 -1.0000 0.0005
vn 0.0022 -1.0000 0.0008
vn 0.8651 0.0000 0.5017
vn 0.8651 0.0000 0.5017
vn 0.9812 0.0000 0.1930
vn 0.9812 0.0000 0.1930
vn 0.0020 -1.0000 0.0011
vn 0.0021 -1.0000 0.0011
vn 0.0023 -1.0000 0.0004
vn 0.0023 -1.0000 0.0005
vn -0.0039 1.0000 -0.0008
vn -0.0040 1.0000 -0.0000
vn -0.0040 1.0000 -0.0000
vn -0.0040 1.0000 -0.0007
vn -1.0000 0.0000 -0.0043
vn -1.0000 0.0000 -0.0043
vn -1.0000 0.0000 -0.0043
vn -1.0000 0.0000 -0.0043
# 414 vertex normals

vt 0.6492 0.9982 0.5568
vt 0.6329 0.9982 0.5462
vt 0.6329 0.3999 0.5462
vt 0.6492 0.3999 0.5568
vt 0.6140 0.9982 0.5309
vt 0.6140 0.3999 0.5309
vt 0.5868 0.9982 0.5062
vt 0.5873 0.3999 0.5062
vt 0.5624 0.9982 0.5062
vt 0.9947 0.5757 0.0000
vt 0.9947 0.2505 0.0000
vt 0.5352 0.3999 0.5309
vt 0.9906 0.9212 0.0000
vt 0.9741 0.9539 0.0000
vt 0.9647 0.9552 0.0000
vt 0.9807 0.9313 0.0000
vt 0.9515 0.9801 0.0000
vt 0.9461 0.9734 0.0000
vt 0.9165 0.9946 0.0000
vt 0.9146 0.9858 0.0000
vt 0.8853 0.9946 0.0000
vt 0.8871 0.9858 0.0000
vt 0.8012 0.2505 0.0000
vt 0.8012 0.5757 0.0000
vt 0.8502 0.9801 0.0000
vt 0.8556 0.9734 0.0000
vt 0.5624 0.3999 0.5062
vt 0.8276 0.9539 0.0000
vt 0.8200 0.8821 0.0000
vt 0.8252 0.9120 0.0000
vt 0.8391 0.9419 0.0000
vt 0.8582 0.9658 0.0000
vt 0.8878 0.9791 0.0000
vt 0.9141 0.9791 0.0000
vt 0.9438 0.9658 0.0000
vt 0.9628 0.9419 0.0000
vt 0.9768 0.9120 0.0000
vt 0.9820 0.8821 0.0000
vt 0.9839 0.8499 0.0000
vt 0.9839 0.6100 0.0000
vt 0.8181 0.6100 0.0000
vt 0.8181 0.8499 0.0000
vt 0.8370 0.9552 0.0000
vt 0.8111 0.9212 0.0000
vt 0.8210 0.9313 0.0000
vt 0.8050 0.8885 0.0000
vt 0.8146 0.9061 0.0000
vt 0.8027 0.8533 0.0000
vt 0.8114 0.8687 0.0000
vt 0.8027 0.5909 0.0000
vt 0.8114 0.6038 0.0000
vt 0.9990 0.5909 0.0000
vt 0.9903 0.6038 0.0000
vt 0.9990 0.8533 0.0000
vt 0.9903 0.8687 0.0000
vt 0.9968 0.8885 0.0000
vt 0.9034 0.2351 0.0000
vt 0.8907 0.2235 0.0000
vt 0.8796 0.2084 0.0000
vt 0.8753 0.1925 0.0000
vt 0.8731 0.1688 0.0000
vt 0.8731 0.0010 0.0000
vt 0.9959 0.0010 0.0000
vt 0.9959 0.1688 0.0000
vt 0.9937 0.1925 0.0000
vt 0.9893 0.2084 0.0000
vt 0.9783 0.2235 0.0000
vt 0.9655 0.2351 0.0000
vt 0.9439 0.2430 0.0000
vt 0.9251 0.2430 0.0000
vt 0.7507 0.3399 1.0083
vt 0.7948 0.3397 1.0080
vt 0.7949 0.3939 1.0122
vt 0.7509 0.3940 1.0119
vt 0.1768 0.0010 0.7071
vt 0.2633 0.0010 0.7071
vt 0.2633 0.8299 0.7071
vt 0.1768 0.8299 0.7071
vt 0.0039 0.0010 0.7071
vt 0.0039 0.8299 0.7071
vt 0.0904 0.0010 0.7071
vt 0.0904 0.8299 0.7071
vt 0.6748 0.2212 0.0000
vt 0.7391 0.2212 0.0000
vt 0.7387 0.2466 0.0000
vt 0.6744 0.2466 0.0000
vt 0.6744 0.3565 0.0000
vt 0.6744 0.2998 0.0000
vt 0.7387 0.2998 0.0000
vt 0.7387 0.3565 0.0000
vt 0.6744 0.2954 0.0000
vt 0.6750 0.0215 0.0000
vt 0.7394 0.0215 0.0000
vt 0.7387 0.2954 0.0000
vt 0.7417 0.3176 0.0000
vt 0.7426 0.3115 0.0000
vt 0.7453 0.3363 0.0000
vt 0.7651 0.3364 0.0000
vt 0.7651 0.3115 0.0000
vt 0.7743 0.2846 0.0000
vt 0.7941 0.2846 0.0000
vt 0.7426 0.3115 0.0000
vt 0.7394 0.0986 0.0000
vt 0.7394 0.1360 0.0000
vt 0.7394 0.1859 0.0000
vt 0.6750 0.1360 0.0000
vt 0.6750 0.0986 0.0000
vt 0.7417 0.3176 0.0000
vt 0.7453 0.3363 0.0000
vt 0.7651 0.3115 0.0000
vt 0.7651 0.3364 0.0000
vt 0.7743 0.2846 0.0000
vt 0.7941 0.2846 0.0000
vt 0.7453 0.3852 0.0000
vt 0.7417 0.3852 0.0000
vt 0.7417 0.3852 0.0000
vt 0.7453 0.3852 0.0000
vt 0.8595 0.0273 0.0000
vt 0.8595 0.2227 0.0000
vt 0.5352 0.9982 0.5309
vt 0.5163 0.9982 0.5462
vt 0.5163 0.3999 0.5462
vt 0.5000 0.9982 0.5568
vt 0.7889 0.2227 0.0000
vt 0.7889 0.0273 0.0000
vt 0.6750 0.1859 0.0000
vt 0.5000 0.3999 0.5568
vt 0.4879 0.9982 0.5430
vt 0.4879 0.3999 0.5430
vt 0.4754 0.9982 0.5220
vt 0.4754 0.3999 0.5220
vt 0.3524 0.9982 0.7071
vt 0.3524 0.3999 0.7071
vt 0.6738 0.9982 0.5220
vt 0.6613 0.9982 0.5430
vt 0.6613 0.3999 0.5430
vt 0.6738 0.4001 0.5220
vt 0.3676 0.0076 0.5322
vt 0.3772 0.0076 0.5171
vt 0.3772 0.3910 0.5171
vt 0.3676 0.3910 0.5322
vt 0.3875 0.0076 0.5033
vt 0.3875 0.3910 0.5033
vt 0.4042 0.0076 0.4833
vt 0.4042 0.3910 0.4833
vt 0.4189 0.0076 0.4833
vt 0.4189 0.3910 0.4833
vt 0.4356 0.0076 0.5033
vt 0.4356 0.3910 0.5033
vt 0.4459 0.0076 0.5171
vt 0.4459 0.3910 0.5171
vt 0.4555 0.0076 0.5322
vt 0.4555 0.3910 0.5322
vt 0.4621 0.0076 0.5212
vt 0.4621 0.3910 0.5212
vt 0.4711 0.0076 0.4928
vt 0.4711 0.3910 0.4928
vt 0.5312 0.0076 0.6531
vt 0.5312 0.3910 0.6531
vt 0.6092 0.0076 0.6531
vt 0.6092 0.3910 0.6531
vt 0.3520 0.0076 0.4928
vt 0.3520 0.3910 0.4928
vt 0.3610 0.0076 0.5212
vt 0.3610 0.3910 0.5212
vt 0.6693 0.0076 0.4928
vt 0.6693 0.3910 0.4928
vt 0.9871 0.9061 0.0000
vt 0.3498 0.0010 0.7071
vt 0.3498 0.8299 0.7071
vt 0.1761 0.8322 0.7071
vt 0.2629 0.8322 0.7071
vt 0.2629 0.9978 0.7071
vt 0.1761 0.9978 0.7071
vt 0.3496 0.8322 0.7071
vt 0.3496 0.9978 0.7071
vt 0.0025 0.8322 0.7071
vt 0.0893 0.8322 0.7071
vt 0.0893 0.9978 0.7071
vt 0.0025 0.9978 0.7071
vt 0.7358 0.2384 0.0000
vt 0.6773 0.2384 0.0000
vt 0.6777 0.2294 0.0000
vt 0.7361 0.2294 0.0000
vt 0.7388 0.3937 0.0000
vt 0.7743 0.2598 0.0000
vt 0.6745 0.3937 0.0000
vt 0.7743 0.2598 0.0000
vt 0.6752 0.0037 0.0000
vt 0.7941 0.2598 0.0000
vt 0.7395 0.0037 0.0000
vt 0.7941 0.2598 0.0000
vt 0.8691 0.0276 0.0000
vt 0.8595 0.0018 0.0000
vt 0.8691 0.2226 0.0000
vt 0.8595 0.2484 0.0000
vt 0.7889 0.2484 0.0000
vt 0.7793 0.2225 0.0000
vt 0.7793 0.0276 0.0000
vt 0.7889 0.0018 0.0000
vt 0.7970 0.9982 0.5220
vt 0.7970 0.4001 0.5220
vt 0.7415 0.2225 0.0000
vt 0.7889 0.0811 0.0000
vt 0.8595 0.0811 0.0000
vt 0.8691 0.0812 0.0000
vt 0.7415 0.0812 0.0000
vt 0.7793 0.0812 0.0000
vt 0.8595 0.0725 0.0000
vt 0.8691 0.0726 0.0000
vt 0.7415 0.0727 0.0000
vt 0.7889 0.0725 0.0000
vt 0.7793 0.0726 0.0000
vt 0.7889 0.0903 0.0000
vt 0.7793 0.0904 0.0000
vt 0.8595 0.0903 0.0000
vt 0.8691 0.0904 0.0000
vt 0.7415 0.0904 0.0000
# 218 texture coords

g Mailbox
usemtl Mailbox
s 1
f 1/1/1 2/2/2 16/3/3 15/4/4 
f 2/2/5 3/5/6 17/6/7 16/3/8 
f 3/5/9 4/7/10 86/8/11 17/6/12 
f 86/8/13 4/7/14 5/9/15 75/27/16 
f 18/12/17 75/27/18 5/9/19 6/120/20 
f 6/120/21 7/121/22 19/122/23 18/12/24 
f 7/121/25 8/123/26 20/127/27 19/122/28 
f 8/123/29 9/128/30 21/129/31 20/127/32 
f 9/128/33 10/130/34 22/131/35 21/129/36 
f 10/130/37 11/132/38 23/133/39 22/131/40 
s 2
f 11/10/41 12/11/42 24/23/43 23/24/44 
s 1
f 13/134/45 14/135/46 26/136/47 25/137/48 
f 14/135/49 1/1/50 15/4/51 26/136/52 
s 4
f 14/38/53 13/39/54 10/42/55 9/29/56 
s 1
f 41/66/57 42/67/58 47/58/59 48/59/60 
s 2
f 15/13/61 16/14/62 28/15/63 27/16/64 
f 16/14/65 17/17/66 29/18/67 28/15/68 
f 17/17/69 86/19/70 30/20/71 29/18/72 
f 86/19/73 75/21/74 31/22/75 30/20/76 
f 75/21/77 18/25/78 32/26/79 31/22/80 
f 18/25/81 19/28/82 33/43/83 32/26/84 
f 19/28/85 20/44/86 34/45/87 33/43/88 
f 20/44/89 21/46/90 35/47/91 34/45/92 
f 21/46/93 22/48/94 36/49/95 35/47/96 
f 22/48/97 23/50/98 37/51/99 36/49/100 
s 1
f 23/50/101 24/52/102 38/53/103 37/51/104 
s 2
f 24/52/105 25/54/106 39/55/107 38/53/108 
f 25/54/109 26/56/110 40/168/111 39/55/112 
f 26/56/113 15/13/114 27/16/115 40/168/116 
s 1
f 27/138/117 28/139/118 42/140/119 41/141/120 
f 28/139/121 29/142/122 43/143/123 42/140/124 
f 29/142/125 30/144/126 44/145/127 43/143/128 
f 30/144/129 31/146/130 45/147/131 44/145/132 
f 31/146/133 32/148/134 46/149/135 45/147/136 
f 32/148/137 33/150/138 47/151/139 46/149/140 
f 33/150/141 34/152/142 48/153/143 47/151/144 
f 34/152/145 35/154/146 49/155/147 48/153/148 
f 35/154/149 36/156/150 50/157/151 49/155/152 
f 36/156/153 37/158/154 51/159/155 50/157/156 
s 2
f 37/158/157 38/160/158 52/161/159 51/159/160 
s 1
f 38/160/161 39/166/162 53/167/163 52/161/164 
f 39/162/165 40/164/166 54/165/167 53/163/168 
f 40/164/169 27/138/170 41/141/171 54/165/172 
s 2
f 55/71/173 57/72/174 58/73/175 56/74/176 
s 8
f 55/75/177 56/76/178 60/77/179 59/78/180 
s 16
f 56/76/181 58/169/182 62/170/183 60/77/184 
s 32
f 58/79/185 57/81/186 61/82/187 62/80/188 
s 64
f 57/81/189 55/75/190 59/78/191 61/82/192 
s 2
f 97/183/193 98/184/194 95/181/195 96/182/196 
s 4
f 68/92/197 101/189/198 102/191/199 67/93/200 
s 8
f 70/88/201 64/91/202 63/94/203 69/89/204 
f 72/87/205 70/88/206 69/89/207 71/90/208 
f 100/187/209 72/87/210 71/90/211 99/185/212 
s 16
f 64/95/213 70/96/214 66/97/215 
f 73/98/216 66/97/217 70/96/218 72/99/219 
f 76/100/220 73/98/221 72/99/222 100/188/223 
f 68/101/224 76/100/225 100/188/226 101/190/227 
s 32
f 74/104/228 65/105/229 66/126/230 73/106/231 
f 77/103/232 74/104/233 73/106/234 76/107/235 
f 67/93/236 77/103/237 76/107/238 68/92/239 
s 64
f 69/102/240 63/108/241 65/109/242 
f 71/110/243 69/102/244 65/109/245 74/111/246 
f 99/186/247 71/110/248 74/111/249 77/112/250 
f 102/192/251 99/186/252 77/112/253 67/113/254 
s off
f 64/91/255 79/86/256 78/85/257 63/94/258 
f 80/114/259 79/115/260 64/95/261 66/97/262 
f 65/105/263 81/84/264 80/83/265 66/126/266 
f 78/116/267 81/117/268 65/109/269 63/108/270 
s 2
f 115/214/271 117/216/272 83/119/273 85/124/274 
s 16
f 104/195/275 83/119/276 117/216/277 118/217/278 
s 8
f 83/119/279 104/196/280 105/197/281 85/124/282 
s 16
f 84/125/283 113/212/284 114/213/285 106/199/286 
s 8
f 84/125/287 106/200/288 103/194/289 82/118/290 
s 4
f 3/35/291 6/32/292 5/33/293 4/34/294 
f 2/36/295 7/31/296 6/32/297 3/35/298 
f 1/37/299 8/30/300 7/31/301 2/36/302 
f 14/38/303 9/29/304 8/30/305 1/37/306 
f 10/42/307 13/39/308 12/40/309 11/41/310 
s 1
f 46/57/311 43/68/312 44/69/313 45/70/314 
f 47/58/315 42/67/316 43/68/317 46/57/318 
f 41/66/319 48/59/320 49/60/321 54/65/322 
f 54/65/323 49/60/324 50/61/325 53/64/326 
f 52/63/327 53/64/328 50/61/329 51/62/330 
s 8
f 87/171/331 90/172/332 91/173/333 92/174/334 
s 16
f 90/172/335 89/175/336 93/176/337 91/173/338 
s 32
f 89/177/339 88/178/340 94/179/341 93/180/342 
s 64
f 88/178/343 87/171/344 92/174/345 94/179/346 
s off
f 96/182/347 79/86/348 80/83/349 97/183/350 
f 98/184/351 81/84/352 78/85/353 95/181/354 
f 96/182/355 95/181/356 78/85/357 79/86/358 
f 98/184/359 97/183/360 80/83/361 81/84/362 
s 1
f 13/134/363 25/137/364 24/202/365 12/201/366 
s 2
f 113/212/367 111/209/368 108/205/369 107/204/370 
s 16
f 111/209/371 112/210/372 109/206/373 108/205/374 
f 107/204/375 115/214/376 116/215/377 110/208/378 
s off
f 116/215/379 118/218/380 109/207/381 110/208/382 
s 16
f 107/204/383 110/208/384 114/213/385 113/212/386 
s off
f 110/208/387 109/207/388 112/211/389 114/213/390 
s 2
f 84/125/391 82/118/392 111/209/393 113/212/394 
s 16
f 82/118/395 103/193/396 112/210/397 111/209/398 
s 2
f 107/204/399 108/205/400 117/216/401 115/214/402 
s 16
f 108/205/403 109/206/404 118/217/405 117/216/406 
f 115/214/407 85/124/408 105/198/409 116/215/410 
s off
f 105/198/411 104/203/412 118/218/413 116/215/414 
# 102 polygons - 2 triangles

#
# object MailboxFlap
#

v  2.4568 22.4956 7.1326
v  2.0039 23.0813 7.1326
v  2.0039 23.0813 7.2110
v  2.4568 22.4956 7.2110
v  1.3869 23.5504 7.1326
v  1.3869 23.5504 7.2110
v  0.4254 23.8106 7.1326
v  0.4254 23.8106 7.2110
v  -0.4233 23.8122 7.1326
v  -0.4233 23.8122 7.2110
v  -1.3881 23.5506 7.1326
v  -1.3881 23.5506 7.2110
v  -2.0073 23.0789 7.1326
v  -2.0073 23.0789 7.2110
v  -2.4578 22.4939 7.1326
v  -2.4578 22.4939 7.2110
v  -2.6258 21.9126 7.1326
v  -2.6258 21.9126 7.2110
v  -2.6894 21.2778 7.1326
v  -2.6894 21.2778 7.2110
v  -2.6881 16.5729 7.1326
v  -2.6881 16.5729 7.2110
v  2.6893 16.5729 7.1326
v  2.6893 16.5729 7.2110
v  2.6894 21.2756 7.1326
v  2.6894 21.2756 7.2110
v  2.6258 21.9105 7.1326
v  2.6258 21.9105 7.2110
v  -0.4247 22.6182 7.2059
v  0.4289 22.6182 7.2059
v  0.4289 22.6182 7.2914
v  -0.4247 22.6182 7.2914
v  -0.3675 23.6964 7.8503
v  -0.4247 23.7357 7.7661
v  0.3895 23.6964 7.7661
v  0.3895 23.6964 7.8503
v  -0.4247 23.7973 7.2059
v  0.4289 23.7973 7.2059
v  -0.4247 23.9800 7.3311
v  0.4289 23.9800 7.3311
v  -0.4247 23.9800 7.8299
v  0.4289 23.9800 7.8299
v  -0.4247 23.9594 7.8503
v  0.4289 23.9594 7.8503
v  0.4289 23.7973 7.2914
v  0.4289 23.8944 7.3311
v  0.4289 23.8945 7.7661
v  -0.4247 23.7973 7.2914
v  -0.4247 23.8944 7.3311
v  -0.4247 23.8945 7.7661
v  2.4598 16.5732 7.2634
v  2.4598 16.7036 7.1329
v  2.4598 16.6937 7.0830
v  2.4598 16.6654 7.0407
v  2.4598 16.6231 7.0124
v  2.4598 16.5732 7.0024
v  2.4598 16.5232 7.0124
v  2.4598 16.4809 7.0407
v  2.4598 16.4526 7.0830
v  2.4598 16.4427 7.1329
v  2.4598 16.4526 7.1829
v  2.4598 16.4809 7.2252
v  2.4598 16.5232 7.2535
v  -2.4604 16.5732 7.2634
v  -2.4604 16.7036 7.1329
v  -2.4604 16.6937 7.0830
v  -2.4604 16.6654 7.0407
v  -2.4604 16.6231 7.0124
v  -2.4604 16.5732 7.0024
v  -2.4604 16.5232 7.0124
v  -2.4604 16.4809 7.0407
v  -2.4604 16.4526 7.0830
v  -2.4604 16.4427 7.1329
v  -2.4604 16.4526 7.1829
v  -2.4604 16.4809 7.2252
v  -2.4604 16.5232 7.2535
v  2.4598 16.5732 7.1329
v  -2.4604 16.5732 7.1329
v  -2.1403 19.2461 7.2110
v  -2.1393 18.0059 7.2110
v  2.1446 18.0059 7.2110
v  2.1447 19.2455 7.2110
v  -0.4247 23.7357 7.8503
v  -0.3675 23.6964 7.7661
v  0.4289 23.7357 7.7661
v  0.4289 23.7357 7.8503
# 86 vertices

vn 0.7042 0.7100 0.0000
vn 0.8917 0.4526 0.0000
vn 0.8917 0.4526 0.0000
vn 0.7042 0.7100 0.0000
vn 0.4414 0.8973 0.0000
vn 0.7042 0.7100 0.0000
vn 0.7042 0.7100 0.0000
vn 0.4414 0.8973 0.0000
vn 0.1327 0.9912 0.0000
vn 0.4414 0.8973 0.0000
vn 0.4414 0.8973 0.0000
vn 0.1327 0.9912 0.0000
vn -0.1310 0.9914 -0.0000
vn 0.1327 0.9912 0.0000
vn 0.1327 0.9912 0.0000
vn -0.1310 0.9914 -0.0000
vn -0.4421 0.8970 -0.0000
vn -0.1310 0.9914 -0.0000
vn -0.1310 0.9914 -0.0000
vn -0.4421 0.8970 -0.0000
vn -0.7053 0.7089 0.0000
vn -0.4421 0.8970 -0.0000
vn -0.4421 0.8970 -0.0000
vn -0.7053 0.7089 0.0000
vn -0.8921 0.4518 -0.0000
vn -0.7053 0.7089 0.0000
vn -0.7053 0.7089 0.0000
vn -0.8921 0.4518 -0.0000
vn -0.9819 0.1894 -0.0000
vn -0.8921 0.4518 -0.0000
vn -0.8921 0.4518 -0.0000
vn -0.9819 0.1894 -0.0000
vn -0.9988 0.0498 -0.0000
vn -0.9819 0.1894 -0.0000
vn -0.9819 0.1894 -0.0000
vn -0.9988 0.0498 -0.0000
vn -1.0000 -0.0003 -0.0000
vn -0.9988 0.0498 -0.0000
vn -0.9988 0.0498 -0.0000
vn -1.0000 -0.0003 -0.0000
vn 0.0000 -1.0000 -0.0000
vn 0.0000 -1.0000 -0.0000
vn 0.0000 -1.0000 -0.0000
vn 0.0000 -1.0000 -0.0000
vn 0.9988 0.0499 -0.0000
vn 1.0000 -0.0000 -0.0000
vn 1.0000 -0.0000 -0.0000
vn 0.9988 0.0499 0.0000
vn 0.9819 0.1893 0.0000
vn 0.9988 0.0499 -0.0000
vn 0.9988 0.0499 0.0000
vn 0.9819 0.1893 0.0000
vn 0.8917 0.4526 0.0000
vn 0.9819 0.1893 0.0000
vn 0.9819 0.1893 0.0000
vn 0.8917 0.4526 0.0000
vn 0.0000 0.0000 -1.0000
vn 0.0000 0.0000 -1.0000
vn 0.0000 0.0000 -1.0000
vn 0.0000 0.0000 -1.0000
vn 0.0000 0.0000 1.0000
vn 0.0000 0.0000 1.0000
vn 0.0000 0.0000 1.0000
vn 0.0000 0.0000 1.0000
vn 0.0000 -1.0000 -0.0000
vn 0.0000 -1.0000 -0.0000
vn 0.0000 -1.0000 -0.0000
vn 0.0000 -1.0000 -0.0000
vn -0.0000 -1.0000 -0.0000
vn 0.0000 -1.0000 -0.0000
vn -0.0000 -1.0000 -0.0000
vn -0.0000 -1.0000 -0.0000
vn -0.0000 0.8847 -0.4662
vn 0.0000 0.5654 -0.8248
vn 0.0000 0.5654 -0.8248
vn 0.0000 0.8847 -0.4662
vn -0.0000 0.8847 -0.4662
vn 0.0000 0.8847 -0.4662
vn 0.0000 0.9229 0.3849
vn 0.0000 0.9230 0.3849
vn 0.0000 0.0000 1.0000
vn 0.0000 0.0000 1.0000
vn 0.0000 0.0000 1.0000
vn 0.0000 0.0000 1.0000
vn 1.0000 -0.0000 -0.0000
vn 1.0000 -0.0000 -0.0000
vn 1.0000 -0.0000 -0.0000
vn 1.0000 -0.0000 -0.0000
vn 1.0000 0.0000 -0.0000
vn 1.0000 -0.0000 -0.0000
vn 1.0000 -0.0000 -0.0000
vn 1.0000 0.0000 -0.0000
vn 1.0000 0.0000 -0.0000
vn 1.0000 0.0000 -0.0000
vn 1.0000 0.0000 -0.0000
vn 1.0000 0.0000 -0.0000
vn 1.0000 0.0000 -0.0000
vn 1.0000 0.0000 -0.0000
vn 1.0000 0.0000 -0.0000
vn 1.0000 0.0000 -0.0000
vn 1.0000 0.0000 -0.0000
vn 0.0000 -0.1927 0.9813
vn 0.0000 0.0000 1.0000
vn 0.0000 0.0000 1.0000
vn 0.0000 -0.1927 0.9813
vn 0.0000 -0.8301 0.5577
vn 0.0000 -0.1927 0.9813
vn 0.0000 -0.1927 0.9813
vn -0.0000 -0.8301 0.5576
vn -0.0000 -0.7072 -0.7070
vn 0.0000 -0.8301 0.5577
vn -0.0000 -0.8301 0.5576
vn -0.0000 -0.7072 -0.7070
vn -0.0000 -0.0002 -1.0000
vn -0.0000 -0.0002 -1.0000
vn -0.0000 -0.0002 -1.0000
vn -0.0000 -0.0002 -1.0000
vn -1.0000 -0.0000 0.0000
vn -1.0000 0.0000 -0.0000
vn -1.0000 0.0000 0.0000
vn -1.0000 -0.0000 0.0000
vn -1.0000 -0.0000 -0.0000
vn -1.0000 -0.0000 0.0000
vn -1.0000 -0.0000 0.0000
vn -1.0000 -0.0000 -0.0000
vn -1.0000 -0.0000 -0.0000
vn -1.0000 -0.0000 -0.0000
vn -1.0000 -0.0000 -0.0000
vn -1.0000 -0.0000 0.0000
vn -1.0000 -0.0000 -0.0000
vn -1.0000 0.0000 -0.0000
vn -1.0000 -0.0000 -0.0000
vn -1.0000 -0.0000 -0.0000
vn -1.0000 0.0000 -0.0000
vn 0.0000 0.9230 0.3849
vn 0.0000 0.9229 0.3849
vn 0.0000 0.3804 0.9248
vn 0.0000 0.3804 0.9248
vn 0.0000 -0.0000 1.0000
vn -0.0000 -0.0000 1.0000
vn 0.0000 -0.0000 1.0000
vn 0.0000 -0.0000 1.0000
vn 0.0000 -0.0000 1.0000
vn 0.0000 -0.0000 1.0000
vn 0.0000 -0.0000 1.0000
vn 0.0000 0.0000 1.0000
vn 0.0000 0.0000 1.0000
vn 0.0000 -0.0000 1.0000
vn 0.0000 0.0000 1.0000
vn 0.0000 0.0000 1.0000
vn 0.0000 0.0000 1.0000
vn 0.0000 0.0000 1.0000
vn 0.0000 0.0000 1.0000
vn 0.0000 0.0000 1.0000
vn 0.0000 0.0000 -1.0000
vn 0.0000 0.0000 -1.0000
vn 0.0000 0.0000 -1.0000
vn 0.0000 0.0000 -1.0000
vn 0.0000 0.0000 -1.0000
vn 0.0000 0.0000 -1.0000
vn 0.0000 0.0000 -1.0000
vn 0.0000 0.0000 -1.0000
vn 0.0000 0.0000 -1.0000
vn 0.0000 0.0000 -1.0000
vn 0.0000 0.0000 -1.0000
vn 0.0000 0.0000 -1.0000
vn 0.0000 0.0000 -1.0000
vn 0.0000 0.0000 -1.0000
vn 0.0000 0.0000 -1.0000
vn 0.0000 0.0000 -1.0000
vn 0.0000 0.0000 -1.0000
vn 0.0000 0.0000 -1.0000
vn 0.0000 0.0000 -1.0000
vn 0.0000 0.0000 -1.0000
vn -0.0000 0.9808 -0.1951
vn -0.0000 0.9239 -0.3827
vn -0.0000 0.9239 -0.3827
vn -0.0000 0.9808 -0.1951
vn -0.0000 0.9239 -0.3827
vn -0.0000 0.7071 -0.7071
vn -0.0000 0.7071 -0.7071
vn -0.0000 0.9239 -0.3827
vn -0.0000 0.7071 -0.7071
vn 0.0000 0.3827 -0.9239
vn -0.0000 0.3827 -0.9239
vn -0.0000 0.7071 -0.7071
vn 0.0000 0.3827 -0.9239
vn 0.0000 0.0000 -1.0000
vn 0.0000 0.0000 -1.0000
vn -0.0000 0.3827 -0.9239
vn 0.0000 0.0000 -1.0000
vn -0.0000 -0.3827 -0.9239
vn 0.0000 -0.3827 -0.9239
vn 0.0000 0.0000 -1.0000
vn -0.0000 -0.3827 -0.9239
vn -0.0000 -0.7071 -0.7071
vn -0.0000 -0.7071 -0.7071
vn 0.0000 -0.3827 -0.9239
vn -0.0000 -0.7071 -0.7071
vn -0.0000 -0.9239 -0.3827
vn -0.0000 -0.9239 -0.3827
vn -0.0000 -0.7071 -0.7071
vn -0.0000 -0.9239 -0.3827
vn -0.0000 -1.0000 -0.0000
vn 0.0000 -1.0000 0.0000
vn -0.0000 -0.9239 -0.3827
vn -0.0000 -1.0000 -0.0000
vn 0.0000 -0.9239 0.3827
vn 0.0000 -0.9239 0.3827
vn 0.0000 -1.0000 0.0000
vn 0.0000 -0.9239 0.3827
vn 0.0000 -0.7071 0.7071
vn 0.0000 -0.7071 0.7071
vn 0.0000 -0.9239 0.3827
vn 0.0000 -0.7071 0.7071
vn 0.0000 -0.3827 0.9239
vn 0.0000 -0.3827 0.9239
vn 0.0000 -0.7071 0.7071
vn 0.0000 -0.3827 0.9239
vn 0.0000 -0.1951 0.9808
vn 0.0000 -0.1951 0.9808
vn 0.0000 -0.3827 0.9239
vn 1.0000 0.0000 0.0000
vn 1.0000 0.0000 0.0000
vn 1.0000 0.0000 0.0000
vn 1.0000 0.0000 0.0000
vn 1.0000 0.0000 0.0000
vn 1.0000 0.0000 0.0000
vn 1.0000 0.0000 0.0000
vn 1.0000 0.0000 0.0000
vn 1.0000 0.0000 0.0000
vn 1.0000 -0.0000 0.0000
vn 1.0000 -0.0000 0.0000
vn 1.0000 -0.0000 0.0000
vn 1.0000 0.0000 0.0000
vn 1.0000 0.0000 0.0000
vn 1.0000 0.0000 0.0000
vn 1.0000 0.0000 0.0000
vn 1.0000 0.0000 0.0000
vn 1.0000 0.0000 0.0000
vn 1.0000 0.0000 0.0000
vn 1.0000 0.0000 0.0000
vn 1.0000 0.0000 0.0000
vn 1.0000 0.0000 0.0000
vn 1.0000 0.0000 0.0000
vn 1.0000 0.0000 0.0000
vn 1.0000 0.0000 0.0000
vn 1.0000 0.0000 0.0000
vn 1.0000 0.0000 0.0000
vn 1.0000 0.0000 0.0000
vn 1.0000 0.0000 0.0000
vn 1.0000 0.0000 0.0000
vn 1.0000 0.0000 0.0000
vn 1.0000 0.0000 0.0000
vn 1.0000 0.0000 0.0000
vn 1.0000 0.0000 0.0000
vn 1.0000 0.0000 0.0000
vn 1.0000 0.0000 0.0000
vn -1.0000 0.0000 -0.0000
vn -1.0000 0.0000 -0.0000
vn -1.0000 0.0000 -0.0000
vn -1.0000 0.0000 -0.0000
vn -1.0000 0.0000 -0.0000
vn -1.0000 0.0000 -0.0000
vn -1.0000 0.0000 -0.0000
vn -1.0000 0.0000 -0.0000
vn -1.0000 0.0000 -0.0000
vn -1.0000 0.0000 -0.0000
vn -1.0000 0.0000 -0.0000
vn -1.0000 0.0000 -0.0000
vn -1.0000 -0.0000 -0.0000
vn -1.0000 -0.0000 -0.0000
vn -1.0000 -0.0000 -0.0000
vn -1.0000 -0.0000 -0.0000
vn -1.0000 -0.0000 -0.0000
vn -1.0000 -0.0000 -0.0000
vn -1.0000 -0.0000 -0.0000
vn -1.0000 -0.0000 -0.0000
vn -1.0000 -0.0000 -0.0000
vn -1.0000 -0.0000 -0.0000
vn -1.0000 -0.0000 -0.0000
vn -1.0000 -0.0000 -0.0000
vn -1.0000 -0.0000 -0.0000
vn -1.0000 -0.0000 -0.0000
vn -1.0000 -0.0000 -0.0000
vn -1.0000 -0.0000 -0.0000
vn -1.0000 -0.0000 -0.0000
vn -1.0000 -0.0000 -0.0000
vn -1.0000 -0.0000 0.0000
vn -1.0000 -0.0000 0.0000
vn -1.0000 -0.0000 0.0000
vn -1.0000 -0.0000 0.0000
vn -1.0000 -0.0000 0.0000
vn -1.0000 -0.0000 0.0000
vn 0.0000 0.0000 1.0000
vn 0.0000 0.0000 1.0000
vn 0.0000 0.0000 1.0000
vn 0.0000 0.0000 1.0000
vn 0.0000 -0.0000 1.0000
vn 0.0000 -0.0000 1.0000
vn 0.0000 -0.0000 1.0000
vn 0.0000 -0.0000 1.0000
vn 0.0000 0.0000 1.0000
vn 0.0000 0.0000 1.0000
vn 0.0000 0.0000 1.0000
vn 0.0000 0.0000 1.0000
vn 0.0000 0.0000 1.0000
vn 0.0000 0.0000 1.0000
vn 0.0000 0.0000 1.0000
vn 0.0000 0.0000 1.0000
vn 0.0000 0.0000 1.0000
vn 0.0000 0.0000 1.0000
vn 0.0000 0.0000 1.0000
vn 0.0000 0.0000 1.0000
vn 0.7071 -0.7071 -0.0000
vn 0.7071 -0.7071 -0.0000
vn 0.7071 -0.7071 -0.0000
vn 0.7071 -0.7071 -0.0000
vn -0.5670 -0.8237 -0.0000
vn -0.5670 -0.8237 -0.0000
vn -0.5670 -0.8237 -0.0000
vn -0.5670 -0.8237 -0.0000
vn 0.0000 0.0000 1.0000
vn 0.0000 0.0000 1.0000
vn 0.0000 0.3804 0.9248
vn 0.0000 0.3804 0.9248
vn -0.0000 -0.0002 -1.0000
vn -0.0000 -0.0002 -1.0000
vn -0.0000 -0.7072 -0.7070
vn -0.0000 -0.7072 -0.7070
# 330 vertex normals

vt 0.9651 0.0508 0.5566
vt 0.9651 0.0844 0.5459
vt 0.9997 0.0844 0.5459
vt 0.9997 0.0508 0.5566
vt 0.9651 0.1231 0.5307
vt 0.9997 0.1231 0.5307
vt 0.9651 0.1787 0.5060
vt 0.9997 0.1787 0.5060
vt 0.9651 0.2284 0.5062
vt 0.9997 0.2284 0.5062
vt 0.9651 0.2843 0.5308
vt 0.9997 0.2843 0.5308
vt 0.9651 0.3231 0.5461
vt 0.9997 0.3231 0.5461
vt 0.9651 0.3566 0.5566
vt 0.9997 0.3566 0.5566
vt 0.9651 0.3812 0.5429
vt 0.9997 0.3812 0.5429
vt 0.9651 0.4068 0.5220
vt 0.9997 0.4068 0.5220
vt 0.9651 0.5779 0.7069
vt 0.9997 0.5779 0.7069
vt 0.9651 0.8273 0.7071
vt 0.9997 0.8273 0.7071
vt 0.9651 0.0004 0.5219
vt 0.9997 0.0004 0.5219
vt 0.9651 0.0260 0.5428
vt 0.9997 0.0260 0.5428
vt 0.6845 0.9665 0.0000
vt 0.7485 0.9975 0.0000
vt 0.8049 0.9973 0.0000
vt 0.8687 0.9664 0.0000
vt 0.9097 0.9107 0.0000
vt 0.9398 0.8412 0.0000
vt 0.9510 0.7717 0.0000
vt 0.9552 0.6963 0.0000
vt 0.9552 0.1380 0.0000
vt 0.5982 0.1380 0.0000
vt 0.5981 0.6966 0.0000
vt 0.6023 0.7720 0.0000
vt 0.6135 0.8410 0.0000
vt 0.6434 0.9104 0.0000
vt 0.5941 0.6852 0.0000
vt 0.5870 0.7640 0.0000
vt 0.0071 0.7642 0.0000
vt 0.0001 0.6855 0.0000
vt 0.4502 0.9674 0.0000
vt 0.3441 0.9996 0.0000
vt 0.2504 0.9999 0.0000
vt 0.1438 0.9674 0.0000
vt 0.0754 0.9089 0.0000
vt 0.5184 0.9092 0.0000
vt 0.0257 0.8363 0.0000
vt 0.5684 0.8365 0.0000
vt 0.2829 0.0022 0.0000
vt 0.2829 0.0958 0.0000
vt 0.2781 0.0958 0.0000
vt 0.1448 0.0958 0.0000
vt 0.0525 0.0015 0.0000
vt 0.1094 0.0958 0.0000
vt 0.0870 0.0913 0.0000
vt 0.0822 0.0060 0.0000
vt 0.0015 0.0015 0.0000
vt 0.0221 0.0015 0.0000
vt 0.0221 0.0951 0.0000
vt 0.0015 0.0951 0.0000
vt 0.0822 0.0906 0.0000
vt 0.0525 0.0951 0.0000
vt 0.0502 0.0951 0.0000
vt 0.0502 0.0015 0.0000
vt 0.1448 0.0022 0.0000
vt 0.2781 0.0022 0.0000
vt 0.2871 0.0021 0.0000
vt 0.4942 0.0021 0.0000
vt 0.4942 0.0090 0.0000
vt 0.2871 0.0090 0.0000
vt 0.5263 0.0122 0.0000
vt 0.5113 0.0122 0.0000
vt 0.5263 0.0527 0.0000
vt 0.5227 0.0544 0.0000
vt 0.5113 0.0476 0.0000
vt 0.4834 0.0544 0.0000
vt 0.4834 0.0476 0.0000
vt 0.1339 0.0958 0.0000
vt 0.2871 0.0090 0.0000
vt 0.1094 0.0022 0.0000
vt 0.1339 0.0022 0.0000
vt 0.4942 0.0090 0.0000
vt 0.4942 0.0021 0.0000
vt 0.2871 0.0021 0.0000
vt 0.5113 0.0122 0.0000
vt 0.5263 0.0122 0.0000
vt 0.0914 0.0022 0.0000
vt 0.5113 0.0476 0.0000
vt 0.5227 0.0544 0.0000
vt 0.5263 0.0527 0.0000
vt 0.4834 0.0476 0.0000
vt 0.4834 0.0544 0.0000
vt 0.9651 0.9982 0.5219
vt 0.9997 0.9982 0.5219
vt 0.5976 0.1112 1.0000
vt 0.5976 0.1355 1.0000
vt 0.5976 0.1335 1.0000
vt 0.5976 0.1315 1.0000
vt 0.5976 0.1294 1.0000
vt 0.5976 0.1274 1.0000
vt 0.5976 0.1254 1.0000
vt 0.5976 0.1234 1.0000
vt 0.5976 0.1213 1.0000
vt 0.5976 0.1193 1.0000
vt 0.5976 0.1173 1.0000
vt 0.5976 0.1153 1.0000
vt 0.5976 0.1133 1.0000
vt 0.9274 0.1112 1.0000
vt 0.9274 0.1355 1.0000
vt 0.9274 0.1335 1.0000
vt 0.9274 0.1315 1.0000
vt 0.9274 0.1294 1.0000
vt 0.9274 0.1274 1.0000
vt 0.9274 0.1254 1.0000
vt 0.9274 0.1234 1.0000
vt 0.9274 0.1213 1.0000
vt 0.9274 0.1193 1.0000
vt 0.9274 0.1173 1.0000
vt 0.9274 0.1153 1.0000
vt 0.9274 0.1133 1.0000
vt 0.9412 0.1355 0.0000
vt 0.9412 0.1274 0.0000
vt 0.9542 0.1274 0.0000
vt 0.9532 0.1243 0.0000
vt 0.9504 0.1217 0.0000
vt 0.9462 0.1199 0.0000
vt 0.9412 0.1193 0.0000
vt 0.9362 0.1199 0.0000
vt 0.9319 0.1217 0.0000
vt 0.9291 0.1243 0.0000
vt 0.9281 0.1274 0.0000
vt 0.9291 0.1305 0.0000
vt 0.9319 0.1331 0.0000
vt 0.9362 0.1349 0.0000
vt 0.9412 0.1031 0.0000
vt 0.9412 0.1112 0.0000
vt 0.9542 0.1112 0.0000
vt 0.9532 0.1142 0.0000
vt 0.9504 0.1168 0.0000
vt 0.9462 0.1186 0.0000
vt 0.9412 0.1192 0.0000
vt 0.9362 0.1186 0.0000
vt 0.9320 0.1168 0.0000
vt 0.9292 0.1142 0.0000
vt 0.9282 0.1112 0.0000
vt 0.9292 0.1081 0.0000
vt 0.9320 0.1055 0.0000
vt 0.9362 0.1037 0.0000
vt 0.0003 0.1019 0.0000
vt 0.0609 0.2797 0.0000
vt 0.0608 0.4335 0.0000
vt 0.5941 0.1019 0.0000
vt 0.5339 0.2797 0.0000
vt 0.5339 0.4334 0.0000
vt 0.0778 0.0015 0.0000
vt 0.0870 0.0067 0.0000
vt 0.0914 0.0958 0.0000
vt 0.0778 0.0951 0.0000
# 164 texture coords

g MailboxFlap
usemtl MailboxFlap
s 8
f 121/221/415 122/222/416 119/219/417 120/220/418 
f 124/224/419 121/221/420 120/220/421 123/223/422 
f 126/226/423 124/224/424 123/223/425 125/225/426 
f 128/228/427 126/226/428 125/225/429 127/227/430 
f 130/230/431 128/228/432 127/227/433 129/229/434 
f 132/232/435 130/230/436 129/229/437 131/231/438 
f 134/234/439 132/232/440 131/231/441 133/233/442 
f 136/236/443 134/234/444 133/233/445 135/235/446 
f 138/238/447 136/236/448 135/235/449 137/237/450 
f 140/240/451 138/238/452 137/237/453 139/239/454 
s 2
f 142/242/455 140/240/456 139/239/457 141/241/458 
s 8
f 144/318/459 142/242/460 141/241/461 143/317/462 
f 146/246/463 144/244/464 143/243/465 145/245/466 
f 122/222/467 146/246/468 145/245/469 119/219/470 
s 1
f 123/250/471 120/251/472 131/260/473 129/247/474 
f 144/261/475 146/262/476 136/263/477 138/264/478 
s 2
f 149/275/479 150/290/480 147/273/481 148/274/482 
s 4
f 153/279/483 154/285/484 151/280/485 202/380/486 
s 8
f 158/283/487 156/284/488 155/281/489 157/282/490 
f 158/283/491 157/282/492 159/288/493 160/287/494 
f 151/280/495 154/285/496 204/382/497 201/379/498 
s 16
f 163/293/499 149/294/500 148/291/501 156/292/502 
f 164/296/503 163/293/504 156/292/505 158/295/506 
f 165/299/507 164/296/508 158/295/509 160/297/510 162/298/511 
f 203/301/512 165/299/513 162/298/514 204/300/515 
s 32
f 166/289/516 150/290/517 149/275/518 163/276/519 
f 167/305/520 166/289/521 163/276/522 164/302/523 
f 168/304/524 167/305/525 164/302/526 165/278/527 
f 153/279/528 202/380/529 152/311/530 203/381/531 
s 64
f 155/307/532 147/308/533 150/303/534 166/306/535 
f 157/310/536 155/307/537 166/306/538 167/309/539 
f 167/309/540 168/312/541 161/313/542 159/314/543 157/310/544 
f 201/316/545 161/313/546 168/312/547 152/315/548 
s 8
f 160/287/549 159/288/550 161/277/551 162/286/552 
s 1
f 124/265/553 126/266/554 128/267/555 130/268/556 
f 124/265/557 130/268/558 132/269/559 121/270/560 
f 121/270/561 132/269/562 134/271/563 122/272/564 
f 122/272/565 134/271/566 136/263/567 146/262/568 
f 129/247/569 127/248/570 125/249/571 123/250/572 
f 119/252/573 133/259/574 131/260/575 120/251/576 
f 145/253/577 135/258/578 133/259/579 119/252/580 
f 143/254/581 137/257/582 135/258/583 145/253/584 
f 143/254/585 141/255/586 139/256/587 137/257/588 
s 8
f 170/320/589 171/321/590 184/334/591 183/333/592 
f 171/321/593 172/322/594 185/335/595 184/334/596 
f 172/322/597 173/323/598 186/336/599 185/335/600 
f 173/323/601 174/324/602 187/337/603 186/336/604 
f 174/324/605 175/325/606 188/338/607 187/337/608 
f 175/325/609 176/326/610 189/339/611 188/338/612 
f 176/326/613 177/327/614 190/340/615 189/339/616 
f 177/327/617 178/328/618 191/341/619 190/340/620 
f 178/328/621 179/329/622 192/342/623 191/341/624 
f 179/329/625 180/330/626 193/343/627 192/342/628 
f 180/330/629 181/331/630 194/344/631 193/343/632 
f 181/331/633 169/319/634 182/332/635 194/344/636 
s off
f 171/348/637 170/347/638 195/346/639 
f 172/349/640 171/348/641 195/346/642 
f 173/350/643 172/349/644 195/346/645 
f 174/351/646 173/350/647 195/346/648 
f 175/352/649 174/351/650 195/346/651 
f 176/353/652 175/352/653 195/346/654 
f 177/354/655 176/353/656 195/346/657 
f 178/355/658 177/354/659 195/346/660 
f 179/356/661 178/355/662 195/346/663 
f 180/357/664 179/356/665 195/346/666 
f 181/358/667 180/357/668 195/346/669 
f 169/345/670 181/358/671 195/346/672 
f 183/361/673 184/362/674 196/360/675 
f 184/362/676 185/363/677 196/360/678 
f 185/363/679 186/364/680 196/360/681 
f 186/364/682 187/365/683 196/360/684 
f 187/365/685 188/366/686 196/360/687 
f 188/366/688 189/367/689 196/360/690 
f 189/367/691 190/368/692 196/360/693 
f 190/368/694 191/369/695 196/360/696 
f 191/369/697 192/370/698 196/360/699 
f 192/370/700 193/371/701 196/360/702 
f 193/371/703 194/372/704 196/360/705 
f 194/372/706 182/359/707 196/360/708 
f 198/374/709 197/375/710 138/264/711 140/373/712 
f 199/377/713 198/374/714 140/373/715 142/376/716 
f 200/378/717 199/377/718 142/376/719 144/261/720 
f 197/375/721 200/378/722 144/261/723 138/264/724 
f 197/375/725 198/374/726 199/377/727 200/378/728 
f 204/382/729 154/285/730 153/279/731 203/381/732 
f 152/311/733 202/380/734 151/280/735 201/379/736 
s 8
f 201/379/737 204/382/738 162/286/739 161/277/740 
s 32
f 203/381/741 152/311/742 168/304/743 165/278/744 
# 64 polygons - 24 triangles

#
# object MailboxFlag
#

v  2.5991 18.5907 5.0868
v  2.5991 18.5907 4.3298
v  2.5991 24.3164 5.0868
v  2.5991 24.3164 4.3298
v  2.6749 18.5907 5.0868
v  2.6749 18.5907 4.3298
v  2.6749 24.3164 5.0868
v  2.6749 24.3164 4.3298
v  2.5991 23.0103 4.3298
v  2.6749 23.0103 4.3298
v  2.5991 23.1669 3.1009
v  2.5991 24.1598 3.1009
v  2.6749 24.1598 3.1009
v  2.6749 23.1669 3.1009
# 14 vertices

vn -1.0000 -0.0000 -0.0000
vn -1.0000 -0.0000 -0.0000
vn -1.0000 -0.0000 -0.0000
vn -1.0000 -0.0000 -0.0000
vn -1.0000 -0.0000 0.0000
vn 1.0000 0.0000 -0.0000
vn 1.0000 0.0000 -0.0000
vn 1.0000 0.0000 -0.0000
vn 1.0000 0.0000 -0.0000
vn 1.0000 0.0000 0.0000
vn 0.0000 0.0000 -1.0000
vn 0.0000 0.0000 -1.0000
vn 0.0000 0.0000 -1.0000
vn 0.0000 0.0000 -1.0000
vn 0.0000 1.0000 0.0000
vn 0.0000 1.0000 0.0000
vn 0.0000 1.0000 0.0000
vn 0.0000 1.0000 0.0000
vn 0.0000 0.0000 1.0000
vn 0.0000 0.0000 1.0000
vn 0.0000 0.0000 1.0000
vn 0.0000 0.0000 1.0000
vn 0.0000 0.0000 -1.0000
vn 0.0000 0.0000 -1.0000
vn 0.0000 0.0000 -1.0000
vn 0.0000 0.0000 -1.0000
vn -1.0000 -0.0000 -0.0000
vn -1.0000 -0.0000 -0.0000
vn -1.0000 -0.0000 -0.0000
vn -1.0000 -0.0000 -0.0000
vn 0.0000 0.9920 -0.1264
vn 0.0000 0.9920 -0.1264
vn 0.0000 0.9920 -0.1264
vn 0.0000 0.9920 -0.1264
vn 1.0000 0.0000 -0.0000
vn 1.0000 0.0000 -0.0000
vn 1.0000 0.0000 -0.0000
vn 1.0000 0.0000 -0.0000
vn 0.0000 -0.9920 -0.1264
vn 0.0000 -0.9920 -0.1264
vn 0.0000 -0.9920 -0.1264
vn 0.0000 -0.9920 -0.1264
vn 0.0000 -1.0000 0.0000
vn 0.0000 -1.0000 0.0000
vn 0.0000 -1.0000 0.0000
vn 0.0000 -1.0000 0.0000
# 46 vertex normals

vt 0.2780 0.3152 0.0000
vt 0.9850 0.3152 0.0000
vt 0.9850 0.5009 0.0000
vt 0.7893 0.5009 0.0000
vt 0.9988 0.9366 0.0000
vt 0.0032 0.9962 0.0000
vt 0.0032 0.9400 0.0000
vt 0.1630 0.8775 0.0000
vt 0.7238 0.9398 0.0000
vt 0.7238 0.9963 0.0000
vt 0.0032 0.8775 0.0000
vt 0.0032 0.8213 0.0000
vt 0.0025 0.9366 0.0000
vt 0.0025 0.8804 0.0000
vt 0.2780 0.5009 0.0000
vt 0.4225 0.8775 0.0000
vt 0.4225 0.8213 0.0000
vt 0.6322 0.8213 0.0000
vt 0.6322 0.8775 0.0000
vt 0.9616 0.8023 0.0000
vt 0.8128 0.8023 0.0000
vt 0.9988 0.8804 0.0000
vt 0.8916 0.8213 0.0000
vt 0.1630 0.8213 0.0000
vt 0.9853 0.0021 0.0000
vt 0.9853 0.3102 0.0000
vt 0.2757 0.3102 0.0000
vt 0.0041 0.3102 0.0000
vt 0.0041 0.0021 0.0000
vt 0.2431 0.8103 0.0000
vt 0.0367 0.8103 0.0000
vt 0.8916 0.8775 0.0000
vt 0.8617 0.9396 0.0000
vt 0.8617 0.9965 0.0000
# 34 texture coords

g MailboxFlag
usemtl MailboxFlag
s 2
f 205/383/745 207/384/746 208/385/747 213/386/748 206/397/749 
s 4
f 209/407/750 210/408/751 214/409/752 212/410/753 211/411/754 
s 16
f 213/388/755 214/389/756 210/391/757 206/392/758 
s 32
f 208/390/759 207/393/760 211/394/761 212/406/762 
s 64
f 207/387/763 205/395/764 209/396/765 211/404/766 
s 16
f 216/398/767 217/399/768 218/400/769 215/401/770 
s off
f 213/386/771 208/385/772 216/402/773 215/403/774 
f 208/390/775 212/406/776 217/399/777 216/398/778 
f 212/410/779 214/409/780 218/412/781 217/413/782 
f 214/405/783 213/414/784 215/401/785 218/400/786 
f 210/391/787 209/415/788 205/416/789 206/392/790 
# 11 polygons

