# Blender 5.2.0 LTS
# www.blender.org
mtllib scene_gotowe.mtl
o Plane
v -4.000000 0.000000 4.000000
v 4.000000 0.000000 4.000000
v -4.000000 0.000000 -4.000000
v 4.000000 0.000000 -4.000000
v -4.000000 3.000000 4.000000
v 4.000000 3.000000 4.000000
v -4.000000 3.000000 -4.000000
v -4.057735 -0.057735 4.057735
v 4.000000 -0.070711 4.070711
v -4.070711 -0.070711 -4.000000
v 4.000000 -0.100000 -4.000000
v -4.070711 3.000000 4.070711
v 4.000000 3.000000 4.100000
v -4.100000 3.000000 -4.000000
vn -0.0000 1.0000 -0.0000
vn -0.0000 -0.0000 -1.0000
vn 1.0000 -0.0000 -0.0000
vn -0.0026 -1.0000 0.0026
vn -0.0026 -0.0069 1.0000
vn -1.0000 -0.0069 0.0026
vt -0.330006 0.362120
vt -0.330006 -2.768738
vt 2.800852 -2.768738
vt 2.800851 0.362120
vt 0.480432 1.938962
vt -2.650426 1.938961
vt -2.650426 0.764890
vt 0.480432 0.764890
vt 0.519568 0.725754
vt -2.611290 0.725754
vt -2.611290 -0.448318
vt 0.519568 -0.448318
vt -3.494905 0.406312
vt -0.341449 0.401256
vt -0.341449 3.559806
vt -3.499999 3.559767
vt 0.519529 1.978097
vt 0.519568 3.179893
vt -2.638982 3.179893
vt -2.633926 1.983219
vt 0.514473 3.184913
vt 0.519568 4.381586
vt -2.638982 4.381688
vt -2.638983 3.179892
vt 2.057273 3.532114
vt 0.508105 1.966635
vt 2.096409 3.532114
vt 0.844066 0.362120
vt 0.883202 0.362120
vt -2.638963 0.753427
vt 3.611290 -3.579175
vt 0.480433 -3.579175
vt 0.480433 -3.618311
vt 3.638963 -3.606849
vt 3.611290 -0.448318
vt 3.650426 -0.448318
vt 0.519568 0.764890
vt -2.650425 -0.448318
s 0
usemtl floor_grass
f 1/1/1 2/2/1 4/3/1 3/4/1
f 8/13/4 10/14/4 11/15/4 9/16/4
f 4/25/3 2/5/3 9/26/3 11/27/3
f 3/10/2 4/28/2 11/29/2 10/30/2
usemtl wall1_brick
f 2/5/2 1/6/2 5/7/2 6/8/2
f 1/9/3 3/10/3 7/11/3 5/12/3
f 9/17/5 13/18/5 12/19/5 8/20/5
f 8/21/6 12/22/6 14/23/6 10/24/6
f 5/31/1 7/32/1 14/33/1 12/34/1
f 6/35/1 5/31/1 12/34/1 13/36/1
f 2/5/3 6/8/3 13/37/3 9/26/3
f 7/11/2 3/10/2 10/30/2 14/38/2
