# Blender 5.1.0
# www.blender.org
mtllib triple_recycling_bin.mtl
o Triple_Recycling_Bin
v 1.000000 0.099957 -0.499612
v 1.000000 0.000000 -0.499612
v 1.000000 0.099957 0.500388
v 1.000000 0.000000 0.500388
v -1.000000 0.099957 -0.499612
v -1.000000 0.000000 -0.499612
v -1.000000 0.099957 0.500388
v -1.000000 0.000000 0.500388
v 0.333333 0.000000 -0.499612
v -0.333333 0.000000 -0.499612
v 0.333333 0.099957 0.500388
v -0.333333 0.099957 0.500388
v -0.333333 0.000000 0.500388
v 0.333333 0.000000 0.500388
v -0.333333 0.099957 -0.499612
v 0.333333 0.099957 -0.499612
v 0.352204 0.107635 0.517177
v 1.025900 0.107635 0.517177
v 1.025900 1.123424 0.517177
v 0.352204 1.123424 0.517177
v -1.025900 0.107635 0.517177
v -0.352204 0.107635 0.517177
v -0.352204 1.123424 0.517177
v -1.025900 1.123424 0.517177
v -0.336848 0.107635 0.517177
v 0.336848 0.107635 0.517177
v 0.336848 1.123424 0.517177
v -0.336848 1.123424 0.517177
v 1.025900 0.107635 0.513606
v 0.352204 0.107635 0.513606
v 0.352204 1.123424 0.513606
v 1.025900 1.123424 0.513606
v -0.352204 0.107635 0.513606
v -1.025900 0.107635 0.513606
v -1.025900 1.123424 0.513606
v -0.352204 1.123424 0.513606
v 0.336848 0.107635 0.513606
v -0.336848 0.107635 0.513606
v -0.336848 1.123424 0.513606
v 0.336848 1.123424 0.513606
v -0.551576 1.251689 0.168787
v -0.826527 1.251689 0.168787
v -0.826527 1.189992 0.345207
v -0.551576 1.189992 0.345207
v 0.166596 1.256934 0.153787
v -0.166596 1.256934 0.153787
v -0.166596 1.184747 0.360206
v 0.166596 1.184747 0.360206
v 0.344526 1.265710 0.128692
v 0.344526 1.220841 0.256997
v 0.344526 1.175971 0.385301
v 0.442962 1.265710 0.128692
v 0.935142 1.265710 0.128692
v 0.442962 1.220841 0.256997
v 0.935142 1.220841 0.256997
v 0.442962 1.175971 0.385301
v 0.935142 1.175971 0.385301
v -0.551576 1.093552 0.169029
v -0.826527 1.093552 0.169029
v -0.826527 1.093552 0.345450
v -0.551576 1.093552 0.345450
v 0.166596 1.090973 0.154030
v -0.166596 1.090973 0.154030
v -0.166596 1.090973 0.360449
v 0.166596 1.090973 0.360449
v -1.019826 1.080907 0.045000
v -0.358278 1.080907 0.045000
v -0.358278 1.080907 0.469478
v -1.019826 1.080907 0.469478
v -1.019826 0.116203 0.045000
v -0.358278 0.116203 0.045000
v -0.358278 0.116203 0.469478
v -1.019826 0.116203 0.469478
v 0.329113 1.081661 0.053347
v -0.329113 1.081661 0.053347
v -0.329113 1.081661 0.461131
v 0.329113 1.081661 0.461131
v 0.329113 0.116208 0.053347
v -0.329113 0.116208 0.053347
v -0.329113 0.116208 0.461131
v 0.329113 0.116208 0.461131
v 0.480388 1.077589 0.105086
v 0.614669 1.077589 0.019284
v 0.776733 1.077589 0.024373
v 0.904676 1.077589 0.118409
v 0.425180 1.077589 0.249005
v 0.949630 1.077589 0.265473
v 0.470133 1.077589 0.396069
v 0.598076 1.077589 0.490105
v 0.760140 1.077589 0.495194
v 0.894422 1.077589 0.409393
v 0.480388 0.116973 0.105086
v 0.614669 0.116973 0.019284
v 0.776733 0.116973 0.024373
v 0.904676 0.116973 0.118409
v 0.425180 0.116973 0.249005
v 0.949630 0.116973 0.265473
v 0.470133 0.116973 0.396069
v 0.598076 0.116973 0.490105
v 0.760140 0.116973 0.495194
v 0.894422 0.116973 0.409393
v -1.001872 1.140119 0.487819
v -1.033578 0.103957 -0.007701
v -0.344526 1.302012 0.024887
v -0.344526 1.310580 -0.025565
v -0.344526 1.306296 0.009160
v -0.344526 1.309432 -0.009306
v 0.344526 1.302012 0.024887
v 0.344526 1.310580 -0.025565
v 0.344526 1.306296 0.009160
v 0.344526 1.309432 -0.009306
v 0.442962 1.302012 0.024887
v 0.442962 1.310580 -0.025565
v 0.442962 1.306296 0.009160
v 0.442962 1.309432 -0.009306
v 0.547994 1.302012 0.024887
v 0.541398 1.310580 -0.025565
v 0.544696 1.306296 0.009160
v 0.542282 1.309432 -0.009306
v 0.642352 1.302012 0.024887
v 0.639834 1.310580 -0.025565
v 0.641093 1.306296 0.009160
v 0.640171 1.309432 -0.009306
v 0.737106 1.302012 0.024887
v 0.738270 1.310580 -0.025565
v 0.737688 1.306296 0.009160
v 0.738114 1.309432 -0.009306
v 0.830950 1.302012 0.024887
v 0.836706 1.310580 -0.025565
v 0.833828 1.306296 0.009160
v 0.835935 1.309432 -0.009306
v 0.935142 1.310580 -0.025565
v 0.935142 1.302012 0.024887
v 0.935142 1.309432 -0.009306
v 0.935142 1.306296 0.009160
v -1.001872 1.310580 -0.025565
v -1.001872 1.302012 0.024887
v -1.001872 1.309432 -0.009306
v -1.001872 1.306296 0.009160
v 1.029578 0.099957 -0.512401
v 1.029578 0.103957 -0.516401
v 1.033578 0.103957 -0.512401
v 1.029578 0.100491 -0.514398
v 1.031575 0.100491 -0.512401
v 1.031491 0.101010 -0.514314
v 1.031575 0.103957 -0.515866
v 1.029578 0.101960 -0.515866
v 1.031491 0.102044 -0.515347
v 1.033043 0.101960 -0.512401
v 1.033043 0.103957 -0.514398
v 1.032524 0.102044 -0.514314
v -1.029578 0.099957 -0.512401
v -1.033578 0.103957 -0.512401
v -1.029578 0.103957 -0.516401
v -1.031575 0.100491 -0.512401
v -1.029578 0.100491 -0.514398
v -1.031491 0.101010 -0.514314
v -1.033043 0.103957 -0.514398
v -1.033043 0.101960 -0.512401
v -1.032524 0.102044 -0.514314
v -1.029578 0.101960 -0.515866
v -1.031575 0.103957 -0.515866
v -1.031491 0.102044 -0.515347
v 1.029578 1.310580 -0.512401
v 1.033578 1.306315 -0.512401
v 1.029578 1.306580 -0.516401
v 1.031575 1.309962 -0.512401
v 1.029578 1.310094 -0.514398
v 1.031491 1.309492 -0.514314
v 1.033043 1.306399 -0.514398
v 1.033043 1.308396 -0.512401
v 1.032524 1.308390 -0.514314
v 1.029578 1.308626 -0.515866
v 1.031575 1.306496 -0.515866
v 1.031491 1.308458 -0.515347
v -1.033578 1.306315 -0.512401
v -1.029578 1.310580 -0.512401
v -1.029578 1.306580 -0.516401
v -1.032982 1.308413 -0.512401
v -1.032984 1.306400 -0.514364
v -1.032538 1.308394 -0.514302
v -1.029578 1.309986 -0.514364
v -1.031537 1.309950 -0.512401
v -1.031476 1.309510 -0.514303
v -1.031541 1.306495 -0.515807
v -1.029578 1.308543 -0.515807
v -1.031479 1.308434 -0.515363
v 1.000000 0.099957 0.006666
v 1.000000 0.099957 -0.010130
v 1.000000 0.099957 -0.024951
v 1.000000 0.099957 0.020967
v -0.344526 0.103957 -0.516401
v -0.341859 0.099957 -0.512401
v -0.344169 0.101957 -0.515865
v -0.343193 0.100493 -0.514401
v 0.341859 0.099957 -0.512401
v 0.344526 0.103957 -0.516401
v 0.343193 0.100493 -0.514401
v 0.344169 0.101957 -0.515865
v -0.344526 1.310580 -0.512401
v -0.344526 1.306580 -0.516401
v -0.344526 1.310044 -0.514401
v -0.344526 1.308580 -0.515865
v 0.344526 1.306580 -0.516401
v 0.344526 1.310580 -0.512401
v 0.344526 1.308580 -0.515865
v 0.344526 1.310044 -0.514401
v -0.341139 0.099957 0.509606
v -0.344526 0.103957 0.513606
v -0.342832 0.100493 0.511606
v -0.344072 0.101957 0.513070
v -1.029578 0.099957 0.509606
v -1.029578 0.103957 0.513606
v -1.033578 0.103957 0.509606
v -1.029578 0.100491 0.511603
v -1.031575 0.100491 0.509606
v -1.031491 0.101010 0.511518
v -1.031575 0.103957 0.513071
v -1.029578 0.101960 0.513071
v -1.031491 0.102044 0.512552
v -1.033043 0.101960 0.509606
v -1.033043 0.103957 0.511603
v -1.032524 0.102044 0.511518
v -0.344526 1.132422 0.509830
v -0.344526 1.127101 0.513606
v -0.344526 1.131226 0.511718
v -0.344526 1.129278 0.513100
v -1.029578 1.132422 0.509830
v -1.033578 1.128189 0.509606
v -1.029578 1.127101 0.513606
v -1.031575 1.131814 0.509759
v -1.029578 1.131271 0.511756
v -1.031491 1.130706 0.511606
v -1.033043 1.127604 0.511562
v -1.033043 1.130260 0.509677
v -1.032524 1.129612 0.511548
v -1.029578 1.129318 0.513142
v -1.031575 1.127204 0.513030
v -1.031491 1.129331 0.512582
v 1.033578 1.128263 0.509606
v 1.029578 1.132422 0.509830
v 1.029578 1.127101 0.513606
v 1.033043 1.130310 0.509677
v 1.033043 1.127654 0.511562
v 1.032524 1.129641 0.511548
v 1.029578 1.131257 0.511756
v 1.031575 1.131837 0.509759
v 1.031491 1.130716 0.511606
v 1.031575 1.127227 0.513030
v 1.029578 1.129304 0.513142
v 1.031491 1.129341 0.512582
v 1.033578 0.103957 0.509606
v 1.029578 0.103957 0.513606
v 1.029578 0.099957 0.509606
v 1.033043 0.103957 0.511603
v 1.033043 0.101960 0.509606
v 1.032524 0.102044 0.511518
v 1.029578 0.101960 0.513071
v 1.031575 0.103957 0.513071
v 1.031491 0.102044 0.512552
v 1.031575 0.100491 0.509606
v 1.029578 0.100491 0.511603
v 1.031491 0.101010 0.511518
v 0.344526 0.103957 0.513606
v 0.341139 0.099957 0.509606
v 0.344072 0.101957 0.513070
v 0.342832 0.100493 0.511606
v 0.344526 1.132422 0.509830
v 0.344526 1.127101 0.513606
v 0.344526 1.131226 0.511718
v 0.344526 1.129278 0.513100
v 1.033578 1.261869 0.127349
v 1.029578 1.265710 0.128692
v 1.033042 1.263790 0.128021
v 1.031578 1.265196 0.128512
v 1.029578 1.220841 0.256997
v 1.033578 1.217065 0.255676
v 1.031578 1.220335 0.256820
v 1.033042 1.218953 0.256337
v 1.033578 1.172195 0.383981
v 1.029578 1.175971 0.385301
v 1.033042 1.174083 0.384641
v 1.031578 1.175465 0.385124
v 0.935142 1.132422 0.509830
v 0.935142 1.127101 0.513606
v 0.935142 1.131226 0.511718
v 0.935142 1.129278 0.513100
v 0.835689 1.132422 0.509830
v 0.836706 1.127101 0.513606
v 0.836197 1.131226 0.511718
v 0.836570 1.129278 0.513100
v 0.737882 1.132422 0.509830
v 0.738270 1.127101 0.513606
v 0.738076 1.131226 0.511718
v 0.738218 1.129278 0.513100
v 0.640013 1.132422 0.509830
v 0.639834 1.127101 0.513606
v 0.639923 1.131226 0.511718
v 0.639858 1.129278 0.513100
v 0.542285 1.132422 0.509830
v 0.541398 1.127101 0.513606
v 0.541841 1.131226 0.511718
v 0.541517 1.129278 0.513100
v 0.442962 1.127101 0.513606
v 0.442962 1.132422 0.509830
v 0.442962 1.129278 0.513100
v 0.442962 1.131226 0.511718
v -1.001872 1.127101 0.513606
v -1.001872 1.132422 0.509830
v -1.001872 1.129278 0.513100
v -1.001872 1.131226 0.511718
v 1.033578 1.306305 -0.021290
v 1.029578 1.310580 -0.025565
v 1.033042 1.308442 -0.023428
v 1.031578 1.310007 -0.024993
v 1.029578 1.302012 0.024887
v 1.033578 1.299123 0.020815
v 1.031578 1.301625 0.024341
v 1.033042 1.300568 0.022851
v 1.029578 1.309432 -0.009306
v 1.033578 1.305324 -0.007701
v 1.031578 1.308882 -0.009091
v 1.033042 1.307378 -0.008504
v 1.029578 1.306296 0.009160
v 1.033578 1.302694 0.007702
v 1.031578 1.305814 0.008965
v 1.033042 1.304495 0.008431
v -1.033578 1.299123 0.020815
v -1.029578 1.302012 0.024887
v -1.033042 1.300568 0.022851
v -1.031578 1.301625 0.024341
v -1.029578 1.310580 -0.025565
v -1.033578 1.306305 -0.021290
v -1.031578 1.310007 -0.024993
v -1.033042 1.308442 -0.023428
v -1.029578 1.306296 0.009160
v -1.033578 1.302694 0.007702
v -1.031578 1.305814 0.008965
v -1.033042 1.304495 0.008431
v -1.029578 1.309432 -0.009306
v -1.033578 1.305324 -0.007701
v -1.031578 1.308882 -0.009091
v -1.033042 1.307378 -0.008504
v -1.033578 0.103957 -0.021291
v -1.031578 0.100493 0.007702
v -1.031578 0.100493 0.020814
v -1.033042 0.101957 -0.021291
v -1.033042 0.101957 -0.007701
v -1.033042 0.101957 0.007702
v -1.033042 0.101957 0.020814
v -1.029578 0.099957 -0.021291
v -1.029578 0.099957 -0.007701
v -1.029578 0.099957 0.007702
v -1.029578 0.099957 0.020814
v -1.033578 0.103957 0.020815
v -1.033578 0.103957 0.007702
v -1.031578 0.100493 -0.021291
v -1.031578 0.100493 -0.007701
v 1.000000 0.000000 0.020814
v 1.000000 0.000000 0.007700
v -0.333333 0.000000 0.007701
v -0.333333 0.000000 0.020814
v -1.000000 0.000000 0.007702
v -1.000000 0.000000 0.020814
v 1.033042 0.101957 -0.007701
v 1.033042 0.101957 -0.021292
v 1.033578 0.103957 0.007700
v 1.033578 0.103957 0.020814
v 0.333333 0.000000 0.007701
v 0.333333 0.000000 0.020814
v -0.333333 0.000000 -0.021291
v -0.333333 0.000000 -0.007701
v -1.000000 0.000000 -0.021291
v -1.000000 0.000000 -0.007701
v 1.033042 0.101957 0.020814
v 1.033042 0.101957 0.007700
v 0.333333 0.000000 -0.021291
v 0.333333 0.000000 -0.007701
v 1.031578 0.100493 -0.007701
v 1.031578 0.100493 -0.021292
v 1.031578 0.100493 0.020814
v 1.031578 0.100493 0.007700
v 1.029578 0.099957 0.020814
v 1.029578 0.099957 0.007700
v 1.000000 0.000000 -0.007701
v 1.000000 0.000000 -0.021292
v 1.029578 0.099957 -0.007701
v 1.029578 0.099957 -0.021292
v 1.033578 0.103957 -0.021292
v 1.033578 0.103957 -0.007701
v -1.000000 0.099957 -0.023623
v -1.000000 0.099957 -0.008119
v -1.000000 0.099957 0.009452
v -1.000000 0.099957 0.024411
v -1.001872 1.306580 -0.516401
v -1.001872 1.310580 -0.512401
v -1.001872 1.309989 -0.514366
v -1.001872 1.308545 -0.515810
v -1.001873 0.103957 -0.516401
v -1.001873 0.101960 -0.515866
v -1.001398 0.099957 -0.512401
v -1.001642 0.100491 -0.514398
v 0.935142 1.308619 -0.515866
v 0.935142 1.310580 -0.512401
v 0.935142 1.306580 -0.516401
v 0.935142 1.310087 -0.514399
v 0.836706 1.308613 -0.515866
v 0.738270 1.308606 -0.515866
v 0.639834 1.308600 -0.515866
v 0.541398 1.308593 -0.515865
v 0.442962 1.308586 -0.515865
v 0.836706 1.306580 -0.516401
v 0.738270 1.306580 -0.516401
v 0.639834 1.306580 -0.516401
v 0.541398 1.306580 -0.516401
v 0.442962 1.306580 -0.516401
v 0.442962 1.310580 -0.512401
v 0.541398 1.310580 -0.512401
v 0.639834 1.310580 -0.512401
v 0.738270 1.310580 -0.512401
v 0.836706 1.310580 -0.512401
v 0.836706 1.310080 -0.514399
v 0.738270 1.310073 -0.514399
v 0.639834 1.310066 -0.514400
v 0.541398 1.310058 -0.514400
v 0.442962 1.310051 -0.514400
v 0.935142 0.101959 -0.515866
v 0.836706 0.101959 -0.515866
v 0.738270 0.101959 -0.515866
v 0.639834 0.101958 -0.515866
v 0.541398 0.101958 -0.515865
v 0.442962 0.101957 -0.515865
v 0.935142 0.100492 -0.514399
v 0.836706 0.100492 -0.514399
v 0.738270 0.100492 -0.514399
v 0.639834 0.100492 -0.514400
v 0.541398 0.100492 -0.514400
v 0.442962 0.100493 -0.514400
v 0.442962 0.103957 -0.516401
v 0.541398 0.103957 -0.516401
v 0.639834 0.103957 -0.516401
v 0.738270 0.103957 -0.516401
v 0.836706 0.103957 -0.516401
v 0.935142 0.103957 -0.516401
v 0.935142 0.099957 -0.512401
v 0.836706 0.099957 -0.512401
v 0.738270 0.099957 -0.512401
v 0.639834 0.099957 -0.512401
v 0.541398 0.099957 -0.512401
v 0.442962 0.099957 -0.512401
v 0.541398 0.000000 -0.499612
v 0.442962 0.000000 -0.499612
v 0.442962 0.000000 0.007701
v 0.541398 0.000000 0.007701
v 0.442962 0.099957 0.509606
v 0.541398 0.099957 0.509606
v 0.541398 0.103957 0.513606
v 0.442962 0.103957 0.513606
v 0.442962 0.000000 0.020814
v 0.541398 0.000000 0.020814
v 0.442962 0.101957 0.513070
v 0.541398 0.101958 0.513070
v 0.442962 0.000000 0.500388
v 0.541398 0.000000 0.500388
v 0.442962 0.000000 -0.021291
v 0.541398 0.000000 -0.021292
v 0.442962 0.000000 -0.007701
v 0.541398 0.000000 -0.007701
v 0.442962 0.100493 0.511605
v 0.541398 0.100492 0.511605
v 0.935142 0.000000 -0.499612
v 0.836706 0.000000 -0.499612
v 0.738270 0.000000 -0.499612
v 0.641567 0.000000 -0.499612
v 0.641567 0.000000 0.007701
v 0.738270 0.000000 0.007701
v 0.836706 0.000000 0.007701
v 0.935142 0.000000 0.007700
v 0.641567 0.099957 0.509606
v 0.738269 0.099957 0.509606
v 0.836706 0.099957 0.509606
v 0.935142 0.099957 0.509606
v 0.935142 0.103957 0.513606
v 0.836706 0.103957 0.513606
v 0.738269 0.103957 0.513606
v 0.641567 0.103957 0.513606
v 0.641567 0.000000 0.020814
v 0.738270 0.000000 0.020814
v 0.836706 0.000000 0.020814
v 0.935142 0.000000 0.020814
v 0.641567 0.000000 0.500388
v 0.738269 0.000000 0.500388
v 0.836706 0.000000 0.500388
v 0.935142 0.000000 0.500388
v 0.641567 0.101958 0.513070
v 0.738269 0.101959 0.513071
v 0.836706 0.101959 0.513071
v 0.935142 0.101959 0.513071
v 0.641567 0.000000 -0.007701
v 0.738270 0.000000 -0.007701
v 0.836706 0.000000 -0.007701
v 0.935142 0.000000 -0.007701
v 0.641567 0.000000 -0.021292
v 0.738270 0.000000 -0.021292
v 0.836706 0.000000 -0.021292
v 0.935142 0.000000 -0.021292
v 0.641567 0.100492 0.511604
v 0.738269 0.100492 0.511604
v 0.836706 0.100492 0.511604
v 0.935142 0.100492 0.511603
v 0.935022 0.099957 -0.499612
v 0.935142 1.123424 0.517177
v 0.443087 0.099957 -0.499612
v 0.541705 0.099957 -0.499612
v 0.641548 0.099957 -0.499612
v 0.738328 0.099957 -0.499612
v 0.836946 0.099957 -0.499612
v 0.541705 0.099957 -0.512401
v 0.836946 0.099957 -0.512401
v 0.935445 0.099957 0.500388
v 0.835677 0.099957 0.500388
v 0.738078 0.099957 0.500388
v 0.641202 0.099957 0.500388
v 0.541434 0.099957 0.500388
v 0.443112 0.099957 0.500388
v 0.838855 1.123424 0.517177
v 0.742847 1.123424 0.517177
v 0.643347 1.123424 0.517177
v 0.540357 1.123424 0.517177
v 0.442603 1.123424 0.517177
v 0.935142 0.107635 0.517177
v 0.838854 0.107635 0.517177
v 0.742847 0.107635 0.517177
v 0.643347 0.107635 0.517177
v 0.540357 0.107635 0.517177
v 0.442603 0.107635 0.517177
v 0.540357 0.107635 0.513606
v 0.441865 0.107635 0.513606
v 0.935208 0.107635 0.513606
v 0.836622 0.107635 0.513606
v 0.740469 0.107635 0.513606
v 0.641362 0.107635 0.513606
v 0.935138 1.123424 0.513606
v 0.837449 1.123424 0.513606
v 0.739498 1.123424 0.513606
v 0.643706 1.123424 0.513606
v 0.541414 1.123424 0.513606
v 0.442778 1.123424 0.513606
v 0.584131 1.239655 0.203197
v 0.607516 1.249682 0.174525
v 0.442962 1.265710 0.128692
v 0.638230 1.256545 0.154900
v 0.674099 1.259998 0.145026
v 0.711855 1.259584 0.146211
v 0.747006 1.255337 0.158355
v 0.776157 1.247844 0.179780
v 0.797543 1.237296 0.209942
v 0.570682 1.215688 0.271732
v 0.571964 1.228564 0.234912
v 0.807422 1.225994 0.242262
v 0.806139 1.213117 0.279081
v 0.601948 1.193837 0.334215
v 0.580560 1.204386 0.304048
v 0.666249 1.182097 0.367782
v 0.631095 1.186345 0.355637
v 0.739876 1.185136 0.359093
v 0.704005 1.181683 0.368968
v 0.793975 1.202027 0.310793
v 0.770586 1.191999 0.339470
v 0.607514 1.090767 0.174769
v 0.584134 1.090767 0.203430
v 0.575410 1.088899 0.173886
v 0.674099 1.090767 0.145268
v 0.638232 1.090767 0.155140
v 0.648754 1.088827 0.126199
v 0.747004 1.090767 0.158595
v 0.711855 1.090767 0.146454
v 0.738040 1.088816 0.128898
v 0.797540 1.090767 0.210175
v 0.776160 1.090767 0.180025
v 0.808108 1.088868 0.181015
v 0.571960 1.090767 0.235165
v 0.570678 1.090767 0.271963
v 0.545612 1.088941 0.252742
v 0.806144 1.090767 0.279313
v 0.807425 1.090767 0.242516
v 0.832487 1.088897 0.261751
v 0.580564 1.090767 0.304304
v 0.601944 1.090767 0.334454
v 0.569857 1.088906 0.333253
v 0.631100 1.090767 0.355883
v 0.666249 1.090767 0.368025
v 0.639640 1.088833 0.385420
v 0.704005 1.090767 0.369210
v 0.739872 1.090767 0.359338
v 0.728904 1.088813 0.388414
v 0.770590 1.090767 0.339710
v 0.793970 1.090767 0.311048
v 0.802526 1.088862 0.340815
vn -0.0000 -0.0000 1.0000
vn -0.0000 -1.0000 -0.0000
vn -0.0000 -0.0000 -1.0000
vn -1.0000 -0.0000 -0.0000
vn -1.0000 -0.0006 -0.0000
vn -0.8660 -0.5000 -0.0000
vn -0.0000 1.0000 -0.0000
vn 1.0000 -0.0000 -0.0000
vn -0.0000 0.9439 0.3301
vn -0.0000 0.0015 1.0000
vn -0.0000 -0.0025 -1.0000
vn -0.0000 -0.0026 -1.0000
vn 0.0327 -0.9982 -0.0509
vn -0.0327 -0.9982 -0.0509
vn -0.0326 -0.9982 -0.0509
vn 0.0326 -0.9982 -0.0509
vn -0.0327 -0.9982 0.0509
vn -0.0326 -0.9982 0.0509
vn 0.0327 -0.9982 0.0509
vn 0.0326 -0.9982 0.0509
vn 0.0286 -0.9985 -0.0462
vn -0.0286 -0.9985 -0.0462
vn -0.0286 -0.9985 0.0462
vn 0.0286 -0.9985 0.0462
vn -0.9994 -0.0000 -0.0348
vn -0.8126 -0.0000 0.5828
vn -0.2628 -0.0000 -0.9649
vn -0.7714 -0.0000 -0.6363
vn -0.3235 -0.0000 0.9462
vn 0.7714 -0.0000 0.6363
vn 0.9994 -0.0000 0.0354
vn 0.8126 -0.0000 -0.5828
vn 0.3235 -0.0000 -0.9462
vn 0.2628 -0.0000 0.9649
vn -0.0000 0.9456 0.3253
vn -0.0000 0.9456 0.3252
vn -0.0000 0.9773 0.2120
vn -0.0000 0.9925 0.1224
vn -0.0000 1.0000 0.0023
vn -0.0000 0.9458 0.3247
vn -0.0000 0.9477 0.3191
vn -0.0000 0.9772 0.2125
vn -0.0000 0.9925 0.1226
vn -0.0000 0.9462 0.3236
vn -0.0000 0.9772 0.2122
vn -0.0000 0.9925 0.1225
vn -0.0000 0.9470 0.3213
vn -0.0000 0.9774 0.2116
vn -0.0000 0.9925 0.1222
vn -0.0000 0.9470 0.3214
vn -0.0000 0.9773 0.2117
vn -0.0000 0.9462 0.3237
vn -0.0000 0.9772 0.2121
vn -0.0000 0.9478 0.3190
vn -0.0000 0.9772 0.2123
vn 0.0161 -0.9999 -0.0032
vn 0.0048 -0.8660 -0.5000
vn 0.4179 -0.8067 -0.4179
vn 0.5001 -0.8660 -0.0011
vn 0.0048 -0.5000 -0.8660
vn 0.4178 -0.4178 -0.8067
vn 0.0056 -0.0005 -1.0000
vn 0.5003 -0.0005 -0.8658
vn 0.8658 -0.0005 -0.5003
vn 0.8067 -0.4178 -0.4179
vn 1.0000 -0.0006 -0.0012
vn 0.8660 -0.5001 -0.0010
vn -0.0171 -0.9999 -0.0011
vn -0.5001 -0.8660 -0.0011
vn -0.4179 -0.8067 -0.4179
vn -0.0153 -0.8668 -0.4984
vn -0.8660 -0.5001 -0.0011
vn -0.8067 -0.4178 -0.4179
vn -1.0000 -0.0005 -0.0012
vn -0.8621 -0.0005 -0.5067
vn -0.5067 -0.0005 -0.8621
vn -0.4178 -0.4178 -0.8067
vn -0.0191 -0.0006 -0.9998
vn -0.0154 -0.4998 -0.8660
vn 0.0063 1.0000 -0.0011
vn 0.5293 0.8484 -0.0010
vn 0.4527 0.7969 -0.4001
vn 0.0055 0.8709 -0.4915
vn 0.8784 0.4779 -0.0010
vn 0.8202 0.4045 -0.4045
vn 1.0000 0.0005 -0.0012
vn 0.8659 0.0005 -0.5003
vn 0.5003 0.0005 -0.8658
vn 0.4358 0.4088 -0.8018
vn 0.0056 0.0005 -1.0000
vn 0.0052 0.4952 -0.8688
vn -1.0000 0.0006 -0.0013
vn -0.8762 0.4819 -0.0010
vn -0.8240 0.3975 -0.4038
vn -0.8621 0.0005 -0.5067
vn -0.5312 0.8472 -0.0011
vn -0.4336 0.8034 -0.4082
vn -0.0203 0.9998 -0.0013
vn -0.0153 0.8593 -0.5113
vn -0.0150 0.5110 -0.8594
vn -0.4252 0.4055 -0.8092
vn -0.0191 0.0006 -0.9998
vn -0.5067 0.0005 -0.8621
vn -0.0116 -0.9998 0.0162
vn -0.0008 -0.8661 0.4999
vn -0.4179 -0.8067 0.4179
vn -0.5001 -0.8660 0.0011
vn -0.0008 -0.5003 0.8659
vn -0.4178 -0.4178 0.8067
vn -0.0588 -0.0381 0.9975
vn -0.5041 -0.0006 0.8636
vn -0.8646 -0.0006 0.5024
vn -0.8067 -0.4178 0.4179
vn -1.0000 -0.0006 0.0011
vn -0.8660 -0.5001 0.0010
vn -0.0194 0.9434 0.3310
vn -0.5118 0.8107 0.2844
vn -0.4117 0.6872 0.5986
vn -0.0147 0.7261 0.6875
vn -0.8682 0.4681 0.1646
vn -0.7768 0.3644 0.5135
vn -1.0000 0.0006 0.0013
vn -0.8645 0.0005 0.5026
vn -0.5041 0.0005 0.8637
vn -0.4073 0.3400 0.8476
vn -0.0680 0.0018 0.9977
vn -0.0145 0.4097 0.9121
vn 1.0000 0.0002 0.0012
vn 0.8646 0.4733 0.1689
vn 0.7729 0.3672 0.5174
vn 0.8645 0.0005 0.5026
vn 0.5037 0.8144 0.2882
vn 0.4031 0.6885 0.6029
vn 0.0059 0.9427 0.3336
vn 0.0045 0.7248 0.6889
vn 0.0045 0.4111 0.9116
vn 0.4031 0.3419 0.8489
vn 0.0894 0.0075 0.9960
vn 0.5041 0.0004 0.8636
vn 1.0000 -0.0006 0.0011
vn 0.8646 -0.0006 0.5025
vn 0.8067 -0.4178 0.4179
vn 0.8660 -0.5001 0.0011
vn 0.5041 -0.0006 0.8636
vn 0.4178 -0.4178 0.8067
vn 0.0896 -0.0082 0.9959
vn 0.0048 -0.5000 0.8660
vn 0.0048 -0.8660 0.5000
vn 0.4179 -0.8067 0.4179
vn 0.0163 -0.9999 0.0033
vn 0.5001 -0.8660 0.0011
vn -0.0160 -0.9999 -0.0000
vn -0.5000 -0.8660 -0.0000
vn 1.0000 -0.0006 -0.0000
vn 0.8660 -0.5000 -0.0000
vn -0.0000 -0.0006 -1.0000
vn -0.0000 -0.5006 -0.8657
vn -0.0000 -0.5000 -0.8660
vn -0.0000 -0.8660 -0.5000
vn -0.0000 -0.9994 -0.0354
vn -0.0000 -0.9993 -0.0364
vn -0.0000 1.0000 -0.0012
vn -0.0000 0.8669 -0.4986
vn -0.0000 0.8660 -0.5001
vn -0.0000 0.4996 -0.8663
vn -0.0000 0.4999 -0.8661
vn -0.0000 0.0006 -1.0000
vn 0.8658 -0.5004 -0.0000
vn 0.5000 -0.8660 -0.0000
vn 0.0173 -0.9999 -0.0000
vn -0.0000 -0.5003 -0.8659
vn -0.0000 -0.8661 -0.4999
vn -0.0000 -0.9993 -0.0367
vn -0.0000 -0.8661 -0.5000
vn -0.0000 1.0000 -0.0013
vn -0.0001 0.8622 -0.5066
vn -0.0001 0.5066 -0.8622
vn -0.0000 0.8644 -0.5029
vn -0.0000 0.5029 -0.8644
vn -0.0000 -0.0315 0.9995
vn -0.0000 -0.5000 0.8660
vn -0.0000 -0.8658 0.5004
vn -0.0000 -0.9988 0.0483
vn -0.0000 0.9427 0.3335
vn 0.0001 0.7211 0.6928
vn 0.0001 0.4160 0.9094
vn -0.0000 0.0864 0.9963
vn -0.0000 -0.0944 0.9955
vn -0.0000 -0.4999 0.8661
vn -0.0000 -0.8661 0.4999
vn -0.0000 -0.9987 0.0507
vn -0.0000 -0.0211 0.9998
vn -0.0000 -0.8660 0.5000
vn -0.0000 -0.9988 0.0480
vn -0.0000 0.9422 0.3349
vn -0.0000 0.9431 0.3326
vn -0.0000 0.7209 0.6930
vn -0.0000 0.7210 0.6929
vn -0.0000 0.4162 0.9093
vn -0.0000 0.4163 0.9092
vn -0.0000 0.0197 0.9998
vn -0.0000 0.0872 0.9962
vn -0.0000 0.9432 0.3324
vn -0.0000 0.0289 0.9996
vn 0.0058 0.9439 0.3301
vn 0.5020 0.8164 0.2856
vn 0.8657 0.4725 0.1653
vn 1.0000 0.0004 0.0001
vn 0.0057 0.9439 0.3301
vn 0.5017 0.8166 0.2855
vn 0.5051 0.8147 0.2849
vn 0.8671 0.4703 0.1644
vn 0.8692 0.4668 0.1632
vn -0.0000 0.9423 0.3349
vn -0.0002 0.7228 0.6910
vn -0.0002 0.4139 0.9103
vn -0.0000 0.0849 0.9964
vn -0.0000 0.9429 0.3329
vn -0.0000 0.0863 0.9963
vn -0.0000 0.9426 0.3340
vn -0.0000 0.7207 0.6932
vn -0.0000 0.4161 0.9093
vn -0.0000 0.0865 0.9963
vn -0.0000 0.0859 0.9963
vn -0.0000 0.9429 0.3330
vn -0.0000 0.0855 0.9963
vn 0.0063 1.0000 0.0023
vn 0.0055 0.9925 0.1224
vn 0.4836 0.8687 0.1073
vn 0.5283 0.8491 0.0018
vn 0.8537 0.5168 0.0640
vn 0.8779 0.4788 0.0010
vn 1.0000 0.0006 0.0001
vn 1.0000 0.0006 -0.0000
vn 0.0054 0.9772 0.2121
vn 0.4785 0.8581 0.1863
vn 0.8504 0.5141 0.1116
vn 0.0058 0.9469 0.3215
vn 0.5043 0.8176 0.2779
vn 0.8686 0.4691 0.1596
vn 1.0000 0.0002 0.0001
vn -0.0193 0.9445 0.3280
vn -0.0172 0.9771 0.2120
vn -0.4785 0.8581 0.1863
vn -0.5110 0.8119 0.2821
vn -0.8505 0.5140 0.1116
vn -0.8679 0.4693 0.1631
vn -1.0000 0.0006 0.0001
vn -1.0000 0.0006 0.0002
vn -0.0174 0.9923 0.1224
vn -0.4836 0.8687 0.1073
vn -0.8537 0.5168 0.0640
vn -0.0203 0.9998 0.0023
vn -0.5302 0.8479 0.0018
vn -0.8757 0.4828 0.0009
vn -1.0000 0.0006 -0.0000
vn 0.0164 -0.9999 0.0001
vn 0.0164 -0.9999 -0.0000
vn 0.0172 -0.9999 -0.0000
vn -0.8661 -0.5000 -0.0000
vn -0.0173 -0.9999 -0.0000
vn -0.0000 -0.9992 -0.0388
vn -0.0000 1.0000 -0.0011
vn -0.0000 -0.0954 0.9954
vn -0.0000 -0.9989 0.0468
vn -0.8658 -0.5004 -0.0000
vn -0.5004 -0.8658 -0.0000
vn 0.5004 -0.8658 -0.0000
vn -0.0000 0.4958 -0.8684
vn -0.0000 0.8704 -0.4924
vn -0.0000 0.4984 -0.8669
vn -0.0000 0.4979 -0.8672
vn -0.0000 0.4972 -0.8677
vn -0.0000 0.4965 -0.8681
vn -0.0000 0.8677 -0.4971
vn -0.0000 0.8683 -0.4961
vn -0.0000 0.8690 -0.4949
vn -0.0000 0.8696 -0.4938
vn -0.0000 -0.9980 -0.0635
vn -0.0000 -0.9993 -0.0362
vn -0.0000 -0.9998 -0.0195
vn -0.0000 -0.8658 -0.5003
vn -0.0000 -0.9993 -0.0363
vn -0.0001 -0.0006 -1.0000
vn -0.0000 -0.4999 -0.8661
vn -0.0000 -0.5003 -0.8658
vn -0.0000 -0.5000 0.8661
vn -0.0000 -0.0938 0.9956
vn -0.0000 -0.8661 0.5000
vn -0.0000 -0.8665 0.4992
vn -0.0000 -0.9989 0.0477
vn -0.0000 -0.0942 0.9956
vn -0.0000 -0.5003 0.8659
vn -0.0000 -0.0939 0.9956
vn -0.0000 -0.5003 0.8658
vn -0.0000 -0.0934 0.9956
vn -0.0000 -0.8659 0.5003
vn -0.0000 -0.9989 0.0476
vn 0.0555 -0.9948 0.0856
vn 0.0916 -0.9952 0.0359
vn 0.0739 -0.9954 0.0609
vn -0.0026 -0.9945 0.1046
vn 0.0544 -0.9948 0.0865
vn 0.0261 -0.9951 0.0959
vn -0.0606 -0.9947 0.0836
vn -0.0040 -0.9945 0.1046
vn -0.0323 -0.9950 0.0945
vn -0.0958 -0.9949 0.0301
vn -0.0617 -0.9947 0.0827
vn -0.0790 -0.9953 0.0567
vn 0.0920 -0.9952 0.0345
vn 0.0940 -0.9952 -0.0280
vn 0.0934 -0.9956 0.0033
vn -0.0942 -0.9949 -0.0353
vn -0.0962 -0.9950 0.0286
vn -0.0956 -0.9954 -0.0034
vn 0.0936 -0.9952 -0.0294
vn 0.0607 -0.9948 -0.0815
vn 0.0775 -0.9954 -0.0556
vn 0.0597 -0.9948 -0.0824
vn 0.0040 -0.9945 -0.1045
vn 0.0321 -0.9951 -0.0938
vn 0.0026 -0.9945 -0.1045
vn -0.0551 -0.9946 -0.0877
vn -0.0263 -0.9950 -0.0965
vn -0.0563 -0.9946 -0.0868
vn -0.0937 -0.9949 -0.0367
vn -0.0752 -0.9952 -0.0620
vn -0.8915 0.0007 0.4529
vn -0.7110 0.0011 0.7032
vn -0.7109 0.0011 0.7033
vn -0.1788 0.0015 0.9839
vn -0.1789 0.0014 0.9839
vn -0.4603 0.0013 0.8878
vn 0.4667 -0.0022 -0.8844
vn 0.1818 -0.0026 -0.9833
vn 0.1814 -0.0026 -0.9834
vn -0.4087 -0.0023 -0.9127
vn -0.1183 -0.0026 -0.9930
vn -0.1185 -0.0026 -0.9930
vn -0.9828 -0.0004 -0.1847
vn -0.9914 0.0002 0.1309
vn -0.9914 0.0002 0.1310
vn -0.8655 -0.0011 -0.5009
vn -0.8655 -0.0011 -0.5010
vn -0.6707 -0.0018 -0.7417
vn 0.6626 0.0011 0.7489
vn 0.6627 0.0011 0.7489
vn 0.8588 0.0008 0.5123
vn 0.9933 -0.0003 -0.1155
vn 0.9798 0.0003 0.1997
vn 0.9798 0.0003 0.1998
vn 0.1164 0.0014 0.9932
vn 0.4028 0.0013 0.9153
vn 0.7191 -0.0016 -0.6949
vn 0.8976 -0.0010 -0.4407
vn 0.8977 -0.0010 -0.4407
vn 0.0743 -0.9954 0.0610
vn 0.0263 -0.9950 0.0962
vn 0.0937 -0.9956 0.0032
vn -0.0327 -0.9950 0.0948
vn -0.0794 -0.9952 0.0569
vn -0.0960 -0.9954 -0.0033
vn 0.0779 -0.9954 -0.0556
vn -0.0755 -0.9952 -0.0624
vn 0.0322 -0.9950 -0.0941
vn -0.0269 -0.9949 -0.0967
vt 0.949985 0.388417
vt 0.966480 0.388417
vt 0.966480 0.498429
vt 0.949985 0.498429
vt 0.829499 0.611626
vt 0.829499 0.603460
vt 0.831438 0.603460
vt 0.831438 0.611626
vt 0.831438 0.359810
vt 0.831438 0.443749
vt 0.829499 0.443749
vt 0.829499 0.359810
vt 0.949985 0.883472
vt 0.966480 0.883472
vt 0.966480 0.901583
vt 0.949985 0.901562
vt 0.563464 0.663972
vt 0.589933 0.663972
vt 0.589932 0.961384
vt 0.563464 0.961384
vt 0.893374 0.527687
vt 0.893374 0.541491
vt 0.833150 0.541491
vt 0.833150 0.527687
vt 0.966480 0.576974
vt 0.949985 0.577568
vt 0.893374 0.359810
vt 0.893374 0.443749
vt 0.833150 0.443749
vt 0.833149 0.359810
vt 0.745984 0.003375
vt 0.943234 0.003375
vt 0.943234 0.300787
vt 0.745984 0.300787
vt 0.563465 0.359810
vt 0.760715 0.359810
vt 0.760715 0.657222
vt 0.563465 0.657222
vt 0.949985 0.663447
vt 0.966480 0.663448
vt 0.966480 0.773459
vt 0.949985 0.773459
vt 0.949985 0.579732
vt 0.966480 0.579443
vt 0.966480 0.582342
vt 0.949985 0.582273
vt 0.648850 0.003421
vt 0.651472 0.003375
vt 0.651474 0.003727
vt 0.648860 0.003772
vt 0.949985 0.168393
vt 0.966480 0.168393
vt 0.966480 0.179046
vt 0.949985 0.179096
vt 0.949985 0.278406
vt 0.966480 0.278406
vt 0.973231 0.688619
vt 0.973232 0.482621
vt 0.973957 0.482621
vt 0.973955 0.688619
vt 0.980711 0.139999
vt 0.980711 0.003375
vt 0.981435 0.003375
vt 0.981435 0.139999
vt 0.973235 0.139999
vt 0.973235 0.121593
vt 0.973959 0.121607
vt 0.973959 0.139999
vt 0.988186 0.482620
vt 0.988186 0.345997
vt 0.988910 0.345997
vt 0.988910 0.482620
vt 0.980711 0.482621
vt 0.980711 0.345997
vt 0.981435 0.345997
vt 0.981435 0.482621
vt 0.988186 0.139998
vt 0.988910 0.139998
vt 0.973233 0.464288
vt 0.973957 0.464252
vt 0.988186 0.688619
vt 0.988910 0.688619
vt 0.973233 0.345997
vt 0.973958 0.345997
vt 0.988186 0.003375
vt 0.988910 0.003375
vt 0.980711 0.688619
vt 0.981435 0.688619
vt 0.140469 0.201885
vt 0.140054 0.235162
vt 0.095455 0.235460
vt 0.095787 0.202925
vt 0.049954 0.235517
vt 0.050051 0.202639
vt 0.930625 0.446719
vt 0.930625 0.499660
vt 0.900177 0.499660
vt 0.900177 0.446719
vt 0.918694 0.412769
vt 0.900125 0.412750
vt 0.210651 0.805301
vt 0.210651 0.869788
vt 0.178530 0.869788
vt 0.178530 0.805301
vt 0.918694 0.533610
vt 0.900125 0.533628
vt 0.196621 0.765370
vt 0.178472 0.765350
vt 0.918746 0.359828
vt 0.900177 0.359810
vt 0.196621 0.909718
vt 0.178472 0.909739
vt 0.196694 0.700883
vt 0.178544 0.700863
vt 0.296471 0.729234
vt 0.296478 0.769478
vt 0.278219 0.797839
vt 0.278220 0.700863
vt 0.271469 0.785519
vt 0.271469 0.822595
vt 0.217402 0.822595
vt 0.217402 0.785519
vt 0.322296 0.769508
vt 0.340559 0.797867
vt 0.322312 0.729259
vt 0.340559 0.700876
vt 0.171721 0.823348
vt 0.093129 0.823348
vt 0.093129 0.700863
vt 0.171721 0.700863
vt 0.271469 0.700863
vt 0.271469 0.724653
vt 0.217402 0.724653
vt 0.217402 0.700863
vt 0.271469 0.761729
vt 0.217402 0.761729
vt 0.139006 0.904112
vt 0.139017 0.854409
vt 0.154100 0.830108
vt 0.154100 0.928400
vt 0.108223 0.854387
vt 0.093129 0.830098
vt 0.108213 0.904090
vt 0.093129 0.928391
vt 0.862037 0.722797
vt 0.862037 0.762741
vt 0.767466 0.762741
vt 0.767466 0.722797
vt 0.862037 0.658321
vt 0.767466 0.658321
vt 0.862037 0.827218
vt 0.767466 0.827218
vt 0.862037 0.618377
vt 0.767466 0.618377
vt 0.086379 0.727951
vt 0.086379 0.741238
vt 0.003375 0.741238
vt 0.003375 0.727951
vt 0.086379 0.700863
vt 0.086379 0.714632
vt 0.003375 0.714632
vt 0.003375 0.700863
vt 0.086379 0.754959
vt 0.003375 0.754958
vt 0.086379 0.782738
vt 0.086379 0.796057
vt 0.003375 0.796057
vt 0.003375 0.782738
vt 0.086379 0.809345
vt 0.086379 0.823065
vt 0.003375 0.823065
vt 0.003375 0.809345
vt 0.086379 0.768969
vt 0.003375 0.768969
vt 0.086379 0.837075
vt 0.003375 0.837075
vt 0.063258 0.940486
vt 0.003375 0.940486
vt 0.003375 0.843826
vt 0.063258 0.843826
vt 0.317010 0.882341
vt 0.293036 0.875656
vt 0.278219 0.856681
vt 0.278219 0.832663
vt 0.293036 0.812777
vt 0.317009 0.804618
vt 0.340983 0.811302
vt 0.355800 0.830278
vt 0.355800 0.854296
vt 0.340983 0.874182
vt 0.177471 0.682263
vt 0.018330 0.682972
vt 0.066345 0.625324
vt 0.127309 0.624716
vt 0.177311 0.465159
vt 0.182723 0.465160
vt 0.182832 0.682237
vt 0.188941 0.465163
vt 0.188986 0.682216
vt 0.194352 0.465167
vt 0.194324 0.682218
vt 0.177632 0.235240
vt 0.183112 0.235271
vt 0.189400 0.235309
vt 0.194865 0.235345
vt 0.178074 0.202062
vt 0.183528 0.202127
vt 0.189798 0.202191
vt 0.195260 0.202241
vt 0.178365 0.166948
vt 0.183785 0.168104
vt 0.190021 0.168965
vt 0.195449 0.169298
vt 0.178652 0.135739
vt 0.184042 0.136183
vt 0.190242 0.136519
vt 0.195641 0.136657
vt 0.178784 0.104397
vt 0.184177 0.104224
vt 0.190374 0.104106
vt 0.195766 0.104073
vt 0.178901 0.073340
vt 0.184297 0.072422
vt 0.190491 0.071762
vt 0.195874 0.071538
vt 0.179190 0.038908
vt 0.184573 0.038976
vt 0.190751 0.039048
vt 0.196117 0.039107
vt 0.126998 0.534116
vt 0.131751 0.406006
vt 0.131636 0.294836
vt 0.735491 0.351412
vt 0.735820 0.351445
vt 0.735795 0.351746
vt 0.735492 0.351742
vt 0.736148 0.351518
vt 0.736012 0.351809
vt 0.736487 0.351629
vt 0.736313 0.351993
vt 0.736005 0.352283
vt 0.735834 0.351965
vt 0.735618 0.352429
vt 0.735534 0.352078
vt 0.734518 0.006729
vt 0.734523 0.006400
vt 0.734826 0.006400
vt 0.734843 0.006699
vt 0.734568 0.006066
vt 0.734865 0.006181
vt 0.734656 0.005718
vt 0.735036 0.005867
vt 0.735338 0.006155
vt 0.735039 0.006334
vt 0.735508 0.006516
vt 0.735171 0.006625
vt 0.350210 0.008299
vt 0.350210 0.007648
vt 0.350800 0.007635
vt 0.350841 0.008225
vt 0.350286 0.006975
vt 0.350872 0.007186
vt 0.350428 0.006276
vt 0.351151 0.006546
vt 0.351757 0.007067
vt 0.351209 0.007491
vt 0.352157 0.007764
vt 0.351475 0.008056
vt 0.348253 0.692533
vt 0.348103 0.691822
vt 0.348676 0.691619
vt 0.348970 0.692250
vt 0.348024 0.691159
vt 0.348601 0.691169
vt 0.348023 0.690522
vt 0.348649 0.690600
vt 0.349278 0.690762
vt 0.349011 0.691311
vt 0.349931 0.691009
vt 0.349573 0.691718
vt 0.567613 0.010250
vt 0.567288 0.010243
vt 0.567286 0.009944
vt 0.567587 0.009925
vt 0.566954 0.010193
vt 0.567068 0.009891
vt 0.566609 0.010107
vt 0.566756 0.009731
vt 0.567043 0.009423
vt 0.567233 0.009728
vt 0.567417 0.009254
vt 0.567523 0.009596
vt 0.011455 0.692098
vt 0.011424 0.692758
vt 0.010757 0.692787
vt 0.010752 0.692168
vt 0.011240 0.693427
vt 0.010603 0.693233
vt 0.010897 0.694112
vt 0.010137 0.693795
vt 0.009553 0.693227
vt 0.010244 0.692915
vt 0.009250 0.692511
vt 0.009995 0.692316
vt 0.009307 0.004745
vt 0.009661 0.005404
vt 0.009033 0.005609
vt 0.008563 0.005072
vt 0.009860 0.006055
vt 0.009195 0.006044
vt 0.009909 0.006710
vt 0.009201 0.006658
vt 0.008444 0.006527
vt 0.008681 0.005930
vt 0.007708 0.006353
vt 0.007996 0.005642
vt 0.567303 0.352588
vt 0.566914 0.352445
vt 0.567082 0.352125
vt 0.567385 0.352235
vt 0.566604 0.352156
vt 0.566906 0.351972
vt 0.566430 0.351789
vt 0.566770 0.351678
vt 0.567103 0.351601
vt 0.567124 0.351905
vt 0.567430 0.351567
vt 0.567429 0.351897
vt 0.949985 0.087091
vt 0.966480 0.086920
vt 0.966480 0.089280
vt 0.949985 0.089255
vt 0.648878 0.004470
vt 0.648869 0.004121
vt 0.651477 0.004078
vt 0.651480 0.004428
vt 0.650088 0.353059
vt 0.650088 0.352711
vt 0.652677 0.352711
vt 0.652678 0.353059
vt 0.739205 0.236112
vt 0.739233 0.252743
vt 0.738883 0.252743
vt 0.738856 0.236054
vt 0.738532 0.252743
vt 0.738507 0.235891
vt 0.738182 0.252743
vt 0.738158 0.235668
vt 0.358722 0.235499
vt 0.358755 0.202458
vt 0.359450 0.202458
vt 0.359416 0.235501
vt 0.360145 0.202458
vt 0.360109 0.235503
vt 0.360843 0.202457
vt 0.360803 0.235506
vt 0.367594 0.651491
vt 0.556654 0.651492
vt 0.556667 0.651814
vt 0.367594 0.651817
vt 0.556682 0.652135
vt 0.367594 0.652143
vt 0.556695 0.652457
vt 0.367594 0.652468
vt 0.556672 0.004363
vt 0.367612 0.004352
vt 0.367612 0.004027
vt 0.556685 0.004038
vt 0.367612 0.003700
vt 0.556700 0.003711
vt 0.367612 0.003375
vt 0.556714 0.003386
vt 0.654960 0.353052
vt 0.654958 0.352705
vt 0.654956 0.352358
vt 0.654954 0.352013
vt 0.736016 0.011112
vt 0.735669 0.011136
vt 0.735324 0.011197
vt 0.734984 0.011258
vt 0.738393 0.120766
vt 0.738048 0.120831
vt 0.737704 0.120999
vt 0.737362 0.121227
vt 0.349239 0.681780
vt 0.349910 0.681841
vt 0.350581 0.681902
vt 0.351259 0.681965
vt 0.357348 0.465720
vt 0.358034 0.465734
vt 0.358720 0.465749
vt 0.359407 0.465764
vt 0.564468 0.121473
vt 0.564811 0.121553
vt 0.565152 0.121763
vt 0.565490 0.122048
vt 0.010597 0.683259
vt 0.009863 0.683303
vt 0.009073 0.683352
vt 0.008336 0.683397
vt 0.528483 0.166035
vt 0.367603 0.166030
vt 0.367603 0.165705
vt 0.528503 0.165708
vt 0.367603 0.165378
vt 0.528570 0.165381
vt 0.367603 0.165053
vt 0.528666 0.165062
vt 0.367594 0.489814
vt 0.528474 0.489818
vt 0.528490 0.490145
vt 0.367594 0.490139
vt 0.528553 0.490471
vt 0.367594 0.490465
vt 0.528645 0.490790
vt 0.367594 0.490790
vt 0.564811 0.336214
vt 0.565160 0.336188
vt 0.565510 0.336161
vt 0.565858 0.336136
vt 0.563499 0.236107
vt 0.563847 0.236033
vt 0.564194 0.235827
vt 0.564542 0.235545
vt 0.005680 0.202486
vt 0.005672 0.235504
vt 0.004924 0.235504
vt 0.004929 0.202485
vt 0.004124 0.235504
vt 0.004126 0.202484
vt 0.003375 0.235505
vt 0.003375 0.202484
vt 0.005737 0.465882
vt 0.004994 0.465891
vt 0.004199 0.465899
vt 0.003456 0.465908
vt 0.052326 0.005428
vt 0.052318 0.004746
vt 0.052309 0.004061
vt 0.052301 0.003375
vt 0.143281 0.006511
vt 0.097685 0.005699
vt 0.097694 0.005006
vt 0.143300 0.005819
vt 0.097702 0.004313
vt 0.143319 0.005121
vt 0.097710 0.003619
vt 0.143339 0.004418
vt 0.007508 0.037001
vt 0.006773 0.036962
vt 0.005984 0.036920
vt 0.005250 0.036881
vt 0.006596 0.070105
vt 0.005851 0.069919
vt 0.005054 0.069778
vt 0.004306 0.069716
vt 0.006139 0.103025
vt 0.005386 0.102952
vt 0.004581 0.102895
vt 0.003827 0.102869
vt 0.005874 0.136088
vt 0.005119 0.136113
vt 0.004313 0.136130
vt 0.003558 0.136134
vt 0.005729 0.169056
vt 0.004975 0.169204
vt 0.004170 0.169311
vt 0.003417 0.169349
vt 0.196545 0.008203
vt 0.191249 0.008129
vt 0.191171 0.007447
vt 0.196359 0.007529
vt 0.190933 0.006769
vt 0.195838 0.006840
vt 0.190598 0.006093
vt 0.195123 0.006145
vt 0.185076 0.007990
vt 0.185121 0.007305
vt 0.185215 0.006634
vt 0.185341 0.005974
vt 0.179697 0.007863
vt 0.179852 0.007181
vt 0.180240 0.006507
vt 0.180769 0.005837
vt 0.177523 0.691341
vt 0.182885 0.691317
vt 0.182919 0.692001
vt 0.177660 0.692022
vt 0.183003 0.692674
vt 0.178030 0.692704
vt 0.183119 0.693338
vt 0.178536 0.693380
vt 0.189061 0.691243
vt 0.188979 0.691923
vt 0.188737 0.692601
vt 0.188397 0.693275
vt 0.194348 0.691177
vt 0.194163 0.691850
vt 0.193644 0.692538
vt 0.192929 0.693235
vt 0.655578 0.347061
vt 0.733868 0.346605
vt 0.652677 0.352016
vt 0.652677 0.352364
vt 0.650089 0.352363
vt 0.650089 0.352015
vt 0.568461 0.346740
vt 0.647859 0.347044
vt 0.647887 0.352011
vt 0.646633 0.003510
vt 0.646652 0.003856
vt 0.646670 0.004201
vt 0.646688 0.004544
vt 0.367612 0.976252
vt 0.367611 0.961403
vt 0.556713 0.961392
vt 0.556714 0.976241
vt 0.367608 0.086133
vt 0.367608 0.083711
vt 0.556511 0.083722
vt 0.556098 0.086144
vt 0.734863 0.335895
vt 0.737010 0.336064
vt 0.732855 0.011614
vt 0.654196 0.009379
vt 0.653768 0.004426
vt 0.367594 0.574269
vt 0.556652 0.574269
vt 0.367600 0.760186
vt 0.367594 0.656825
vt 0.556696 0.656814
vt 0.556702 0.760176
vt 0.354851 0.038342
vt 0.949985 0.003375
vt 0.966480 0.003375
vt 0.966480 0.081703
vt 0.949985 0.082307
vt 0.651607 0.009400
vt 0.648683 0.009431
vt 0.569022 0.014930
vt 0.566990 0.123352
vt 0.555523 0.567648
vt 0.367594 0.567648
vt 0.367606 0.868534
vt 0.556708 0.868523
vt 0.736002 0.234242
vt 0.735245 0.122681
vt 0.566092 0.234244
vt 0.367597 0.382095
vt 0.367600 0.273748
vt 0.368178 0.274956
vt 0.368175 0.380888
vt 0.528477 0.382100
vt 0.527899 0.383307
vt 0.368175 0.383303
vt 0.368172 0.489235
vt 0.527899 0.380893
vt 0.527896 0.489240
vt 0.058746 0.294942
vt 0.058771 0.406173
vt 0.528480 0.273753
vt 0.527902 0.274960
vt 0.065006 0.534473
vt 0.528474 0.485461
vt 0.527905 0.166613
vt 0.368181 0.166608
vt 0.051953 0.037358
vt 0.528483 0.180884
vt 0.527904 0.180884
vt 0.367600 0.258270
vt 0.368179 0.258443
vt 0.368178 0.272541
vt 0.527902 0.272545
vt 0.142739 0.038231
vt 0.097348 0.037629
vt 0.367608 0.088195
vt 0.555536 0.088206
vt 0.556666 0.081585
vt 0.367608 0.081575
vt 0.549677 0.104957
vt 0.542631 0.125135
vt 0.535575 0.145309
vt 0.367594 0.569710
vt 0.556084 0.569710
vt 0.556498 0.572132
vt 0.367594 0.572132
vt 0.566070 0.252728
vt 0.564514 0.252702
vt 0.650265 0.347048
vt 0.653777 0.003731
vt 0.653772 0.004080
vt 0.949985 0.084549
vt 0.966480 0.084149
vt 0.653782 0.003381
vt 0.647884 0.352706
vt 0.647885 0.352358
vt 0.827848 0.443749
vt 0.827848 0.359810
vt 0.767466 0.443749
vt 0.767466 0.359810
vt 0.653089 0.347054
vt 0.831438 0.541491
vt 0.831438 0.527687
vt 0.829499 0.527687
vt 0.827848 0.527687
vt 0.767466 0.527687
vt 0.829499 0.541491
vt 0.827848 0.541491
vt 0.767466 0.541491
vt 0.647883 0.353054
vt 0.949985 0.584516
vt 0.966480 0.584901
vt 0.646196 0.009461
vt 0.356906 0.038113
vt 0.356210 0.038191
vt 0.355527 0.038267
vt 0.357055 0.070754
vt 0.358040 0.103458
vt 0.358489 0.136363
vt 0.358688 0.169386
vt 0.360078 0.169381
vt 0.360777 0.169378
vt 0.359874 0.136350
vt 0.360575 0.136343
vt 0.359419 0.103428
vt 0.360119 0.103413
vt 0.358425 0.070687
vt 0.359122 0.070653
vt 0.359382 0.169384
vt 0.359180 0.136357
vt 0.358728 0.103443
vt 0.357737 0.070721
vt 0.738526 0.269420
vt 0.738175 0.269419
vt 0.738493 0.286113
vt 0.738142 0.286111
vt 0.738175 0.269471
vt 0.738384 0.302810
vt 0.738034 0.302806
vt 0.738086 0.319489
vt 0.737735 0.319478
vt 0.737357 0.336089
vt 0.737734 0.319519
vt 0.739228 0.269420
vt 0.738877 0.269420
vt 0.739196 0.286116
vt 0.738845 0.286114
vt 0.739087 0.302819
vt 0.738736 0.302814
vt 0.738786 0.319511
vt 0.738436 0.319500
vt 0.738053 0.336139
vt 0.737705 0.336114
vt 0.367610 0.945924
vt 0.556712 0.945914
vt 0.367609 0.930446
vt 0.556711 0.930436
vt 0.367609 0.914968
vt 0.556710 0.914957
vt 0.367608 0.899490
vt 0.556709 0.899479
vt 0.367607 0.884012
vt 0.556708 0.884001
vt 0.563825 0.269366
vt 0.563474 0.269367
vt 0.563465 0.252701
vt 0.563814 0.252701
vt 0.827848 0.553885
vt 0.767466 0.553885
vt 0.827848 0.566496
vt 0.767466 0.566496
vt 0.833150 0.553885
vt 0.831438 0.553885
vt 0.833150 0.566496
vt 0.831438 0.566496
vt 0.893374 0.553885
vt 0.893374 0.566496
vt 0.829499 0.553885
vt 0.829499 0.566496
vt 0.564176 0.269365
vt 0.564164 0.252702
vt 0.564527 0.269365
vt 0.833150 0.578672
vt 0.831438 0.578672
vt 0.833150 0.591066
vt 0.831438 0.591066
vt 0.833150 0.603460
vt 0.833150 0.611626
vt 0.564027 0.319534
vt 0.564378 0.319522
vt 0.563682 0.302806
vt 0.564034 0.302800
vt 0.563538 0.286366
vt 0.563889 0.286364
vt 0.564730 0.319510
vt 0.564386 0.302795
vt 0.564241 0.286362
vt 0.893374 0.578672
vt 0.893374 0.591066
vt 0.893374 0.603460
vt 0.893374 0.611626
vt 0.565080 0.319498
vt 0.564738 0.302790
vt 0.564593 0.286359
vt 0.827848 0.578672
vt 0.767466 0.578672
vt 0.827848 0.591066
vt 0.767466 0.591066
vt 0.827848 0.603460
vt 0.767466 0.603460
vt 0.827848 0.611626
vt 0.767466 0.611626
vt 0.829499 0.578672
vt 0.829499 0.591066
vt 0.735573 0.319453
vt 0.949985 0.982781
vt 0.966480 0.982761
vt 0.966480 0.993484
vt 0.949985 0.993484
vt 0.966480 0.917857
vt 0.949985 0.917806
vt 0.966480 0.934332
vt 0.949985 0.934336
vt 0.966480 0.950303
vt 0.949985 0.950293
vt 0.966480 0.966577
vt 0.949985 0.966537
vt 0.735866 0.302789
vt 0.735972 0.286392
vt 0.736007 0.269469
vt 0.736019 0.252766
vt 0.966480 0.195510
vt 0.949985 0.195340
vt 0.966480 0.211615
vt 0.949985 0.211584
vt 0.966480 0.227602
vt 0.949985 0.227541
vt 0.966480 0.244065
vt 0.949985 0.244071
vt 0.966480 0.260290
vt 0.949985 0.260315
vt 0.566089 0.269367
vt 0.566157 0.286287
vt 0.566302 0.302735
vt 0.566635 0.319272
vt 0.567412 0.336073
vt 0.618554 0.663972
vt 0.618554 0.961384
vt 0.648708 0.663972
vt 0.648708 0.961384
vt 0.677840 0.663972
vt 0.677840 0.961384
vt 0.705950 0.663972
vt 0.705950 0.961384
vt 0.734142 0.663972
vt 0.734142 0.961384
vt 0.760715 0.663972
vt 0.760715 0.961384
vt 0.973960 0.041532
vt 0.973235 0.041532
vt 0.973236 0.021708
vt 0.973960 0.021558
vt 0.973235 0.102066
vt 0.973959 0.101614
vt 0.973235 0.082596
vt 0.973959 0.082114
vt 0.973235 0.062418
vt 0.973959 0.062016
vt 0.973236 0.003375
vt 0.973960 0.003375
vt 0.367601 0.242792
vt 0.368179 0.242955
vt 0.367601 0.227041
vt 0.368180 0.227074
vt 0.367602 0.211836
vt 0.368180 0.211490
vt 0.367602 0.196357
vt 0.368180 0.196371
vt 0.367603 0.180879
vt 0.368181 0.180869
vt 0.973957 0.404079
vt 0.973233 0.403400
vt 0.973233 0.383929
vt 0.973957 0.384215
vt 0.528482 0.196362
vt 0.527904 0.196245
vt 0.528482 0.211840
vt 0.527904 0.211647
vt 0.528481 0.227318
vt 0.527903 0.226709
vt 0.528481 0.242796
vt 0.527903 0.242794
vt 0.528481 0.258275
vt 0.527902 0.258303
vt 0.973233 0.444464
vt 0.973957 0.444249
vt 0.973233 0.423578
vt 0.973957 0.423505
vt 0.973233 0.364403
vt 0.973957 0.364403
vt 0.115616 0.155821
vt 0.126596 0.147563
vt 0.140468 0.201844
vt 0.133326 0.137345
vt 0.136693 0.125408
vt 0.136219 0.112819
vt 0.131892 0.101082
vt 0.124313 0.091316
vt 0.113631 0.084079
vt 0.090577 0.160368
vt 0.103580 0.160031
vt 0.102144 0.080656
vt 0.088999 0.080980
vt 0.068481 0.149661
vt 0.079127 0.156980
vt 0.056750 0.127827
vt 0.060950 0.139747
vt 0.060166 0.102987
vt 0.056481 0.115070
vt 0.077653 0.084939
vt 0.067319 0.092695
vt 0.814983 0.860372
vt 0.811331 0.858163
vt 0.815814 0.856674
vt 0.820649 0.870150
vt 0.818969 0.866203
vt 0.823460 0.867666
vt 0.819800 0.881620
vt 0.820644 0.877415
vt 0.823470 0.881339
vt 0.812732 0.890339
vt 0.815826 0.887406
vt 0.815840 0.892309
vt 0.805016 0.855964
vt 0.800791 0.856434
vt 0.803609 0.852494
vt 0.800799 0.892467
vt 0.805019 0.892966
vt 0.803609 0.896426
vt 0.795895 0.858101
vt 0.792233 0.860288
vt 0.791410 0.856590
vt 0.788256 0.866076
vt 0.786571 0.870018
vt 0.783767 0.867516
vt 0.786576 0.877283
vt 0.787417 0.881489
vt 0.783744 0.881186
vt 0.791400 0.887320
vt 0.794485 0.890268
vt 0.791373 0.892222
vt 0.934458 0.831193
vt 0.877624 0.831183
vt 0.873517 0.816847
vt 0.934442 0.816857
vt 0.868947 0.788393
vt 0.934426 0.788399
vt 0.934431 0.802822
vt 0.870600 0.802817
vt 0.934552 0.661881
vt 0.897481 0.661914
vt 0.899128 0.647488
vt 0.934552 0.647457
vt 0.897915 0.618408
vt 0.934518 0.618377
vt 0.934541 0.632806
vt 0.899278 0.632836
vt 0.934495 0.858591
vt 0.887040 0.858568
vt 0.882025 0.844286
vt 0.934475 0.844310
vt 0.891358 0.871737
vt 0.934512 0.871775
vt 0.934525 0.886121
vt 0.895261 0.886086
vt 0.934446 0.745179
vt 0.872808 0.745177
vt 0.876715 0.730831
vt 0.934463 0.730833
vt 0.886053 0.703380
vt 0.934506 0.703368
vt 0.934483 0.717649
vt 0.881036 0.717662
vt 0.934426 0.773748
vt 0.868787 0.773741
vt 0.870133 0.759312
vt 0.934433 0.759319
vt 0.894566 0.675942
vt 0.934543 0.675915
vt 0.934526 0.690251
vt 0.890456 0.690280
vt 0.897928 0.900221
vt 0.934530 0.900260
vt 0.825927 0.841731
vt 0.839739 0.861902
vt 0.803602 0.833968
vt 0.839738 0.886785
vt 0.825927 0.906857
vt 0.803602 0.914449
vt 0.781278 0.841560
vt 0.781276 0.906685
vt 0.767466 0.861624
vt 0.767466 0.886506
s 1
usemtl m_triple_recycling_bin
f 13/1/1 12/2/1 7/3/1 8/4/1
f 360/5/2 478/6/2 502/7/2 385/8/2
f 374/9/2 372/10/2 361/11/2 363/12/2
f 9/13/3 16/14/3 513/15/3 452/16/3
f 17/17/1 536/18/1 530/19/1 20/20/1
f 9/21/2 452/22/2 465/23/2 377/24/2
f 8/4/4 7/3/4 394/25/4 364/26/4
f 6/27/2 10/28/2 371/29/2 373/30/2
f 10/28/2 9/21/2 377/24/2 371/29/2
f 21/31/1 22/32/1 23/33/1 24/34/1
f 25/35/1 26/36/1 27/37/1 28/38/1
f 6/39/3 5/40/3 15/41/3 10/42/3
f 10/42/3 15/41/3 16/14/3 9/13/3
f 363/43/4 393/44/4 392/45/4 374/46/4
f 356/47/5 103/48/5 348/49/6 349/50/6
f 4/51/1 3/52/1 520/53/1 494/54/1
f 14/55/1 11/56/1 12/2/1 13/1/1
f 17/57/4 20/58/4 31/59/4 30/60/4
f 22/61/2 21/62/2 34/63/2 33/64/2
f 18/65/2 531/66/2 539/67/2 29/68/2
f 28/69/7 27/70/7 40/71/7 39/72/7
f 24/73/7 23/74/7 36/75/7 35/76/7
f 27/70/8 26/77/8 37/78/8 40/71/8
f 20/58/7 530/79/7 548/80/7 31/59/7
f 23/74/8 22/61/8 33/64/8 36/75/8
f 25/81/4 28/69/4 39/72/4 38/82/4
f 19/83/8 18/65/8 29/68/8 32/84/8
f 26/77/2 25/85/2 38/86/2 37/78/2
f 21/87/4 24/73/4 35/76/4 34/88/4
f 52/89/9 49/90/9 50/91/9 54/92/9
f 54/92/9 50/91/9 51/93/9 56/94/9
f 41/95/10 42/96/10 59/97/10 58/98/10
f 44/99/4 41/95/4 58/98/4 61/100/4
f 45/101/10 46/102/10 63/103/10 62/104/10
f 42/96/8 43/105/8 60/106/8 59/97/8
f 48/107/4 45/101/4 62/104/4 65/108/4
f 43/109/11 44/99/11 61/100/11 60/110/11
f 46/102/8 47/111/8 64/112/8 63/103/8
f 47/113/12 48/107/12 65/108/12 64/114/12
f 60/115/13 61/116/14 68/117/15 69/118/16
f 69/119/3 68/120/3 72/121/3 73/122/3
f 61/116/14 58/123/17 67/124/18 68/117/15
f 59/125/19 60/115/13 69/118/16 66/126/20
f 58/123/17 59/125/19 66/126/20 67/124/18
f 70/127/7 73/128/7 72/129/7 71/130/7
f 68/131/4 67/132/4 71/133/4 72/134/4
f 66/135/8 69/119/8 73/122/8 70/136/8
f 67/132/1 66/135/1 70/136/1 71/133/1
f 64/137/21 65/138/22 77/139/22 76/140/21
f 65/138/22 62/141/23 74/142/23 77/139/22
f 63/143/24 64/137/21 76/140/21 75/144/24
f 62/141/23 63/143/24 75/144/24 74/142/23
f 75/145/8 76/146/8 80/147/8 79/148/8
f 74/149/1 75/145/1 79/148/1 78/150/1
f 76/146/3 77/151/3 81/152/3 80/147/3
f 77/153/4 74/149/4 78/150/4 81/154/4
f 87/155/25 85/156/26 95/157/26 97/158/25
f 90/159/27 91/160/28 101/161/28 100/162/27
f 85/156/26 84/163/29 94/164/29 95/157/26
f 82/165/30 86/166/31 96/167/31 92/168/30
f 91/160/28 87/155/25 97/158/25 101/161/28
f 88/169/32 89/170/33 99/171/33 98/172/32
f 83/173/34 82/165/30 92/168/30 93/174/34
f 86/166/31 88/169/32 98/172/32 96/167/31
f 89/170/33 90/175/27 100/176/27 99/171/33
f 84/163/29 83/173/34 93/174/34 94/164/29
f 79/177/7 80/178/7 81/179/7 78/180/7
f 93/181/7 92/182/7 96/183/7 98/184/7 99/185/7 100/186/7 101/187/7 97/188/7 95/189/7 94/190/7
f 137/191/35 102/192/9 43/193/9 42/194/9
f 137/191/35 104/195/36 106/196/37 139/197/37
f 139/197/37 106/196/37 107/198/38 138/199/38
f 138/199/38 107/198/38 105/200/39 136/201/39
f 104/195/36 108/202/40 110/203/37 106/196/37
f 106/196/37 110/203/37 111/204/38 107/198/38
f 107/198/38 111/204/38 109/205/39 105/200/39
f 108/202/40 112/206/41 114/207/42 110/203/37
f 110/203/37 114/207/42 115/208/43 111/204/38
f 111/204/38 115/208/43 113/209/39 109/205/39
f 112/206/41 116/210/44 118/211/45 114/207/42
f 114/207/42 118/211/45 119/212/46 115/208/43
f 115/208/43 119/212/46 117/213/39 113/209/39
f 116/210/44 120/214/47 122/215/48 118/211/45
f 118/211/45 122/215/48 123/216/49 119/212/46
f 119/212/46 123/216/49 121/217/39 117/213/39
f 120/214/47 124/218/50 126/219/51 122/215/48
f 122/215/48 126/219/51 127/220/49 123/216/49
f 123/216/49 127/220/49 125/221/39 121/217/39
f 124/218/50 128/222/52 130/223/53 126/219/51
f 126/219/51 130/223/53 131/224/46 127/220/49
f 127/220/49 131/224/46 129/225/39 125/221/39
f 128/222/52 133/226/54 135/227/55 130/223/53
f 130/223/53 135/227/55 134/228/43 131/224/46
f 131/224/46 134/228/43 132/229/39 129/225/39
f 104/195/36 137/191/35 42/194/9 41/230/9
f 108/202/40 104/195/36 46/231/9 45/232/9
f 112/206/41 108/202/40 49/90/9 52/89/9
f 140/233/56 143/234/57 145/235/58 144/236/59
f 143/234/57 147/237/60 148/238/61 145/235/58
f 141/239/62 146/240/63 148/238/61 147/237/60
f 146/240/63 150/241/64 151/242/65 148/238/61
f 142/243/66 149/244/67 151/242/65 150/241/64
f 149/244/67 144/236/59 145/235/58 151/242/65
f 145/235/58 148/238/61 151/242/65
f 152/245/68 155/246/69 157/247/70 156/248/71
f 155/246/69 159/249/72 160/250/73 157/247/70
f 153/251/74 158/252/75 160/250/73 159/249/72
f 158/252/75 162/253/76 163/254/77 160/250/73
f 154/255/78 161/256/79 163/254/77 162/253/76
f 161/256/79 156/248/71 157/247/70 163/254/77
f 157/247/70 160/250/73 163/254/77
f 164/257/80 167/258/81 169/259/82 168/260/83
f 167/258/81 171/261/84 172/262/85 169/259/82
f 165/263/86 170/264/87 172/262/85 171/261/84
f 170/264/87 174/265/88 175/266/89 172/262/85
f 166/267/90 173/268/91 175/266/89 174/265/88
f 173/268/91 168/260/83 169/259/82 175/266/89
f 169/259/82 172/262/85 175/266/89
f 176/269/92 179/270/93 181/271/94 180/272/95
f 179/270/93 183/273/96 184/274/97 181/271/94
f 177/275/98 182/276/99 184/274/97 183/273/96
f 182/276/99 186/277/100 187/278/101 184/274/97
f 178/279/102 185/280/103 187/278/101 186/277/100
f 185/280/103 180/272/95 181/271/94 187/278/101
f 181/271/94 184/274/97 187/278/101
f 212/281/104 215/282/105 217/283/106 216/284/107
f 215/282/105 219/285/108 220/286/109 217/283/106
f 213/287/110 218/288/111 220/286/109 219/285/108
f 218/288/111 222/289/112 223/290/113 220/286/109
f 214/291/114 221/292/115 223/290/113 222/289/112
f 221/292/115 216/284/107 217/283/106 223/290/113
f 217/283/106 220/286/109 223/290/113
f 228/293/116 231/294/117 233/295/118 232/296/119
f 231/294/117 235/297/120 236/298/121 233/295/118
f 229/299/122 234/300/123 236/298/121 235/297/120
f 234/300/123 238/301/124 239/302/125 236/298/121
f 230/303/126 237/304/127 239/302/125 238/301/124
f 237/304/127 232/296/119 233/295/118 239/302/125
f 233/295/118 236/298/121 239/302/125
f 240/305/128 243/306/129 245/307/130 244/308/131
f 243/306/129 247/309/132 248/310/133 245/307/130
f 241/311/134 246/312/135 248/310/133 247/309/132
f 246/312/135 250/313/136 251/314/137 248/310/133
f 242/315/138 249/316/139 251/314/137 250/313/136
f 249/316/139 244/308/131 245/307/130 251/314/137
f 245/307/130 248/310/133 251/314/137
f 252/317/140 255/318/141 257/319/142 256/320/143
f 255/318/141 259/321/144 260/322/145 257/319/142
f 253/323/146 258/324/147 260/322/145 259/321/144
f 258/324/147 262/325/148 263/326/149 260/322/145
f 254/327/150 261/328/151 263/326/149 262/325/148
f 261/328/151 256/320/143 257/319/142 263/326/149
f 257/319/142 260/322/145 263/326/149
f 360/329/8 188/330/8 191/331/8 359/332/8
f 353/333/152 345/334/153 358/335/153 352/336/152
f 367/337/154 376/338/155 365/339/155 390/340/154
f 197/341/156 439/342/156 432/343/157 199/344/158
f 199/344/158 432/343/157 438/345/159 198/346/159
f 198/346/159 438/345/159 450/347/160 196/348/161
f 205/349/162 417/350/162 426/351/163 207/352/164
f 207/352/164 426/351/163 411/353/165 206/354/166
f 206/354/166 411/353/165 416/355/167 204/356/167
f 153/357/74 176/358/92 180/359/95 158/360/75
f 158/360/75 180/359/95 185/361/103 162/362/76
f 162/362/76 185/361/103 178/363/102 154/364/78
f 165/365/86 142/366/66 150/367/64 170/368/87
f 170/368/87 150/367/64 146/369/63 174/370/88
f 174/370/88 146/369/63 141/371/62 166/372/90
f 142/243/66 389/373/154 366/374/168 149/244/67
f 149/244/67 366/374/168 380/375/169 144/236/59
f 144/236/59 380/375/169 388/376/170 140/233/56
f 154/255/78 399/377/156 400/378/171 161/256/79
f 161/256/79 400/378/171 402/379/172 156/248/71
f 156/248/71 402/379/172 401/380/173 152/245/68
f 192/381/156 197/341/156 199/344/158 194/382/158
f 194/382/158 199/344/158 198/346/159 195/383/174
f 195/383/174 198/346/159 196/348/161 193/384/161
f 177/275/98 396/385/175 397/386/176 182/276/99
f 182/276/99 397/386/176 398/387/177 186/277/100
f 186/277/100 398/387/177 395/388/167 178/279/102
f 200/389/175 205/349/162 207/352/164 202/390/178
f 202/390/178 207/352/164 206/354/166 203/391/179
f 203/391/179 206/354/166 204/356/167 201/392/167
f 209/393/180 213/287/110 219/285/108 211/394/181
f 211/394/181 219/285/108 215/282/105 210/395/182
f 210/395/182 215/282/105 212/281/104 208/396/183
f 309/397/184 228/293/116 232/296/119 311/398/185
f 311/398/185 232/296/119 237/304/127 310/399/186
f 310/399/186 237/304/127 230/303/126 308/400/187
f 242/401/138 253/402/146 259/403/144 249/404/139
f 249/404/139 259/403/144 255/405/141 244/406/131
f 244/406/131 255/405/141 252/407/140 240/408/128
f 213/409/110 230/410/126 238/411/124 218/412/111
f 218/412/111 238/411/124 234/413/123 222/414/112
f 222/414/112 234/413/123 229/415/122 214/416/114
f 253/323/146 483/417/188 498/418/189 258/324/147
f 258/324/147 498/418/189 510/419/190 262/325/148
f 262/325/148 510/419/190 482/420/191 254/327/150
f 264/421/192 209/393/180 211/394/181 266/422/181
f 266/422/181 211/394/181 210/395/182 267/423/193
f 267/423/193 210/395/182 208/396/183 265/424/194
f 305/425/195 268/426/196 270/427/197 307/428/198
f 307/428/198 270/427/197 271/429/199 306/430/200
f 306/430/200 271/429/199 269/431/201 304/432/202
f 268/426/196 224/433/203 226/434/197 270/427/197
f 270/427/197 226/434/197 227/435/199 271/429/199
f 271/429/199 227/435/199 225/436/204 269/431/201
f 281/437/205 241/311/134 247/309/132 283/438/206
f 283/438/206 247/309/132 243/306/129 282/439/207
f 282/439/207 243/306/129 240/305/128 280/440/208
f 273/441/205 276/442/209 278/443/210 275/444/211
f 275/444/211 278/443/210 279/445/212 274/446/213
f 274/446/213 279/445/212 277/447/208 272/448/208
f 276/442/209 281/437/205 283/438/206 278/443/210
f 278/443/210 283/438/206 282/439/207 279/445/212
f 279/445/212 282/439/207 280/440/208 277/447/208
f 241/311/134 284/449/214 286/450/215 246/312/135
f 246/312/135 286/450/215 287/451/216 250/313/136
f 250/313/136 287/451/216 285/452/217 242/315/138
f 284/449/214 288/453/218 290/454/197 286/450/215
f 286/450/215 290/454/197 291/455/199 287/451/216
f 287/451/216 291/455/199 289/456/219 285/452/217
f 288/453/218 292/457/220 294/458/221 290/454/197
f 290/454/197 294/458/221 295/459/222 291/455/199
f 291/455/199 295/459/222 293/460/223 289/456/219
f 292/457/220 296/461/220 298/462/221 294/458/221
f 294/458/221 298/462/221 299/463/222 295/459/222
f 295/459/222 299/463/222 297/464/224 293/460/223
f 296/461/220 300/465/225 302/466/197 298/462/221
f 298/462/221 302/466/197 303/467/199 299/463/222
f 299/463/222 303/467/199 301/468/226 297/464/224
f 300/465/225 305/425/195 307/428/198 302/466/197
f 302/466/197 307/428/198 306/430/200 303/467/199
f 303/467/199 306/430/200 304/432/202 301/468/226
f 224/433/203 309/397/184 311/398/185 226/434/197
f 226/434/197 311/398/185 310/399/186 227/435/199
f 227/435/199 310/399/186 308/400/187 225/436/204
f 313/469/227 320/470/228 322/471/229 315/472/230
f 315/472/230 322/471/229 323/473/231 314/474/232
f 314/474/232 323/473/231 321/475/233 312/476/234
f 320/470/228 324/477/235 326/478/236 322/471/229
f 322/471/229 326/478/236 327/479/237 323/473/231
f 323/473/231 327/479/237 325/480/233 321/475/233
f 324/477/235 316/481/238 318/482/239 326/478/236
f 326/478/236 318/482/239 319/483/240 327/479/237
f 327/479/237 319/483/240 317/484/241 325/480/233
f 329/485/242 336/486/243 338/487/244 331/488/245
f 331/488/245 338/487/244 339/489/246 330/490/247
f 330/490/247 339/489/246 337/491/248 328/492/249
f 336/486/243 340/493/250 342/494/251 338/487/244
f 338/487/244 342/494/251 343/495/252 339/489/246
f 339/489/246 343/495/252 341/496/248 337/491/248
f 340/493/250 332/497/253 334/498/254 342/494/251
f 342/494/251 334/498/254 335/499/255 343/495/252
f 343/495/252 335/499/255 333/500/256 341/496/248
f 312/476/234 165/263/86 171/261/84 314/474/232
f 314/474/232 171/261/84 167/258/81 315/472/230
f 315/472/230 167/258/81 164/257/80 313/469/227
f 272/448/208 317/484/241 319/483/240 274/446/213
f 274/446/213 319/483/240 318/482/239 275/444/211
f 275/444/211 318/482/239 316/481/238 273/441/205
f 176/269/92 333/500/256 335/499/255 179/270/93
f 179/270/93 335/499/255 334/498/254 183/273/96
f 183/273/96 334/498/254 332/497/253 177/275/98
f 228/293/116 329/485/242 331/488/245 231/294/117
f 231/294/117 331/488/245 330/490/247 235/297/120
f 235/297/120 330/490/247 328/492/249 229/299/122
f 388/376/170 190/501/2 1/502/2 140/233/56
f 387/503/257 379/504/169 382/505/169 384/506/258
f 3/507/2 191/508/2 383/509/259 254/327/150
f 214/291/114 355/510/5 350/511/260 221/292/115
f 221/292/115 350/511/260 346/512/153 216/284/107
f 216/284/107 346/512/153 354/513/261 212/281/104
f 141/514/62 444/515/156 405/516/167 166/517/90
f 367/518/154 390/519/154 321/520/233 325/521/233
f 1/502/2 511/522/2 445/523/262 140/233/56
f 5/524/2 391/525/2 351/526/261 152/245/68
f 344/527/5 333/528/256 176/358/92 153/357/74
f 192/529/156 399/530/156 395/531/167 201/532/167
f 164/257/80 404/533/263 132/229/39 313/469/227
f 200/389/175 396/385/175 136/201/39 105/200/39
f 2/534/8 1/535/8 190/536/8 386/537/8
f 392/538/2 393/539/2 353/333/152 352/336/152
f 7/540/2 12/541/2 208/396/183 212/281/104
f 328/542/249 355/543/5 214/416/114 229/415/122
f 197/544/156 192/529/156 201/532/167 204/545/167
f 16/546/2 15/547/2 193/384/161 196/348/161
f 205/349/162 200/389/175 105/200/39 109/205/39
f 12/541/2 11/548/2 265/424/194 208/396/183
f 209/549/180 264/550/192 37/551/1 38/552/1
f 209/549/180 225/553/204 36/554/1 33/555/1
f 213/409/110 209/549/180 33/555/1 34/556/1
f 225/553/204 209/549/180 38/552/1 39/557/1
f 230/410/126 213/409/110 34/556/1 35/558/1
f 224/433/203 268/426/196 48/559/9 47/560/9
f 269/561/201 225/553/204 39/557/1 40/562/1
f 102/192/9 309/397/184 224/433/203 44/563/9 43/193/9
f 104/195/36 224/433/203 47/560/9 46/231/9
f 225/553/204 308/564/187 230/410/126 35/558/1 36/554/1
f 224/433/203 104/195/36 41/230/9 44/563/9
f 228/293/116 309/397/184 102/192/9 137/191/35 329/485/242
f 253/402/146 242/401/138 32/565/1 29/566/1
f 281/437/205 57/567/9 284/449/214 241/311/134
f 242/401/138 285/568/217 543/569/1 32/565/1
f 264/550/192 458/570/264 538/571/1 30/572/1
f 264/550/192 269/561/201 40/562/1 37/551/1
f 269/561/201 264/550/192 30/572/1 31/573/1
f 268/426/196 51/93/9 50/91/9 49/90/9 108/202/40 45/232/9 48/559/9
f 56/94/9 51/93/9 268/426/196 305/425/195
f 273/441/205 53/574/9 55/575/9 276/442/209
f 316/481/238 133/226/54 53/574/9 273/441/205
f 276/442/209 55/575/9 57/567/9 281/437/205
f 368/576/154 367/518/154 325/521/233 317/577/241
f 134/228/43 320/470/228 313/469/227 132/229/39
f 133/226/54 316/481/238 324/477/235 135/227/55
f 312/578/234 389/579/154 142/366/66 165/365/86
f 252/407/140 368/576/154 317/577/241 272/580/208 277/581/208 280/582/208 240/408/128
f 135/227/55 324/477/235 320/470/228 134/228/43
f 356/583/5 337/584/248 341/585/248 103/586/5
f 329/485/242 137/191/35 139/197/37 336/486/243
f 340/493/250 138/199/38 136/201/39 332/497/253
f 103/586/5 341/585/248 333/528/256 344/527/5
f 321/520/233 390/519/154 389/579/154 312/578/234
f 336/486/243 139/197/37 138/199/38 340/493/250
f 11/548/2 525/587/2 455/588/265 265/424/194
f 359/332/8 191/331/8 3/52/8 4/51/8
f 15/547/2 5/524/2 401/380/173 193/384/161
f 383/509/259 191/508/2 188/589/2 384/506/258
f 337/584/248 356/583/5 355/543/5 328/542/249
f 358/335/153 348/49/6 347/590/266 357/591/267
f 357/591/267 347/590/266 159/249/72 155/246/69
f 352/336/152 358/335/153 357/591/267 351/526/261
f 351/526/261 357/591/267 155/246/69 152/245/68
f 350/511/260 355/510/5 356/47/5 349/50/6
f 345/334/153 349/50/6 348/49/6 358/335/153
f 346/512/153 350/511/260 349/50/6 345/334/153
f 385/592/8 189/593/8 188/330/8 360/329/8
f 348/49/6 103/48/5 344/594/5 347/590/266
f 347/590/266 344/594/5 153/251/74 159/249/72
f 354/513/261 346/512/153 345/334/153 353/333/152
f 386/537/8 190/536/8 189/593/8 385/592/8
f 382/505/169 376/338/155 375/595/168 381/596/268
f 381/596/268 375/595/168 256/320/143 261/328/151
f 363/12/2 361/11/2 362/597/2 364/598/2
f 364/598/2 362/597/2 13/599/2 8/600/2
f 366/374/168 389/373/154 390/340/154 365/339/155
f 379/504/169 365/339/155 376/338/155 382/505/169
f 384/506/258 382/505/169 381/596/268 383/509/259
f 383/509/259 381/596/268 261/328/151 254/327/150
f 380/375/169 366/374/168 365/339/155 379/504/169
f 387/503/257 189/601/2 190/501/2 388/376/170
f 377/24/2 465/23/2 467/602/2 378/603/2
f 372/10/2 378/603/2 369/604/2 361/11/2
f 361/11/2 369/604/2 370/605/2 362/597/2
f 362/597/2 370/605/2 14/606/2 13/599/2
f 388/376/170 380/375/169 379/504/169 387/503/257
f 384/506/258 188/589/2 189/601/2 387/503/257
f 373/30/2 371/29/2 372/10/2 374/9/2
f 371/29/2 377/24/2 378/603/2 372/10/2
f 369/604/2 453/607/2 459/608/2 370/605/2
f 370/605/2 459/608/2 463/609/2 14/606/2
f 376/338/155 367/337/154 368/610/154 375/595/168
f 375/595/168 368/610/154 252/317/140 256/320/143
f 373/611/4 391/612/4 5/40/4 6/39/4
f 351/526/261 391/525/2 392/538/2 352/336/152
f 374/46/4 392/45/4 391/612/4 373/611/4
f 353/333/152 393/539/2 394/613/2 354/513/261
f 364/26/4 394/25/4 393/44/4 363/43/4
f 354/513/261 394/613/2 7/540/2 212/281/104
f 395/388/167 398/387/177 203/391/179 201/392/167
f 397/386/176 396/385/175 200/389/175 202/390/178
f 136/201/39 396/385/175 177/275/98 332/497/253
f 398/387/177 397/386/176 202/390/178 203/391/179
f 395/531/167 399/530/156 154/364/78 178/363/102
f 400/378/171 399/377/156 192/381/156 194/382/158
f 402/379/172 400/378/171 194/382/158 195/383/174
f 401/380/173 402/379/172 195/383/174 193/384/161
f 401/380/173 5/524/2 152/245/68
f 405/614/167 403/615/269 173/268/91 166/267/90
f 406/616/270 404/533/263 164/257/80 168/260/83
f 403/615/269 406/616/270 168/260/83 173/268/91
f 132/229/39 404/533/263 421/617/263 129/225/39
f 129/225/39 421/617/263 420/618/263 125/221/39
f 125/221/39 420/618/263 419/619/162 121/217/39
f 121/217/39 419/619/162 418/620/162 117/213/39
f 117/213/39 418/620/162 417/350/162 113/209/39
f 113/209/39 417/350/162 205/349/162 109/205/39
f 416/355/167 411/353/165 410/621/271 415/622/167
f 415/622/167 410/621/271 409/623/272 414/624/167
f 414/624/167 409/623/272 408/625/273 413/626/167
f 413/626/167 408/625/273 407/627/274 412/628/167
f 412/628/167 407/627/274 403/615/269 405/614/167
f 426/351/163 417/350/162 418/620/162 425/629/275
f 425/629/275 418/620/162 419/619/162 424/630/276
f 424/630/276 419/619/162 420/618/263 423/631/277
f 423/631/277 420/618/263 421/617/263 422/632/278
f 422/632/278 421/617/263 404/533/263 406/616/270
f 411/353/165 426/351/163 425/629/275 410/621/271
f 410/621/271 425/629/275 424/630/276 409/623/272
f 409/623/272 424/630/276 423/631/277 408/625/273
f 408/625/273 423/631/277 422/632/278 407/627/274
f 407/627/274 422/632/278 406/616/270 403/615/269
f 450/347/160 438/345/159 437/633/172 449/634/279
f 449/634/279 437/633/172 436/635/172 448/636/280 518/637/281
f 448/636/280 436/635/172 435/638/282 447/639/283
f 447/639/283 435/638/282 434/640/172 446/641/279
f 446/641/279 434/640/172 433/642/172 445/523/262 519/643/281
f 445/523/262 433/642/172 143/234/57 140/233/56
f 432/343/157 439/342/156 440/644/284 431/645/158
f 431/645/158 440/644/284 441/646/156 430/647/285
f 430/647/285 441/646/156 442/648/156 429/649/286
f 429/649/286 442/648/156 443/650/156 428/651/171
f 428/651/171 443/650/156 444/652/156 427/653/285
f 427/653/285 444/652/156 141/239/62 147/237/60
f 405/516/167 444/515/156 443/654/156 412/655/167
f 412/655/167 443/654/156 442/656/156 413/657/167
f 413/657/167 442/656/156 441/658/156 414/659/167
f 414/659/167 441/658/156 440/660/284 415/661/167
f 415/661/167 440/660/284 439/662/156 416/663/167
f 416/663/167 439/662/156 197/544/156 204/545/167
f 438/345/159 432/343/157 431/645/158 437/633/172
f 437/633/172 431/645/158 430/647/285 436/635/172
f 436/635/172 430/647/285 429/649/286 435/638/282
f 435/638/282 429/649/286 428/651/171 434/640/172
f 434/640/172 428/651/171 427/653/285 433/642/172
f 433/642/172 427/653/285 147/237/60 143/234/57
f 462/664/287 457/665/288 458/666/264 461/667/181
f 461/667/181 458/666/264 264/421/192 266/422/181
f 463/609/2 459/608/2 460/668/2 464/669/2
f 464/669/2 460/668/2 487/670/2 491/671/2
f 467/602/2 465/23/2 466/672/2 468/673/2
f 468/673/2 466/672/2 503/674/2 499/675/2
f 465/23/2 452/22/2 451/676/2 466/672/2
f 466/672/2 451/676/2 474/677/2 503/674/2
f 459/608/2 453/607/2 454/678/2 460/668/2
f 460/668/2 454/678/2 475/679/2 487/670/2
f 468/673/2 454/678/2 453/607/2 467/602/2
f 467/602/2 453/607/2 369/604/2 378/603/2
f 470/680/289 462/664/287 461/667/181 469/681/290
f 469/681/290 461/667/181 266/422/181 267/423/193
f 456/682/291 470/680/289 469/681/290 455/588/265
f 455/588/265 469/681/290 267/423/193 265/424/194
f 499/675/2 503/674/2 504/683/2 500/684/2
f 500/684/2 504/683/2 505/685/2 501/686/2
f 501/686/2 505/685/2 506/687/2 502/7/2
f 502/7/2 506/687/2 386/688/2 385/8/2
f 498/418/189 483/417/188 484/689/292 497/690/293
f 497/690/293 484/689/292 485/691/294 496/692/295
f 496/692/295 485/691/294 486/693/296 495/694/189
f 495/694/189 486/693/296 457/665/288 462/664/287
f 510/419/190 498/418/189 497/690/293 509/695/297
f 509/695/297 497/690/293 496/692/295 508/696/190
f 508/696/190 496/692/295 495/694/189 507/697/190
f 507/697/190 495/694/189 462/664/287 470/680/289
f 503/674/2 474/677/2 473/698/2 504/683/2
f 504/683/2 473/698/2 472/699/2 505/685/2
f 505/685/2 472/699/2 471/700/2 506/687/2
f 506/687/2 471/700/2 2/701/2 386/688/2
f 482/420/191 510/419/190 509/695/297 481/702/298
f 481/702/298 509/695/297 508/696/190 480/703/291
f 480/703/291 508/696/190 507/697/190 479/704/291
f 479/704/291 507/697/190 470/680/289 456/682/291
f 491/671/2 487/670/2 488/705/2 492/706/2
f 492/706/2 488/705/2 489/707/2 493/708/2
f 493/708/2 489/707/2 490/709/2 494/710/2
f 494/710/2 490/709/2 359/711/2 4/712/2
f 487/670/2 475/679/2 476/713/2 488/705/2
f 488/705/2 476/713/2 477/714/2 489/707/2
f 489/707/2 477/714/2 478/6/2 490/709/2
f 490/709/2 478/6/2 360/5/2 359/711/2
f 502/7/2 478/6/2 477/714/2 501/686/2
f 501/686/2 477/714/2 476/713/2 500/684/2
f 500/684/2 476/713/2 475/679/2 499/675/2
f 499/675/2 475/679/2 454/678/2 468/673/2
f 445/523/262 511/522/2 517/715/2 519/643/281
f 471/716/3 511/717/3 1/718/3 2/719/3
f 452/16/3 513/15/3 514/720/3 451/721/3
f 451/721/3 514/720/3 515/722/3 474/723/3
f 474/723/3 515/722/3 516/724/3 473/725/3
f 473/725/3 516/724/3 517/726/3 472/727/3
f 472/727/3 517/726/3 511/717/3 471/716/3
f 519/643/281 517/715/2 516/728/2 447/639/283 446/641/279
f 447/639/283 516/728/2 515/729/2 448/636/280
f 448/636/280 515/729/2 514/730/2 518/637/281
f 518/637/281 514/730/2 513/731/2 450/347/160 449/634/279
f 450/347/160 513/731/2 16/546/2 196/348/161
f 494/54/1 520/53/1 521/732/1 493/733/1
f 493/733/1 521/732/1 522/734/1 492/735/1
f 492/735/1 522/734/1 523/736/1 491/737/1
f 491/737/1 523/736/1 524/738/1 464/739/1
f 464/739/1 524/738/1 525/740/1 463/741/1
f 463/741/1 525/740/1 11/56/1 14/55/1
f 455/588/265 525/587/2 524/742/2 456/682/291
f 456/682/291 524/742/2 523/743/2 479/704/291
f 479/704/291 523/743/2 522/744/2 480/703/291
f 480/703/291 522/744/2 521/745/2 481/702/298
f 481/702/298 521/745/2 520/746/2 482/420/191
f 482/420/191 520/746/2 3/507/2 254/327/150
f 530/19/1 536/18/1 535/747/1 529/748/1
f 529/748/1 535/747/1 534/749/1 528/750/1
f 528/750/1 534/749/1 533/751/1 527/752/1
f 527/752/1 533/751/1 532/753/1 526/754/1
f 526/754/1 532/753/1 531/755/1 512/756/1
f 512/756/1 531/755/1 18/757/1 19/758/1
f 537/759/2 535/760/2 536/761/2 538/762/2
f 539/67/2 531/66/2 532/763/2 540/764/2
f 540/764/2 532/763/2 533/765/2 541/766/2
f 541/766/2 533/765/2 534/767/2 542/768/2
f 542/768/2 534/767/2 535/760/2 537/759/2
f 538/762/2 536/761/2 17/769/2 30/770/2
f 538/571/1 458/570/264 457/771/288 537/772/1
f 537/772/1 457/771/288 486/773/296 542/774/1
f 542/774/1 486/773/296 485/775/294 541/776/1
f 541/776/1 485/775/294 484/777/292 540/778/1
f 540/778/1 484/777/292 483/779/188 539/780/1
f 539/780/1 483/779/188 253/402/146 29/566/1
f 545/781/7 527/782/7 526/783/7 544/784/7
f 543/569/1 285/568/217 289/785/219 544/786/1
f 544/786/1 289/785/219 293/787/223 545/788/1
f 545/788/1 293/787/223 297/789/224 546/790/1
f 546/790/1 297/789/224 301/791/226 547/792/1
f 547/792/1 301/791/226 304/793/202 548/794/1
f 548/794/1 304/793/202 269/561/201 31/573/1
f 548/80/7 530/79/7 529/795/7 547/796/7
f 547/796/7 529/795/7 528/797/7 546/798/7
f 546/798/7 528/797/7 527/782/7 545/781/7
f 544/784/7 526/783/7 512/799/7 543/800/7
f 543/800/7 512/799/7 19/83/7 32/84/7
f 549/801/9 550/802/9 116/210/44 551/803/9
f 552/804/9 553/805/9 120/214/47
f 554/806/9 555/807/9 124/218/50
f 556/808/9 557/809/9 53/574/9 128/222/52
f 558/810/9 559/811/9 54/92/9
f 560/812/9 561/813/9 55/575/9
f 562/814/9 563/815/9 56/94/9 300/465/225
f 564/816/9 565/817/9 296/461/220
f 566/818/9 567/819/9 292/457/220
f 568/820/9 569/821/9 288/453/218 57/567/9
f 570/822/299 571/823/300 572/824/301
f 573/825/302 574/826/303 575/827/304
f 576/828/305 577/829/306 578/830/307
f 579/831/308 580/832/309 581/833/310
f 582/834/311 583/835/312 584/836/313
f 585/837/314 586/838/315 587/839/316
f 588/840/317 589/841/318 590/842/319
f 591/843/320 592/844/321 593/845/322
f 594/846/323 595/847/324 596/848/325
f 597/849/326 598/850/327 599/851/328
f 579/852/329 557/853/329 556/854/330 580/855/331
f 554/856/332 577/857/333 576/858/334 555/859/334
f 591/860/335 565/861/335 564/862/336 592/863/337
f 566/864/338 595/865/338 594/866/339 567/867/340
f 585/868/341 561/869/341 560/870/342 586/871/343
f 568/872/344 598/873/345 597/874/346 569/875/346
f 570/876/347 550/877/348 549/878/349 571/879/349
f 558/880/350 583/881/350 582/882/351 559/883/352
f 573/884/353 553/885/353 552/886/354 574/887/354
f 562/888/355 589/889/355 588/890/356 563/891/357
f 116/210/44 112/206/41 52/89/9 551/803/9
f 549/801/9 551/803/9 52/89/9 54/92/9 559/811/9
f 120/214/47 116/210/44 550/802/9 552/804/9
f 549/878/349 559/883/352 582/882/351 571/879/349
f 552/886/354 550/877/348 570/876/347 574/887/354
f 124/218/50 120/214/47 553/805/9 554/806/9
f 554/856/332 553/885/353 573/884/353 577/857/333
f 128/222/52 124/218/50 555/807/9 556/808/9
f 556/854/330 555/859/334 576/858/334 580/855/331
f 133/226/54 128/222/52 53/574/9
f 53/574/9 557/809/9 560/812/9 55/575/9
f 560/870/342 557/853/329 579/852/329 586/871/343
f 558/810/9 54/92/9 56/94/9 563/815/9
f 558/880/350 563/891/357 588/890/356 583/881/350
f 55/575/9 561/813/9 568/820/9 57/567/9
f 568/872/344 561/869/341 585/868/341 598/873/345
f 300/465/225 56/94/9 305/425/195
f 562/888/355 565/861/335 591/860/335 589/889/355
f 296/461/220 565/817/9 562/814/9 300/465/225
f 564/862/336 567/867/340 594/866/339 592/863/337
f 292/457/220 567/819/9 564/816/9 296/461/220
f 566/892/338 569/875/346 597/874/346 595/893/338
f 288/453/218 569/821/9 566/818/9 292/457/220
f 57/567/9 288/453/218 284/449/214
f 575/827/304 574/826/303 570/822/299 572/824/301 82/894/358 83/895/359
f 572/824/301 571/823/300 582/834/311 584/836/313 86/896/360 82/894/358
f 578/830/307 577/829/306 573/825/302 575/827/304 83/895/359 84/897/361
f 581/833/310 580/832/309 576/828/305 578/830/307 84/897/361 85/898/362
f 587/839/316 586/838/315 579/831/308 581/833/310 85/898/362 87/899/363
f 584/836/313 583/835/312 588/840/317 590/842/319 88/900/364 86/896/360
f 599/851/328 598/850/327 585/837/314 587/839/316 87/899/363 91/901/365
f 590/842/319 589/841/318 591/843/320 593/845/322 89/902/366 88/900/364
f 593/845/322 592/844/321 594/846/323 596/848/325 90/903/367 89/902/366
f 596/848/325 595/847/324 597/849/326 599/851/328 91/901/365 90/903/367
